<svg xmlns="http://www.w3.org/2000/svg" width="212.231" height="222.982" viewBox="0 0 212.231 222.982"><g transform="translate(-5933.708 244)"><path d="M6090.144-148.71a10.978,10.978,0,0,1-8.579,4.125h-21.152a11.013,11.013,0,0,1-7.048-2.552l-1.877-1.573a52.545,52.545,0,0,0-33.2,48.857,52.531,52.531,0,0,0,52.53,52.53,52.528,52.528,0,0,0,52.521-52.53A52.544,52.544,0,0,0,6090.144-148.71Zm-53.155,29.048,19.76-8.382c5.583,17.825-.107,23.087-10.415,22.98S6036.988-119.662,6036.988-119.662Zm53.97,42.122a4.8,4.8,0,0,1-4.808,4.693H6055.1A5.085,5.085,0,0,1,6050.014-78c.074-7.8,2.437-21.794,18.336-22.873,0,0,10.3-2.075,17.545,5.945a19.172,19.172,0,0,1,4.586,10A44.017,44.017,0,0,1,6090.958-77.54Zm.585-27.516c-12.351-1.507-9.666-17-9.666-17,1.086-5.838,2.791-5.986,2.791-5.986l19.439,8.6C6104.643-115.908,6103.894-103.558,6091.543-105.056Z" transform="translate(-14.942 -16.833)" fill="#facc5c"/><path d="M6090.144-148.71a10.978,10.978,0,0,1-8.579,4.125h-21.152a11.013,11.013,0,0,1-7.048-2.552l-1.877-1.573a52.545,52.545,0,0,0-33.2,48.857,52.531,52.531,0,0,0,52.53,52.53,52.528,52.528,0,0,0,52.521-52.53A52.544,52.544,0,0,0,6090.144-148.71Zm-53.155,29.048,19.76-8.382c5.583,17.825-.107,23.087-10.415,22.98S6036.988-119.662,6036.988-119.662Zm53.97,42.122a4.8,4.8,0,0,1-4.808,4.693H6055.1A5.085,5.085,0,0,1,6050.014-78c.074-7.8,2.437-21.794,18.336-22.873,0,0,10.3-2.075,17.545,5.945a19.172,19.172,0,0,1,4.586,10A44.017,44.017,0,0,1,6090.958-77.54Zm.585-27.516c-12.351-1.507-9.666-17-9.666-17,1.086-5.838,2.791-5.986,2.791-5.986l19.439,8.6C6104.643-115.908,6103.894-103.558,6091.543-105.056Z" transform="translate(-14.942 -16.833)" fill="#facc5c"/><path d="M6090.144-148.71a10.978,10.978,0,0,1-8.579,4.125h-21.152a11.013,11.013,0,0,1-7.048-2.552l-1.877-1.573a52.545,52.545,0,0,0-33.2,48.857,52.531,52.531,0,0,0,52.53,52.53,52.528,52.528,0,0,0,52.521-52.53A52.544,52.544,0,0,0,6090.144-148.71Zm-53.155,29.048,19.76-8.382c5.583,17.825-.107,23.087-10.415,22.98S6036.988-119.662,6036.988-119.662Zm53.97,42.122a4.8,4.8,0,0,1-4.808,4.693H6055.1A5.085,5.085,0,0,1,6050.014-78c.074-7.8,2.437-21.794,18.336-22.873,0,0,10.3-2.075,17.545,5.945a19.172,19.172,0,0,1,4.586,10A44.017,44.017,0,0,1,6090.958-77.54Zm.585-27.516c-12.351-1.507-9.666-17-9.666-17,1.086-5.838,2.791-5.986,2.791-5.986l19.439,8.6C6104.643-115.908,6103.894-103.558,6091.543-105.056Z" transform="translate(-14.942 -16.833)" fill="#facc5c"/><path d="M6090.144-148.71a10.978,10.978,0,0,1-8.579,4.125h-21.152a11.013,11.013,0,0,1-7.048-2.552l-1.877-1.573a52.545,52.545,0,0,0-33.2,48.857,52.531,52.531,0,0,0,52.53,52.53,52.528,52.528,0,0,0,52.521-52.53A52.544,52.544,0,0,0,6090.144-148.71Zm-53.155,29.048,19.76-8.382c5.583,17.825-.107,23.087-10.415,22.98S6036.988-119.662,6036.988-119.662Zm53.97,42.122a4.8,4.8,0,0,1-4.808,4.693H6055.1A5.085,5.085,0,0,1,6050.014-78c.074-7.8,2.437-21.794,18.336-22.873,0,0,10.3-2.075,17.545,5.945a19.172,19.172,0,0,1,4.586,10A44.017,44.017,0,0,1,6090.958-77.54Zm.585-27.516c-12.351-1.507-9.666-17-9.666-17,1.086-5.838,2.791-5.986,2.791-5.986l19.439,8.6C6104.643-115.908,6103.894-103.558,6091.543-105.056Z" transform="translate(-14.942 -16.833)" fill="#facc5c"/><path d="M6134.386-132.206l-.289-.222a73.269,73.269,0,0,0-51.483-54.654v-9.773c-.107-5.368-6.875-11.708-6.875-11.708V-232.4a11.6,11.6,0,0,0-11.6-11.6h-3.861a11.564,11.564,0,0,0-8.2,3.4,11.563,11.563,0,0,0-3.4,8.2h-1.259a5.875,5.875,0,0,0-5.879,5.87v6.719a5.877,5.877,0,0,0,5.879,5.879h1.259v5.8a9.924,9.924,0,0,0-5.055,5.022,18.983,18.983,0,0,0-2.083,8.835v7.509h.033a73.278,73.278,0,0,0-50.225,53.583s-25.038,26.751-18.171,40.064c0,0,6.273,4.94,18.171-5.8l.255-.239A73.24,73.24,0,0,0,6026.066-53.3s2.685,28.867,14.771,32.094c0,0,9.361,3.894,10-23.26v-.008a73.458,73.458,0,0,0,11.807.955,74.181,74.181,0,0,0,11.3-.865c.65,27.063,10,23.177,10,23.177,11.378-3.038,14.425-28.784,14.738-31.806h.009A73.2,73.2,0,0,0,6133.62-98.91C6148.868-86.024,6152.1-94.4,6152.1-94.4,6156.608-111.8,6134.386-132.206,6134.386-132.206Zm-143.9,27.714c-6.949,5.87-10.309,7.328-11.873,7.567a1.267,1.267,0,0,1-1.45-1.062c-1.416-8.991,12.31-25.944,12.31-25.944l.14,2.758c-.09,1.482-.14,2.981-.14,4.487a72.976,72.976,0,0,0,1.013,12.153ZM6041.8-26.529c-6.438-2.256-9.945-23.77-9.945-23.77a71.979,71.979,0,0,0,13.577,4.734C6045.678-26.093,6041.8-26.529,6041.8-26.529Zm41.176,0s-3.861.436-3.631-18.921a71.635,71.635,0,0,0,13.536-4.6C6092.461-47.648,6089-28.645,6082.976-26.529Zm-20.336-20.938a69.219,69.219,0,0,1-69.219-69.219,69.229,69.229,0,0,1,53.221-67.35h-.033l.115-2.766.049-1.309.272-6.735a5.914,5.914,0,0,1,1.128-3.244l3.384-4.668a11.357,11.357,0,0,0,2.166-6.669v-9.683h-6.686v-8.942h6.686v-1.976a8.424,8.424,0,0,1,6.447-8.184,8.587,8.587,0,0,1,1.968-.231,8.072,8.072,0,0,1,1.68.173,8.438,8.438,0,0,1,4.273,2.289,8.417,8.417,0,0,1,2.47,5.953v20.263a11.363,11.363,0,0,0,2.174,6.694l3.853,5.269a5.94,5.94,0,0,1,1.137,3.5v10.061a69.221,69.221,0,0,1,54.126,67.556A69.218,69.218,0,0,1,6062.639-47.467Zm85.068-50.521a1.267,1.267,0,0,1-1.449,1.062c-1.54-.239-4.817-1.647-11.519-7.278a73.325,73.325,0,0,0,1.062-12.482,71.418,71.418,0,0,0-.354-7.18C6136.37-122.721,6149.066-106.657,6147.708-97.988Z" transform="translate(-6.761)" fill="#0d0d0d"/><path d="M6054.646,15.03c-6.438-2.256-9.945-23.77-9.945-23.77a71.984,71.984,0,0,0,13.577,4.734C6058.524,15.466,6054.646,15.03,6054.646,15.03Z" transform="translate(-19.607 -41.559)" fill="#facc5c"/><path d="M6115.914-8.44c-.419,2.4-3.878,21.407-9.9,23.523,0,0-3.861.436-3.631-18.921A71.635,71.635,0,0,0,6115.914-8.44Z" transform="translate(-29.795 -41.612)" fill="#facc5c"/><path d="M5991.58-78.772v.041c-6.949,5.87-10.309,7.328-11.873,7.567a1.267,1.267,0,0,1-1.45-1.062c-1.416-8.991,12.31-25.944,12.31-25.944l.14,2.758c-.09,1.482-.14,2.981-.14,4.487A72.976,72.976,0,0,0,5991.58-78.772Z" transform="translate(-7.852 -25.761)" fill="#facc5c"/><path d="M6182.628-72.212a1.267,1.267,0,0,1-1.449,1.062c-1.54-.239-4.817-1.647-11.519-7.278a73.325,73.325,0,0,0,1.062-12.482,71.418,71.418,0,0,0-.354-7.18C6171.291-96.946,6183.986-80.882,6182.628-72.212Z" transform="translate(-41.682 -25.775)" fill="#facc5c"/><path d="M6085.252-159.39c-.312,2.865-3.523,5.121-7.451,5.121h-17.554c-3.869,0-7.048-2.19-7.435-5a59.844,59.844,0,0,0-43.382,57.527,59.816,59.816,0,0,0,59.824,59.816,59.815,59.815,0,0,0,59.816-59.816A59.845,59.845,0,0,0,6085.252-159.39Zm-16,110.18a52.531,52.531,0,0,1-52.53-52.53,52.545,52.545,0,0,1,33.2-48.857l1.878,1.573a11.012,11.012,0,0,0,7.048,2.552H6080a10.977,10.977,0,0,0,8.579-4.125,52.544,52.544,0,0,1,33.2,48.857A52.528,52.528,0,0,1,6069.255-49.21Z" transform="translate(-13.377 -14.947)" fill="#e15050"/><path d="M6102.38-2.875V-2.99" transform="translate(-29.796 -42.575)" fill="none" stroke="#f15a29" stroke-miterlimit="10" stroke-width="1"/><path d="M6118.861-8.74s-.017.091-.042.247" transform="translate(-32.701 -41.559)" fill="none" stroke="#f15a29" stroke-miterlimit="10" stroke-width="1"/><path d="M6082.737-237.077v51.336h-3.647v-51.278a8.587,8.587,0,0,1,1.968-.231A8.072,8.072,0,0,1,6082.737-237.077Z" transform="translate(-25.682 -1.192)" fill="#e15050"/><path d="M6082.323-183.012v-10.061a5.94,5.94,0,0,0-1.137-3.5l-3.854-5.269a11.366,11.366,0,0,1-2.174-6.694V-228.8a8.415,8.415,0,0,0-2.47-5.953,8.434,8.434,0,0,0-4.273-2.289V-185.7h-3.647v-51.278a8.424,8.424,0,0,0-6.446,8.184v1.976h-6.686v8.942h6.686v9.683a11.357,11.357,0,0,1-2.166,6.669l-3.384,4.668a5.918,5.918,0,0,0-1.128,3.244l-.271,6.735-.05,1.309-.115,2.766h.033a69.23,69.23,0,0,0-53.221,67.35,69.219,69.219,0,0,0,69.219,69.219,69.217,69.217,0,0,0,69.21-69.219A69.221,69.221,0,0,0,6082.323-183.012ZM6067.239-55.64a59.816,59.816,0,0,1-59.824-59.816,59.844,59.844,0,0,1,43.382-57.527c.387,2.808,3.565,5,7.435,5h17.554c3.928,0,7.139-2.256,7.451-5.121a59.845,59.845,0,0,1,43.819,57.651A59.815,59.815,0,0,1,6067.239-55.64Z" transform="translate(-11.361 -1.229)" fill="#facc5c"/><path d="M6060.755-123.61,6041-115.228s-.963,14.491,9.345,14.6S6066.338-105.785,6060.755-123.61Zm-5.878,15.018a3.465,3.465,0,0,1-3.467-3.458,3.467,3.467,0,0,1,3.467-3.466,3.466,3.466,0,0,1,3.466,3.466A3.464,3.464,0,0,1,6054.877-108.592Z" transform="translate(-18.948 -21.267)" fill="#201d1a"/><path d="M6060.583-110.314a3.465,3.465,0,0,1-3.467,3.458,3.464,3.464,0,0,1-3.466-3.458,3.466,3.466,0,0,1,3.466-3.466A3.467,3.467,0,0,1,6060.583-110.314Z" transform="translate(-21.189 -23.004)" fill="#fafbfa"/><path d="M6117.7-115.014l-19.439-8.6s-1.7.148-2.791,5.986c0,0-2.685,15.5,9.666,17S6118.232-111.474,6117.7-115.014Zm-8.135,6.653a3.219,3.219,0,0,1-3.219-3.219,3.219,3.219,0,0,1,3.219-3.219,3.219,3.219,0,0,1,3.219,3.219A3.219,3.219,0,0,1,6109.563-108.362Z" transform="translate(-28.532 -21.267)" fill="#201d1a"/><path d="M6115.169-109.691a3.219,3.219,0,0,1-3.22,3.219,3.218,3.218,0,0,1-3.219-3.219,3.218,3.218,0,0,1,3.219-3.219A3.219,3.219,0,0,1,6115.169-109.691Z" transform="translate(-30.919 -23.157)" fill="#fafbfa"/><path d="M6097.288-74.714a19.172,19.172,0,0,0-4.586-10c-7.245-8.019-17.545-5.945-17.545-5.945-15.9,1.079-18.262,15.075-18.336,22.873a5.085,5.085,0,0,0,5.088,5.154h31.048a4.8,4.8,0,0,0,4.808-4.693A44.017,44.017,0,0,0,6097.288-74.714Zm-4.709,7.9a2.629,2.629,0,0,1-2.61,2.132h-25a2.855,2.855,0,0,1-2.824-2.24,6.333,6.333,0,0,1,1.976-5.541,4.619,4.619,0,0,1-2.231-4.183,9.626,9.626,0,0,1,2.733-7.023c4.874-5.129,12.523-5.385,18.5-3.656,4.38,1.26,7.863,3.582,8.687,5.821,2.2,5.961-1.186,9.361-1.186,9.361C6092.578-70.053,6092.817-68.168,6092.578-66.809Z" transform="translate(-21.748 -27.045)" fill="#201d1a"/><path d="M6097.773-66.04a2.629,2.629,0,0,1-2.61,2.132h-7.78a12.522,12.522,0,0,0-1.152-11c3.3-1.449,2.083-11.642,2.083-11.642,4.38,1.26,7.862,3.582,8.687,5.821,2.2,5.961-1.186,9.361-1.186,9.361C6097.773-69.284,6098.013-67.4,6097.773-66.04Z" transform="translate(-26.944 -27.814)" fill="#b8d4e0"/><path d="M6082.119-75.114a12.521,12.521,0,0,1,1.152,11h-17.224a2.855,2.855,0,0,1-2.824-2.24A6.333,6.333,0,0,1,6065.2-71.9a4.619,4.619,0,0,1-2.231-4.183A9.626,9.626,0,0,1,6065.7-83.1c4.874-5.129,12.523-5.385,18.5-3.656C6084.2-86.756,6085.421-76.563,6082.119-75.114Z" transform="translate(-22.832 -27.607)" fill="#fafbfa"/><g transform="translate(5994.201 -178.213)" opacity="0.29"><path d="M6007.181-70.833l93.257-93.265s11.643,6.066,16.723,12.1l-97.8,97.957S6010.037-63.743,6007.181-70.833Z" transform="translate(-6007.181 164.098)" fill="#ffe692"/><path d="M6031.421-42.906l97.031-96.761s4.189,6,5.641,8.877L6040.556-37.1S6033.483-40.785,6031.421-42.906Z" transform="translate(-6011.462 159.782)" fill="#ffe692"/></g><g transform="translate(5933.708 -210.511)"><path d="M5964.907-166.919s5.492-29.641-3.207-37.7c0,0-5.36-7.339-14.457-6.668a16.6,16.6,0,0,0-14.214,10.619,16.489,16.489,0,0,0-.969,7.97S5933.318-176.907,5964.907-166.919Z" transform="translate(-5913.665 211.326)" fill="#0d0d0d"/><path d="M5961.688-173.133s2.9-21.157-2.793-27.17c0,0-7.087-9.128-16.109-2.362s-2.685,15.249-2.685,15.249S5944.827-179.47,5961.688-173.133Z" transform="translate(-5914.727 210.237)" fill="#3dd0ee"/><ellipse cx="4.039" cy="6.463" rx="4.039" ry="6.463" transform="translate(32.585 10.927) rotate(-30)" fill="#fafbfa"/><path d="M5957.446-152.037s-27.228-12.94-37.25-6.608c0,0-8.472,3.289-10.167,12.252a16.6,16.6,0,0,0,6.6,16.469,16.488,16.488,0,0,0,7.453,2.99S5939.66-124.086,5957.446-152.037Z" transform="translate(-5909.747 202.328)" fill="#0d0d0d"/><path d="M5950.392-148.657s-19.7-8.25-26.973-4.3c0,0-10.646,4.5-6.431,14.957s14.044,6.522,14.044,6.522S5939.927-134,5950.392-148.657Z" transform="translate(-5910.851 201.204)" fill="#3dd0ee"/><ellipse cx="6.463" cy="4.039" rx="6.463" ry="4.039" transform="translate(8.443 51.895) rotate(-15.077)" fill="#fafbfa"/></g></g></svg>