<svg xmlns="http://www.w3.org/2000/svg" xmlns:xlink="http://www.w3.org/1999/xlink" width="262.202" height="207.579" viewBox="0 0 262.202 207.579">
  <defs>
    <linearGradient id="linear-gradient" x1="0.845" y1="0.013" x2="0.299" y2="1.299" gradientUnits="objectBoundingBox">
      <stop offset="0.065" stop-color="#ffcd82"/>
      <stop offset="1" stop-color="#430020"/>
    </linearGradient>
    <linearGradient id="linear-gradient-2" x1="53.814" y1="-579.628" x2="-189.696" y2="2070.087" xlink:href="#linear-gradient"/>
    <linearGradient id="linear-gradient-3" x1="270.489" y1="-2765.184" x2="-958.469" y2="9823.991" xlink:href="#linear-gradient"/>
    <linearGradient id="linear-gradient-4" x1="55.914" y1="-595.339" x2="-198.604" y2="2141.385" xlink:href="#linear-gradient"/>
    <linearGradient id="linear-gradient-5" x1="66.104" y1="-704.683" x2="-236.75" y2="2550.705" xlink:href="#linear-gradient"/>
    <linearGradient id="linear-gradient-6" x1="13.128" y1="-24.036" x2="-4.943" y2="11.164" xlink:href="#linear-gradient"/>
  </defs>
  <g id="Group_1409" data-name="Group 1409" transform="translate(-71.412 -300.164)">
    <g id="Group_1407" data-name="Group 1407" transform="translate(71.412 300.164)">
      <path id="Path_6850" data-name="Path 6850" d="M71.412,631.336s140.991-20.286,262.2,3.043C333.614,634.379,93.219,643,71.412,631.336Z" transform="translate(-71.412 -437.913)" fill="#6c4100" opacity="0.4" style="mix-blend-mode: multiply;isolation: isolate"/>
      <path id="Path_6851" data-name="Path 6851" d="M140.774,566.4c-30.683-5.448-61.705-2.271-65,7.978l-.676-16.82c.253-10.144,41.08-14.076,65.645-8.589l-.24,2.547-3.439-.313-.726,12.013,4.434.721Z" transform="translate(-72.984 -405.214)" fill="#60231d"/>
      <path id="Path_6852" data-name="Path 6852" d="M360.614,555.235c23.476,18.516,75.714-44.711,82.475-31.609l3.043,17.836c-13.523-.338-62.719,47.166-83.344,26.541Z" transform="translate(-194.749 -394.696)" fill="#5b261a"/>
      <g id="Group_1390" data-name="Group 1390" transform="translate(78.435 14.814)">
        <path id="Path_6853" data-name="Path 6853" d="M237.705,361.259a1,1,0,0,1,1.176-.773.977.977,0,0,1,.656.493l.446-.325c-2.878-2.94-2-5.454-.2-6.947l-16.144-25.238a4.244,4.244,0,0,1-.561.358c-2.019,1.036-3.989-.241-5.633-2.193l-.4.3a1.347,1.347,0,0,1,.059.747,1.318,1.318,0,0,1-1.551,1.034,1.29,1.29,0,0,1-.532-.252l-.5.376a1.563,1.563,0,0,1,.2,1.118,1.658,1.658,0,0,1-1.99,1.241,1.742,1.742,0,0,1-.868-.458l-.419.3a1.331,1.331,0,0,1,.446,1.239,1.53,1.53,0,0,1-1.887,1.025,1.819,1.819,0,0,1-.969-.542l-.42.3c.132.2.261.416.375.637a5.714,5.714,0,0,1-.825,6.856l18.413,23.4a4.292,4.292,0,0,1,.527-.33c2.065-1.061,4.666-.244,6.3,1.807l.483-.351a.934.934,0,0,1,.978-1.417.913.913,0,0,1,.518.327l.432-.314a1.048,1.048,0,0,1-.184-.826,1.085,1.085,0,0,1,1.916-.432l.4-.294A.98.98,0,0,1,237.705,361.259Z" transform="translate(-208.171 -326.266)" fill="#a5723f"/>
        <path id="Path_6854" data-name="Path 6854" d="M237.975,360.618a.994.994,0,0,1,1.176-.772.983.983,0,0,1,.656.49l.445-.323c-2.876-2.939-2-5.451-.2-6.947l-16.142-25.237a4.346,4.346,0,0,1-.563.356c-2.018,1.039-3.989-.24-5.632-2.192l-.4.3a1.356,1.356,0,0,1,.06.747,1.317,1.317,0,0,1-1.55,1.033,1.283,1.283,0,0,1-.533-.252l-.5.376a1.564,1.564,0,0,1,.2,1.118,1.662,1.662,0,0,1-1.992,1.243,1.74,1.74,0,0,1-.865-.459l-.419.3a1.335,1.335,0,0,1,.444,1.239,1.529,1.529,0,0,1-1.887,1.026,1.812,1.812,0,0,1-.968-.542l-.42.3c.132.2.261.415.376.637a5.714,5.714,0,0,1-.828,6.855l18.412,23.4a4.465,4.465,0,0,1,.529-.331c2.063-1.06,4.665-.244,6.3,1.807l.483-.35a.934.934,0,0,1,.979-1.417.912.912,0,0,1,.518.326l.431-.314a1.04,1.04,0,0,1-.182-.828,1.083,1.083,0,0,1,1.29-.825,1.109,1.109,0,0,1,.626.393l.4-.293A.976.976,0,0,1,237.975,360.618Z" transform="translate(-208.286 -325.993)" fill="#ffd4a9"/>
        <path id="Path_6855" data-name="Path 6855" d="M238.591,360.566a4.764,4.764,0,0,1,.793-5.844L225.815,333.51a3.425,3.425,0,0,1-.473.3,4.321,4.321,0,0,1-5.2-1.406l-6.948,4.967c.112.173.218.35.314.536a4.8,4.8,0,0,1-.693,5.762l15.475,19.665a3.8,3.8,0,0,1,.443-.278,4.355,4.355,0,0,1,5.3,1.519l4.874-3.484A6,6,0,0,1,238.591,360.566Zm-5.174,2.825a4.021,4.021,0,0,0-4.893-1.4,3.443,3.443,0,0,0-.411.254l-14.3-18.166a4.436,4.436,0,0,0,.641-5.324c-.089-.173-.188-.336-.291-.495l6.419-4.591a4,4,0,0,0,4.808,1.3,3.349,3.349,0,0,0,.436-.277l12.536,19.6a4.4,4.4,0,0,0-.732,5.4,5.112,5.112,0,0,0,.286.484Z" transform="translate(-210.15 -328.727)" fill="#c1874d"/>
        <g id="Group_1389" data-name="Group 1389" transform="translate(12.574 9.25)">
          <path id="Path_6856" data-name="Path 6856" d="M234.156,344.975,233.4,343.9l-2.993,2.089-.315-.454,2.993-2.089-.75-1.075.357-.249,1.818,2.6Z" transform="translate(-230.095 -342.122)" fill="#c1874d"/>
          <path id="Path_6857" data-name="Path 6857" d="M232.9,350.354l-.319-.456,3.351-2.338.317.456Z" transform="translate(-231.156 -344.441)" fill="#c1874d"/>
          <path id="Path_6858" data-name="Path 6858" d="M237.248,354.134l-.011.014a1.232,1.232,0,0,1-1.022.221,1.543,1.543,0,0,1-.946-.677,1.436,1.436,0,0,1-.244-1.207,1.8,1.8,0,0,1,.771-1.071l.6-.417a1.823,1.823,0,0,1,1.274-.356,1.445,1.445,0,0,1,1.049.644,1.581,1.581,0,0,1,.327,1.116,1.214,1.214,0,0,1-.572.886l-.017.005-.3-.436a.911.911,0,0,0,.412-.594.972.972,0,0,0-.2-.727.871.871,0,0,0-.728-.392,1.521,1.521,0,0,0-.916.3l-.6.42a1.506,1.506,0,0,0-.607.758.872.872,0,0,0,.116.818.992.992,0,0,0,.612.443.926.926,0,0,0,.706-.187Z" transform="translate(-232.179 -345.751)" fill="#c1874d"/>
          <path id="Path_6859" data-name="Path 6859" d="M239.91,357.173l-.275-.392-1.511,1.055-.315-.452,3.352-2.34.315.453-1.483,1.035.245.349,2.319.163.351.5-.008.015-2.515-.177-.747,2.6h-.015l-.377-.54Z" transform="translate(-233.385 -347.633)" fill="#c1874d"/>
          <path id="Path_6860" data-name="Path 6860" d="M244.436,363.57l-1.071-1.535-1.2.834,1.236,1.772-.357.249-1.551-2.223,3.351-2.339,1.535,2.2-.358.249-1.218-1.744-1.083.755,1.071,1.535Z" transform="translate(-234.957 -349.886)" fill="#c1874d"/>
          <path id="Path_6861" data-name="Path 6861" d="M249.867,367.478l-.752-1.076-2.995,2.089-.314-.453,2.993-2.089-.751-1.077.357-.248,1.819,2.6Z" transform="translate(-236.795 -351.719)" fill="#c1874d"/>
        </g>
        <path id="Path_6862" data-name="Path 6862" d="M223.215,348.865l-.25.187L235.2,365.343l.25-.185Z" transform="translate(-214.48 -335.747)" fill="#c1874d"/>
        <path id="Path_6863" data-name="Path 6863" d="M237.065,373.84a.9.9,0,1,0-1.061.7A.9.9,0,0,0,237.065,373.84Z" transform="translate(-219.735 -345.939)" fill="#c1874d"/>
        <path id="Path_6864" data-name="Path 6864" d="M230.526,365.468a.9.9,0,1,0-1.061.7A.9.9,0,0,0,230.526,365.468Z" transform="translate(-216.947 -342.367)" fill="#c1874d"/>
        <path id="Path_6865" data-name="Path 6865" d="M225.016,359.183a.9.9,0,1,0-1.06.7A.9.9,0,0,0,225.016,359.183Z" transform="translate(-214.597 -339.687)" fill="#c1874d"/>
        <path id="Path_6866" data-name="Path 6866" d="M250.533,358.67l-12.5-19.537-5.028,24.291,4.323,5.493a4.471,4.471,0,0,1,.529-.331c2.063-1.06,4.665-.244,6.3,1.807l.483-.35a.934.934,0,0,1,.979-1.417.912.912,0,0,1,.518.326l.431-.314a1.041,1.041,0,0,1-.182-.828,1.083,1.083,0,0,1,1.29-.825,1.109,1.109,0,0,1,.626.393l.4-.293a.976.976,0,0,1-.256-.865.994.994,0,0,1,1.176-.772.983.983,0,0,1,.656.49l.445-.323C247.853,362.677,248.731,360.165,250.533,358.67Z" transform="translate(-218.763 -331.597)" fill="#ffecad" opacity="0.4" style="mix-blend-mode: overlay;isolation: isolate"/>
        <path id="Path_6867" data-name="Path 6867" d="M239.275,350.6c2.974-.5,7.328,2.6,7.793,5.677l5.165-.684L236.9,331.452Z" transform="translate(-220.424 -328.321)" fill="#9a4c00" opacity="0.3" style="mix-blend-mode: multiply;isolation: isolate"/>
      </g>
      <g id="Group_1392" data-name="Group 1392" transform="translate(99.285)">
        <path id="Path_6868" data-name="Path 6868" d="M262.011,340.617a.994.994,0,0,1,1.4-.178.982.982,0,0,1,.374.728l.543-.095c-1.3-3.9.588-5.779,2.865-6.332l-3.462-29.759a3.876,3.876,0,0,1-.662.073c-2.268.05-3.48-1.961-4.1-4.437l-.488.1a1.333,1.333,0,0,1-.272.7,1.318,1.318,0,0,1-1.847.251,1.291,1.291,0,0,1-.368-.459l-.613.119a1.563,1.563,0,0,1-.315,1.09,1.656,1.656,0,0,1-2.331.247,1.763,1.763,0,0,1-.579-.793l-.508.086a1.328,1.328,0,0,1-.144,1.309,1.529,1.529,0,0,1-2.146.1,1.823,1.823,0,0,1-.632-.91l-.51.086c.03.241.052.488.06.737a5.716,5.716,0,0,1-3.746,5.8l6.308,29.1a3.884,3.884,0,0,1,.618-.065c2.319-.052,4.3,1.82,4.875,4.383l.589-.1a.925.925,0,0,1,.186-.677.936.936,0,0,1,1.313-.169.92.92,0,0,1,.324.521l.525-.092a1.046,1.046,0,0,1,.2-.824,1.088,1.088,0,0,1,1.913.449l.491-.085A.982.982,0,0,1,262.011,340.617Z" transform="translate(-244.525 -300.358)" fill="#a5723f"/>
        <path id="Path_6869" data-name="Path 6869" d="M262.536,340.162a1,1,0,0,1,1.4-.179.984.984,0,0,1,.373.729l.541-.1c-1.3-3.9.591-5.778,2.867-6.331l-3.461-29.759a4.149,4.149,0,0,1-.661.073c-2.269.052-3.481-1.961-4.1-4.435l-.488.1a1.344,1.344,0,0,1-.275.7,1.315,1.315,0,0,1-1.844.251,1.282,1.282,0,0,1-.369-.459l-.614.12a1.562,1.562,0,0,1-.314,1.091,1.659,1.659,0,0,1-2.333.244,1.737,1.737,0,0,1-.578-.79l-.508.085a1.332,1.332,0,0,1-.145,1.308,1.526,1.526,0,0,1-2.144.1,1.808,1.808,0,0,1-.631-.911l-.512.086a7.063,7.063,0,0,1,.06.737,5.715,5.715,0,0,1-3.744,5.8l6.307,29.1a4.171,4.171,0,0,1,.619-.064c2.318-.051,4.3,1.823,4.874,4.383l.587-.1a.935.935,0,0,1,1.5-.846.924.924,0,0,1,.323.521l.525-.093a1.045,1.045,0,0,1,.2-.824,1.084,1.084,0,0,1,1.522-.177,1.1,1.1,0,0,1,.39.628l.49-.088A.974.974,0,0,1,262.536,340.162Z" transform="translate(-244.749 -300.164)" fill="#ffd4a9"/>
        <path id="Path_6870" data-name="Path 6870" d="M263.977,339.749a4.767,4.767,0,0,1,3.272-4.908l-2.909-25.009a3.573,3.573,0,0,1-.556.061,4.322,4.322,0,0,1-4.064-3.543l-8.421,1.422c.024.2.044.411.049.621a4.8,4.8,0,0,1-3.146,4.877l5.3,24.455a3.491,3.491,0,0,1,.521-.054,4.354,4.354,0,0,1,4.1,3.684l5.908-1A5.383,5.383,0,0,1,263.977,339.749Zm-5.889.275a4.023,4.023,0,0,0-3.785-3.4,3.149,3.149,0,0,0-.482.051l-4.9-22.6a4.437,4.437,0,0,0,2.905-4.506,5.346,5.346,0,0,0-.045-.571l7.782-1.316a4,4,0,0,0,3.753,3.274,3.488,3.488,0,0,0,.516-.059l2.686,23.11a4.4,4.4,0,0,0-3.022,4.533,5.144,5.144,0,0,0,.046.56Z" transform="translate(-246.093 -302.802)" fill="#c1874d"/>
        <g id="Group_1391" data-name="Group 1391" transform="translate(12.016 10.828)">
          <path id="Path_6871" data-name="Path 6871" d="M269.373,322.249l-.2-1.3-3.605.567-.086-.547,3.606-.567-.205-1.3.431-.068.493,3.138Z" transform="translate(-265.477 -319.044)" fill="#c1874d"/>
          <path id="Path_6872" data-name="Path 6872" d="M266.24,326.781l-.087-.55,4.034-.635.088.549Z" transform="translate(-265.765 -321.838)" fill="#c1874d"/>
          <path id="Path_6873" data-name="Path 6873" d="M268.431,331.675l-.016.009a1.229,1.229,0,0,1-1.016-.248,1.542,1.542,0,0,1-.554-1.024,1.434,1.434,0,0,1,.309-1.192,1.8,1.8,0,0,1,1.163-.625l.718-.114a1.824,1.824,0,0,1,1.3.238,1.446,1.446,0,0,1,.662,1.04,1.583,1.583,0,0,1-.194,1.147,1.22,1.22,0,0,1-.9.545l-.019,0-.08-.525a.906.906,0,0,0,.629-.354.958.958,0,0,0,.137-.742.863.863,0,0,0-.482-.672,1.536,1.536,0,0,0-.958-.129l-.722.115a1.517,1.517,0,0,0-.876.416.866.866,0,0,0-.254.786.971.971,0,0,0,.357.666.917.917,0,0,0,.715.143Z" transform="translate(-266.051 -323.057)" fill="#c1874d"/>
          <path id="Path_6874" data-name="Path 6874" d="M269.554,335.982l-.075-.473-1.82.287-.088-.545,4.038-.635.088.545-1.788.28.067.422,2.011,1.163.1.605-.013.011-2.183-1.263-1.806,2.007-.014-.006-.1-.651Z" transform="translate(-266.37 -325.685)" fill="#c1874d"/>
          <path id="Path_6875" data-name="Path 6875" d="M270.823,343.715l-.293-1.849-1.44.227.335,2.134-.429.065-.423-2.677,4.038-.634.418,2.647-.43.066-.331-2.1-1.306.206.293,1.847Z" transform="translate(-266.797 -328.399)" fill="#c1874d"/>
          <path id="Path_6876" data-name="Path 6876" d="M273.644,349.361l-.2-1.3-3.607.568-.085-.545,3.606-.568-.2-1.294.43-.068.495,3.136Z" transform="translate(-267.298 -330.607)" fill="#c1874d"/>
        </g>
        <path id="Path_6877" data-name="Path 6877" d="M258.883,320.191l-.306.059,3.866,20,.308-.058Z" transform="translate(-250.518 -308.705)" fill="#c1874d"/>
        <path id="Path_6878" data-name="Path 6878" d="M260.1,348.855a.9.9,0,1,0-1.259.163A.9.9,0,0,0,260.1,348.855Z" transform="translate(-250.482 -320.313)" fill="#c1874d"/>
        <path id="Path_6879" data-name="Path 6879" d="M257.889,338.464a.9.9,0,1,0-1.258.162A.9.9,0,0,0,257.889,338.464Z" transform="translate(-249.538 -315.881)" fill="#c1874d"/>
        <path id="Path_6880" data-name="Path 6880" d="M255.687,330.4a.9.9,0,1,0-1.258.16A.9.9,0,0,0,255.687,330.4Z" transform="translate(-248.6 -312.443)" fill="#c1874d"/>
        <path id="Path_6881" data-name="Path 6881" d="M271.3,342.527l-2.68-23.038-15.158,19.635,1.481,6.832a4.176,4.176,0,0,1,.619-.064c2.318-.051,4.3,1.823,4.874,4.383l.587-.1a.935.935,0,0,1,1.5-.846.923.923,0,0,1,.323.521l.525-.093a1.045,1.045,0,0,1,.2-.824,1.084,1.084,0,0,1,1.522-.177,1.1,1.1,0,0,1,.39.628l.49-.088a.974.974,0,0,1,.15-.89,1,1,0,0,1,1.4-.18.984.984,0,0,1,.373.729l.541-.1C267.137,344.955,269.027,343.08,271.3,342.527Z" transform="translate(-248.337 -308.406)" fill="#ffecad" opacity="0.4" style="mix-blend-mode: overlay;isolation: isolate"/>
      </g>
      <path id="Path_6882" data-name="Path 6882" d="M286.419,357.791c-1.485-6.426-3.218-2.641-6.87-2.12s-7.015-2.8-6.356,4.014c.247,2.557,3.62,4.187,7.274,3.664S287,360.29,286.419,357.791Z" transform="translate(-157.431 -323.162)" fill="#efbb75"/>
      <path id="Path_6883" data-name="Path 6883" d="M411.286,390.589c2.877-2.761-.237-3.713-1.99-6.441s-3.547-5.042-5.711-3.649-2.5,4.73-.744,7.459S408.358,393.4,411.286,390.589Z" transform="translate(-212.278 -334.247)" fill="#ffcd85"/>
      <path id="Path_6884" data-name="Path 6884" d="M225.8,420.771c-5.633-21.842,2.975-46.885,18.868-53.821s34.888,11.605,45.548,28.013c11.512,17.716-9.259,44.145-25.151,51.08S231.43,442.61,225.8,420.771Z" transform="translate(-136.516 -328.009)" fill="#efbb75"/>
      <path id="Path_6885" data-name="Path 6885" d="M224.382,406.385c-3.087-10.033,10.38-34.858,18.694-2.029C247.682,430.663,225.283,415.83,224.382,406.385Z" transform="translate(-136.457 -337.592)" fill="#ffd0c0"/>
      <path id="Path_6886" data-name="Path 6886" d="M207.5,413.247c-2.029-8.491,2-28.156,10.175-1.718C221.086,433.8,208.315,421.243,207.5,413.247Z" transform="translate(-129.229 -341.981)" fill="#f74d4d"/>
      <path id="Path_6887" data-name="Path 6887" d="M344.821,383.63c0-26.3-20.124-49.338-43.739-49.338s-42.6,29.042-51.188,51.836c-9.273,24.612,27.573,43.4,51.188,43.4S344.821,409.929,344.821,383.63Z" transform="translate(-146.905 -314.719)" fill="#ffcd85"/>
      <path id="Path_6888" data-name="Path 6888" d="M343.884,382.072c-2.03-23.421-71.352-56.99-93.989,12.022-9.273,24.612,27.573,43.4,51.188,43.4S343.572,402.212,343.884,382.072Z" transform="translate(-146.905 -322.685)" fill="#f4b867"/>
      <path id="Path_6889" data-name="Path 6889" d="M372.132,357.9a5.577,5.577,0,0,1-7.439,1.15c-.174.511.128,1.1,1.4,1.908a5.587,5.587,0,0,0,7.546-1.089c.914-1.4.364-3.155-1.2-4.289A2.675,2.675,0,0,1,372.132,357.9Z" transform="translate(-196.47 -323.797)" fill="#ffcd85"/>
      <path id="Path_6890" data-name="Path 6890" d="M256.857,399.733c-2.653-12.412,11.242-38.408,21.315,0C278.172,399.733,257.875,409.179,256.857,399.733Z" transform="translate(-150.359 -334.023)" fill="#f74d4d"/>
      <path id="Path_6891" data-name="Path 6891" d="M330.813,399.5s15.047-39.046,19.986,1.483Z" transform="translate(-182.04 -335.311)" fill="#cc3b3b"/>
      <path id="Path_6892" data-name="Path 6892" d="M406.56,408.829c.177-5.329,10.774-23.946,8.784,2.341C415.344,411.17,406.444,412.377,406.56,408.829Z" transform="translate(-214.344 -341.655)" fill="#cc3b3b"/>
      <path id="Path_6893" data-name="Path 6893" d="M365.51,399.183c.233-13.116,18.424-38.761,23.732,1.99C389.242,401.174,364.733,408.451,365.51,399.183Z" transform="translate(-196.83 -333.824)" fill="#cc3b3b"/>
      <path id="Path_6894" data-name="Path 6894" d="M331.321,416.826c-35.948-7.273-76.507-5.583-125.53,1.561l22.483,122.564h86.185Z" transform="translate(-128.721 -347.915)" fill="#f74d4d"/>
      <path id="Path_6895" data-name="Path 6895" d="M254.189,542.082,241.308,415.146l-18.5,1.639,16.081,125.609Z" transform="translate(-135.978 -349.201)" fill="#ffd0c0"/>
      <path id="Path_6896" data-name="Path 6896" d="M367.01,540.34l17.8-126.466-23.731-2.812-9.367,129.59Z" transform="translate(-190.952 -347.459)" fill="#ffd0c0"/>
      <path id="Path_6897" data-name="Path 6897" d="M311.723,540.514,315.705,411.7l-23.889-.233,4.606,129.356Z" transform="translate(-165.409 -347.634)" fill="#ffd0c0"/>
      <rect id="Rectangle_805" data-name="Rectangle 805" width="87.356" height="5.619" transform="translate(98.772 187.962)" fill="#f74d4d"/>
      <path id="Path_6898" data-name="Path 6898" d="M291.8,396.875c.236-13.115,18.311-39.034,23.654,1.717C315.457,398.591,291.021,406.143,291.8,396.875Z" transform="translate(-165.395 -332.764)" fill="#ffd0c0"/>
      <path id="Path_6899" data-name="Path 6899" d="M254.547,400.688c-2.654-12.412,11.242-38.408,21.313,0C275.861,400.688,255.563,410.133,254.547,400.688Z" transform="translate(-149.374 -334.43)" fill="#f74d4d"/>
      <path id="Path_6900" data-name="Path 6900" d="M222.544,407.681c-3.087-10.033,10.38-34.858,18.7-2.03C245.844,431.959,223.445,417.126,222.544,407.681Z" transform="translate(-135.673 -338.144)" fill="#ffd0c0"/>
      <path id="Path_6901" data-name="Path 6901" d="M205.662,414.881c-2.027-8.491,2-28.158,10.175-1.717C219.249,435.432,206.477,422.877,205.662,414.881Z" transform="translate(-128.445 -342.677)" fill="#f74d4d"/>
      <path id="Path_6902" data-name="Path 6902" d="M277,397.766c-5.59-37.957-21.691-13.858-22.159-.859h-.012l.007.141c0,.044-.006.089-.007.132a4.49,4.49,0,0,0,.029.975l-.262.018c-9.862-36.048-23.137-12.035-21.126.475-7.505-26.89-18.669-10.142-18.628.644-8.024-20.185-11.117-2.026-9.2,5.982a11.653,11.653,0,0,0,.678,2.771l21.657,118.061,45.435.624Z" transform="translate(-128.423 -333.07)" fill="#542700" opacity="0.4" style="mix-blend-mode: multiply;isolation: isolate"/>
      <path id="Path_6903" data-name="Path 6903" d="M234.063,525.943s39.971,62.141,40.6,63.077-38.722.468-38.722.468l-12.179-59.173Z" transform="translate(-136.384 -396.453)" fill="#ad2c00" opacity="0.2" style="mix-blend-mode: multiply;isolation: isolate"/>
      <rect id="Rectangle_806" data-name="Rectangle 806" width="87.356" height="1.874" transform="translate(98.768 191.933) rotate(-0.294)" fill="#f74d4d"/>
      <path id="Path_6904" data-name="Path 6904" d="M379.292,343.608c.424-2.539-1.825-5.029-5.023-5.564s-6.136,1.091-6.559,3.629,1.824,5.03,5.024,5.565S378.867,346.149,379.292,343.608Z" transform="translate(-197.753 -316.276)" fill="#ffcd85"/>
      <path id="Path_6905" data-name="Path 6905" d="M367.041,338.709c.424-2.54-1.826-5.03-5.023-5.564s-6.136,1.09-6.561,3.628,1.826,5.03,5.025,5.564S366.616,341.248,367.041,338.709Z" transform="translate(-192.528 -314.186)" fill="#ffcd85"/>
      <path id="Path_6906" data-name="Path 6906" d="M349.869,327.392c.423-2.54-1.189-2.854-4.389-3.387s-5.95-3.756-7.651.157c-1.559,3.591,2.281,6.325,5.479,6.859S349.444,329.931,349.869,327.392Z" transform="translate(-184.879 -309.583)" fill="#ffcd85"/>
      <path id="Path_6907" data-name="Path 6907" d="M339.321,372.142c-3.162-.528-6.94-3.208-5.522-6.738-.89-.012-1.667.455-2.3,1.908-1.561,3.591,2.279,6.326,5.478,6.86,2.663.446,5.139-.608,6.141-2.439A6.854,6.854,0,0,1,339.321,372.142Z" transform="translate(-182.181 -327.987)" fill="#ffcd85"/>
      <path id="Path_6908" data-name="Path 6908" d="M349.307,326.843c.161-.973-.721-1.139-2.47-1.432s-3.7-2.861-4.718-.361c-.582,1.43,1.98,2.731,3.73,3.024S349.146,327.816,349.307,326.843Z" transform="translate(-186.826 -310.315)" fill="#f4b867"/>
      <path id="Path_6909" data-name="Path 6909" d="M356.935,324.158c.66-.918.087-1.353-1.066-2.186s-1.61-2.634-3.038-1.426c-1.312,1.108-.334,2.931.818,3.762A2.356,2.356,0,0,0,356.935,324.158Z" transform="translate(-191.163 -308.684)" fill="#ffcd85"/>
      <path id="Path_6910" data-name="Path 6910" d="M417.1,374.511c.021-.9-.551-.926-1.682-.954s-2.241-1-2.636.431c-.362,1.316,1.1,2.074,2.231,2.1A1.876,1.876,0,0,0,417.1,374.511Z" transform="translate(-216.975 -331.315)" fill="#ffcd85"/>
      <path id="Path_6911" data-name="Path 6911" d="M302.136,340.291c.661-.918.088-1.354-1.066-2.186s-1.61-2.634-3.038-1.426c-1.312,1.108-.334,2.931.819,3.762A2.357,2.357,0,0,0,302.136,340.291Z" transform="translate(-167.792 -315.564)" fill="#ffcd85"/>
      <path id="Path_6912" data-name="Path 6912" d="M265.112,360.435c.661-.916.087-1.354-1.066-2.185s-1.608-2.634-3.038-1.426c-1.312,1.107-.333,2.93.819,3.762A2.355,2.355,0,0,0,265.112,360.435Z" transform="translate(-152.003 -324.155)" fill="#efbb75"/>
      <path id="Path_6913" data-name="Path 6913" d="M323.237,332.138c-2.066-6.262-3.445-2.336-7.034-1.482s-7.24-2.143-5.962,4.577c.479,2.525,3.988,3.84,7.577,2.983S324.041,334.575,323.237,332.138Z" transform="translate(-173.155 -312.315)" fill="#ffcd85"/>
      <path id="Path_6914" data-name="Path 6914" d="M266.067,360.995c-2.066-6.262-3.445-2.334-7.034-1.481s-7.24-2.143-5.963,4.577c.479,2.525,3.988,3.84,7.578,2.985S266.871,363.432,266.067,360.995Z" transform="translate(-148.774 -324.622)" fill="#efbb75"/>
      <path id="Path_6915" data-name="Path 6915" d="M246.637,370.952c-3.517-3.027-2.924-.158-4.779,1.657s-5.143,1.335-1.937,4.923c1.2,1.349,3.8.87,5.651-.949S248.005,372.129,246.637,370.952Z" transform="translate(-142.703 -329.789)" fill="#efbb75"/>
      <path id="Path_6916" data-name="Path 6916" d="M396,355.811c3.221-3.572.234-3.028-1.6-4.994s-1.26-5.363-5.057-2.128c-1.425,1.217-.991,3.915.849,5.882S394.75,357.2,396,355.811Z" transform="translate(-206.64 -320.288)" fill="#ffcd85"/>
      <path id="Path_6917" data-name="Path 6917" d="M409.918,367.293c.424-2.54-1.824-5.03-5.023-5.564s-6.137,1.091-6.559,3.629,1.824,5.029,5.023,5.564S409.493,369.833,409.918,367.293Z" transform="translate(-210.815 -326.377)" fill="#ffcd85"/>
      <path id="Path_6918" data-name="Path 6918" d="M374.844,354.524c-.242-.5-.5-.983-.758-1.471a7.708,7.708,0,0,0,.764.175,6.854,6.854,0,0,0,3.763-.4,2.926,2.926,0,0,0,1.735.623,1.876,1.876,0,0,0,2.086-1.577c.02-.852-.5-.921-1.518-.949a3.754,3.754,0,0,0,.493-1.33c.424-2.54-1.824-5.03-5.023-5.564-2.773-.463-5.346.7-6.258,2.667q-.737-1.01-1.519-1.976a2.86,2.86,0,0,0,3.06-.521c3.221-3.572.234-3.028-1.6-4.994s-1.26-5.363-5.057-2.128a2.938,2.938,0,0,0-.735,2.936c-.59-.562-1.19-1.111-1.8-1.64a3.992,3.992,0,0,0,1.375-2.365c.424-2.539-1.825-5.029-5.023-5.564a7.1,7.1,0,0,0-2.554.033,6.382,6.382,0,0,0-4.472-2.843,6.06,6.06,0,0,0-5.785,1.892c-.249-.066-.5-.142-.747-.2a4.165,4.165,0,0,0,2.032-2.838,2.7,2.7,0,0,0-.157-1.7,1.735,1.735,0,0,0,.94-.638c.66-.918.087-1.353-1.066-2.186s-1.61-2.634-3.038-1.426a1.965,1.965,0,0,0-.164,2.716c-.288-.052-.582-.1-.9-.157-3.2-.535-5.95-3.756-7.651.157a4.121,4.121,0,0,0,1.411,5c-.062,0-.122-.006-.185-.006-.923,0-1.835.057-2.743.144-13.082,9.81,33.289,19.646,45.439,29.964C377.815,356.267,376.422,354.473,374.844,354.524Z" transform="translate(-182.306 -308.684)" fill="#fff2c6" opacity="0.4" style="mix-blend-mode: overlay;isolation: isolate"/>
      <path id="Path_6919" data-name="Path 6919" d="M301.928,342.155c-1.36-2.188-4.691-2.571-7.447-.86s-3.886,4.871-2.528,7.058,4.691,2.571,7.447.859S303.286,344.342,301.928,342.155Z" transform="translate(-165.222 -317.25)" fill="#ffcd85"/>
      <path id="Path_6920" data-name="Path 6920" d="M281.963,360.62c-1.2-1.255-3.187-2.016-5.53.228s-2.229,5.544-1.028,6.8,3.039-.013,5.38-2.258S283.163,361.873,281.963,360.62Z" transform="translate(-158.053 -325.433)" fill="#ffcd85"/>
      <path id="Path_6921" data-name="Path 6921" d="M312.273,354.95c-1.359-2.189-4.693-2.572-7.447-.861s-3.886,4.872-2.527,7.058,4.691,2.572,7.446.859S313.631,357.136,312.273,354.95Z" transform="translate(-169.634 -322.706)" fill="#ffcd85"/>
      <path id="Path_6922" data-name="Path 6922" d="M309.385,357.05c-.768-1.237-2.128-.078-3.685.888s-2.725,1.375-1.956,2.61,2.653,1.456,4.211.488S310.152,358.286,309.385,357.05Z" transform="translate(-170.392 -324.196)" fill="#f4b867"/>
      <path id="Path_6923" data-name="Path 6923" d="M320.526,335.733c-.225-.783-1.749-1.028-3.4-.551s-2.812,1.5-2.584,2.277,1.75,1.029,3.4.551S320.753,336.515,320.526,335.733Z" transform="translate(-175.087 -314.995)" fill="#f4b867"/>
      <path id="Path_6924" data-name="Path 6924" d="M320.393,333.626c-.165-.572-1.059-.818-1.994-.548s-1.563.954-1.4,1.527,1.059.818,2,.548S320.558,334.2,320.393,333.626Z" transform="translate(-176.138 -314.154)" fill="#f4b867"/>
      <path id="Path_6925" data-name="Path 6925" d="M312.036,354.388c-.165-.573-1.058-.818-1.994-.548s-1.563.954-1.4,1.526,1.058.818,2,.548S312.2,354.961,312.036,354.388Z" transform="translate(-172.575 -323.009)" fill="#f4b867"/>
      <path id="Path_6926" data-name="Path 6926" d="M333.469,399.7s15.046-39.046,19.984,1.483Z" transform="translate(-183.173 -335.398)" fill="#f74d4d"/>
      <path id="Path_6927" data-name="Path 6927" d="M409.216,409.236c.176-5.327,10.773-23.946,8.782,2.343C418,411.579,409.1,412.785,409.216,409.236Z" transform="translate(-215.477 -341.829)" fill="#f74d4d"/>
      <path id="Path_6928" data-name="Path 6928" d="M367.756,400c.235-13.115,18.424-38.759,23.732,1.991C391.487,401.99,366.978,409.267,367.756,400Z" transform="translate(-197.787 -334.172)" fill="#ffd0c0"/>
      <path id="Path_6929" data-name="Path 6929" d="M382.147,487.572c1.746-18.171-3.936-33.586-12.69-34.425s-17.268,13.207-19.015,31.378,3.936,33.584,12.691,34.426S380.4,505.744,382.147,487.572Z" transform="translate(-190.277 -365.392)" fill="#ffd0c0"/>
      <path id="Path_6930" data-name="Path 6930" d="M381.616,490.761c1.5-15.649-3.39-28.925-10.93-29.648s-14.87,11.374-16.372,27.025,3.388,28.922,10.928,29.648S380.113,506.41,381.616,490.761Z" transform="translate(-191.946 -368.791)" fill="#f74d4d"/>
      <path id="Path_6931" data-name="Path 6931" d="M382.4,493.48c1.368-14.23-3.083-26.3-9.939-26.961s-13.523,10.344-14.891,24.576,3.082,26.3,9.939,26.959S381.028,507.71,382.4,493.48Z" transform="translate(-193.344 -371.098)" fill="#ffd0c0"/>
      <g id="Group_1393" data-name="Group 1393" transform="translate(166.645 96.688)">
        <path id="Path_6932" data-name="Path 6932" d="M363.332,468.871c-1.088,4.843-.9,10.149-.826,15.285.009.627,1.144,1.719,1.144,1.7-.08-5.162-.278-10.5.809-15.366.108-.487-1.084-1.805-1.126-1.623Z" transform="translate(-362.175 -468.794)" fill="#ffd0c0"/>
        <path id="Path_6933" data-name="Path 6933" d="M363.168,472.129a1.883,1.883,0,0,1,2.058-1.691c1.185-.032,1.638.6,1.331,2.119a8,8,0,0,1-3.855,4.872c-.027.013.856,1.89,1.206,1.694,1.954-1.095,4.948-4.249,3.646-7.415a5.621,5.621,0,0,0-2.218-2.627,2.176,2.176,0,0,0-3.358,1.394c-.089.607,1.212,1.5,1.189,1.653Z" transform="translate(-361.974 -468.749)" fill="#ffd0c0"/>
        <path id="Path_6934" data-name="Path 6934" d="M369.955,485.305a3.864,3.864,0,0,0,.552,4.361c1.338,1.172,3.01,1.4,3.859-.648a3.732,3.732,0,0,0-1.791-4.624,2.212,2.212,0,0,0-2.231-.3c-.746.451-.6,1.521-.2,2.267a1.982,1.982,0,0,0,.97.7c.029.013.78.28.653.046a1.829,1.829,0,0,1-.188-1.676,1.006,1.006,0,0,1,.432-.444,1.076,1.076,0,0,1,.255-.1c.381-.116.487.254-.092-.218.872.711.9,2.388.521,3.455a2.722,2.722,0,0,1-1.033,1.309,1.423,1.423,0,0,1-.279.139c-.494.219-.358-.364.407.444a2.169,2.169,0,0,1-.369-.685,3.786,3.786,0,0,1,.176-3.142c.059-.089-1.39-1.284-1.646-.883Z" transform="translate(-365.191 -475.207)" fill="#ffd0c0"/>
        <path id="Path_6935" data-name="Path 6935" d="M378.895,482.2c.056,3.115.645,6.241.633,9.4,0,1.246,1.73,2.012,1.731.669.005-3.358-.59-6.655-.657-9.958-.023-1.219-1.732-1.521-1.707-.114Z" transform="translate(-369.19 -474.088)" fill="#ffd0c0"/>
        <path id="Path_6936" data-name="Path 6936" d="M380.015,484.177a1.494,1.494,0,0,1,.247-.651c.115-.1.2-.07.306-.006a2.934,2.934,0,0,1,1.009,1.439,2.523,2.523,0,0,1,.149,1.707c-.3.9-1.4.944-2.054.934-.9-.015-.29,2.227.532,2.242A2.68,2.68,0,0,0,383.081,488a6.054,6.054,0,0,0-.421-3.919,5.183,5.183,0,0,0-2.033-2.643c-.919-.455-1.657.123-1.916,1.317a1.8,1.8,0,0,0,.383,1.562c.263.286.8.413.921-.145Z" transform="translate(-369.094 -474.096)" fill="#ffd0c0"/>
        <path id="Path_6937" data-name="Path 6937" d="M376.115,506.681c1.177.321,1.6-.287,1.391-1.869a3.849,3.849,0,0,0-2.522-3.171c-2.86-.824-3.3,4.045-3.13,6.839.165,2.647.965,5.776,2.9,7.047,2.385,1.566,3.976-.554,5.046-3.173.138-.339-1.549-1.265-1.789-.676a10.737,10.737,0,0,1-1.422,2.613,3.325,3.325,0,0,1-.621.573c-.49.369-.38.256-.6.012a9.365,9.365,0,0,1-1.588-4.248,15.286,15.286,0,0,1,.021-5.459,16.2,16.2,0,0,1,1.1-2.739,3.923,3.923,0,0,1,.762,1.524,8.712,8.712,0,0,1,.1,1.851c-1.229-.333-.355.686.342.875Z" transform="translate(-366.174 -482.737)" fill="#ffd0c0"/>
        <path id="Path_6938" data-name="Path 6938" d="M384.987,512.188c-.707,2.3.53,4.866,2.419,5.026a2.759,2.759,0,0,0,2.673-3.486,3.178,3.178,0,0,0-2.6-2.608,2.048,2.048,0,0,0-1.9.6,3.858,3.858,0,0,0-.57,2.434c0,.638,1.847.7,1.838.047a4.647,4.647,0,0,1,.24-1.776,1.236,1.236,0,0,1,.238-.385c.207-.208,0-.031-.24-.06-.124-.013.029.018.072.048a2.037,2.037,0,0,1,.415.362,3.289,3.289,0,0,1,.592,1.072,2.716,2.716,0,0,1-.578,2.65,1.231,1.231,0,0,1-.3.223c.427-.231.449.125.127-.253a3.482,3.482,0,0,1-.537-1,4.258,4.258,0,0,1-.12-2.612c.194-.637-1.6-.861-1.776-.282Z" transform="translate(-371.703 -486.809)" fill="#ffd0c0"/>
        <path id="Path_6939" data-name="Path 6939" d="M394.469,511.409a4.323,4.323,0,0,1,.787,1.826l.666-.876c.05.084.042.068-.029-.04a.525.525,0,0,1,.079.163.482.482,0,0,1-.05-.252,2.392,2.392,0,0,1,.1-.929c.122-.383.472-.814.68-.537.192.259.665.816.888.329a1.882,1.882,0,0,0-.329-1.547c-.42-.562-.94-1.164-1.563-1.079-.443.061-.756.559-.915,1.059a5.021,5.021,0,0,0,.911,4.5c.636.754.885-.129.668-.879a8.088,8.088,0,0,0-1.656-3.4c-.247-.254-.69-.491-.769.081a2.165,2.165,0,0,0,.535,1.576Z" transform="translate(-375.599 -485.684)" fill="#ffd0c0"/>
        <path id="Path_6940" data-name="Path 6940" d="M401.7,508.47a22.5,22.5,0,0,1,.671,3.742c.023-.508.045-1.015.066-1.523-.372-1.393.381-3.516,1.667-2.766,1.039.608.782,3.32.9,4.466.009.081.124.933.174.45a8.633,8.633,0,0,0-.045-1.7c-.15-1.454.049-6.641-2.083-5.731-.871.371-.942,2.265-.962,3.26a16.344,16.344,0,0,0,.4,4.418c.05.192.092-.351.091-.32a11.953,11.953,0,0,0-.027-1.208,30.4,30.4,0,0,0-.837-5.2c-.107-.464-.125.346-.126.439a7.364,7.364,0,0,0,.112,1.679Z" transform="translate(-378.868 -484.336)" fill="#ffd0c0"/>
      </g>
      <g id="Group_1394" data-name="Group 1394" transform="translate(167.698 96.078)">
        <path id="Path_6941" data-name="Path 6941" d="M365.05,467.8c-.992,4.411-.822,9.246-.755,13.924.008.572,1.043,1.567,1.043,1.554-.072-4.7-.252-9.567.737-14,.1-.443-.986-1.644-1.024-1.477Z" transform="translate(-363.994 -467.727)" fill="#f74d4d"/>
        <path id="Path_6942" data-name="Path 6942" d="M364.9,470.765a1.716,1.716,0,0,1,1.875-1.541c1.079-.028,1.493.543,1.214,1.93a7.289,7.289,0,0,1-3.513,4.44c-.025.013.779,1.721,1.1,1.542,1.781-1,4.508-3.87,3.322-6.753a5.094,5.094,0,0,0-2.021-2.394,1.982,1.982,0,0,0-3.059,1.269c-.08.553,1.1,1.364,1.084,1.507Z" transform="translate(-363.811 -467.685)" fill="#f74d4d"/>
        <path id="Path_6943" data-name="Path 6943" d="M371.083,482.769a3.518,3.518,0,0,0,.5,3.971c1.219,1.068,2.743,1.274,3.515-.588a3.4,3.4,0,0,0-1.631-4.214,2.019,2.019,0,0,0-2.034-.274c-.678.411-.545,1.385-.178,2.066a1.824,1.824,0,0,0,.883.633c.027.011.712.255.6.042a1.664,1.664,0,0,1-.172-1.528.916.916,0,0,1,.394-.4.991.991,0,0,1,.232-.088c.348-.107.444.231-.083-.2.794.649.819,2.176.474,3.147a2.468,2.468,0,0,1-.941,1.194,1.408,1.408,0,0,1-.252.127c-.453.2-.327-.33.369.4a1.964,1.964,0,0,1-.336-.623,3.449,3.449,0,0,1,.162-2.863c.053-.08-1.268-1.169-1.5-.8Z" transform="translate(-366.743 -473.569)" fill="#f74d4d"/>
        <path id="Path_6944" data-name="Path 6944" d="M379.228,479.94c.05,2.84.588,5.686.577,8.569,0,1.134,1.574,1.832,1.577.609.005-3.06-.538-6.064-.6-9.071-.023-1.113-1.578-1.386-1.556-.107Z" transform="translate(-370.386 -472.55)" fill="#f74d4d"/>
        <path id="Path_6945" data-name="Path 6945" d="M380.248,481.741a1.387,1.387,0,0,1,.225-.594c.1-.089.179-.063.279,0a2.671,2.671,0,0,1,.919,1.311,2.3,2.3,0,0,1,.135,1.554c-.268.817-1.274.86-1.87.852-.821-.014-.266,2.029.482,2.042a2.442,2.442,0,0,0,2.623-1.673,5.524,5.524,0,0,0-.384-3.57,4.717,4.717,0,0,0-1.853-2.407c-.836-.415-1.509.111-1.743,1.2a1.63,1.63,0,0,0,.347,1.423c.24.26.729.376.839-.132Z" transform="translate(-370.299 -472.557)" fill="#f74d4d"/>
        <path id="Path_6946" data-name="Path 6946" d="M376.7,502.243c1.073.292,1.462-.26,1.266-1.7a3.505,3.505,0,0,0-2.3-2.888c-2.6-.75-3.009,3.684-2.852,6.23.15,2.411.879,5.263,2.647,6.421,2.172,1.427,3.622-.5,4.6-2.891.127-.31-1.411-1.152-1.629-.617a9.793,9.793,0,0,1-1.3,2.381,2.981,2.981,0,0,1-.564.521c-.448.337-.347.234-.543.011a8.527,8.527,0,0,1-1.446-3.87,13.894,13.894,0,0,1,.02-4.974,14.851,14.851,0,0,1,1-2.5,3.589,3.589,0,0,1,.7,1.391,7.952,7.952,0,0,1,.087,1.684c-1.12-.3-.324.626.313.8Z" transform="translate(-367.637 -480.43)" fill="#f74d4d"/>
        <path id="Path_6947" data-name="Path 6947" d="M384.78,507.261c-.644,2.092.482,4.432,2.2,4.577a2.513,2.513,0,0,0,2.436-3.175,2.9,2.9,0,0,0-2.368-2.377,1.862,1.862,0,0,0-1.727.548,3.505,3.505,0,0,0-.52,2.216c0,.582,1.683.642,1.676.045a4.226,4.226,0,0,1,.219-1.618,1.106,1.106,0,0,1,.217-.351c.188-.19,0-.028-.219-.055-.115-.011.025.017.065.042a1.894,1.894,0,0,1,.378.331,3.02,3.02,0,0,1,.54.975,2.475,2.475,0,0,1-.526,2.415,1.075,1.075,0,0,1-.272.2c.389-.208.41.115.115-.231a3.187,3.187,0,0,1-.49-.911,3.877,3.877,0,0,1-.11-2.38c.177-.579-1.454-.783-1.617-.255Z" transform="translate(-372.675 -484.138)" fill="#f74d4d"/>
        <path id="Path_6948" data-name="Path 6948" d="M393.418,506.552a3.95,3.95,0,0,1,.715,1.663c.2-.266.4-.531.608-.8.046.077.037.063-.027-.037a.524.524,0,0,1,.073.148.439.439,0,0,1-.046-.228,2.2,2.2,0,0,1,.089-.846c.11-.348.431-.742.62-.489.174.234.606.742.808.3a1.707,1.707,0,0,0-.3-1.409c-.383-.513-.856-1.061-1.426-.984-.4.056-.686.508-.833.965a4.575,4.575,0,0,0,.83,4.1c.58.687.808-.116.61-.8a7.379,7.379,0,0,0-1.51-3.1c-.224-.231-.629-.446-.7.075a1.973,1.973,0,0,0,.489,1.435Z" transform="translate(-376.225 -483.115)" fill="#f74d4d"/>
        <path id="Path_6949" data-name="Path 6949" d="M400,503.873a20.547,20.547,0,0,1,.613,3.409q.031-.7.061-1.388c-.34-1.27.347-3.2,1.517-2.52.948.553.713,3.024.821,4.069.009.075.112.851.157.41a7.8,7.8,0,0,0-.038-1.551c-.137-1.326.044-6.052-1.9-5.223-.793.338-.858,2.064-.877,2.972a14.9,14.9,0,0,0,.363,4.025c.047.176.085-.321.084-.292a10.856,10.856,0,0,0-.024-1.1,27.879,27.879,0,0,0-.763-4.74c-.1-.422-.115.317-.115.4a6.811,6.811,0,0,0,.1,1.53Z" transform="translate(-379.202 -481.885)" fill="#f74d4d"/>
      </g>
      <g id="Group_1397" data-name="Group 1397" transform="translate(21.972 81.241)">
        <path id="Path_6950" data-name="Path 6950" d="M223.977,520.585l-109.944-2.993,2.406,63.675a5.431,5.431,0,0,0,5.361,5.225l94.9,1.137a5.43,5.43,0,0,0,5.493-5.272Z" transform="translate(-111.561 -474.133)" fill="#263342"/>
        <path id="Path_6951" data-name="Path 6951" d="M222.415,523.392,121.581,520.66l2.213,58.078a4.962,4.962,0,0,0,4.915,4.765l87.039,1.042a4.968,4.968,0,0,0,5.038-4.81Z" transform="translate(-114.78 -475.441)" fill="#405166"/>
        <path id="Path_6952" data-name="Path 6952" d="M224.129,519.4l-111.047-1.965,3.7,18.633,106.193-.164Z" transform="translate(-111.155 -474.067)" fill="#344256"/>
        <path id="Path_6953" data-name="Path 6953" d="M221.122,528.617l-108.984.581-2.415-19.922,112.08,5.108Z" transform="translate(-109.723 -470.586)" fill="#687f99"/>
        <path id="Path_6954" data-name="Path 6954" d="M229.773,469.385l-109.23-27.568-5.967,22.59,110.375,20.4Z" transform="translate(-111.793 -441.816)" fill="#687f99"/>
        <path id="Path_6955" data-name="Path 6955" d="M231.028,471.835,125.8,445.34l-4.038,19.292L227.1,485.5Z" transform="translate(-114.856 -443.319)" fill="#405166"/>
        <path id="Path_6956" data-name="Path 6956" d="M228.454,483.338l-103.47-23.167-3.226,10.786L227.1,491.823Z" transform="translate(-114.856 -449.644)" fill="#263342"/>
        <g id="Group_1395" data-name="Group 1395" transform="translate(12.289 2.362)">
          <path id="Path_6957" data-name="Path 6957" d="M131.149,445.935l5.464,21.1,14.451,2.861-4.846-20.17Z" transform="translate(-131.149 -445.935)" fill="#b4c4d6"/>
          <path id="Path_6958" data-name="Path 6958" d="M180.844,458.444l4.327,19.346,13.232,2.621-3.816-18.506Z" transform="translate(-152.343 -451.27)" fill="#b4c4d6"/>
          <path id="Path_6959" data-name="Path 6959" d="M229.934,470.8l3.313,17.633,12.076,2.393-2.9-16.881Z" transform="translate(-173.278 -456.54)" fill="#b4c4d6"/>
          <path id="Path_6960" data-name="Path 6960" d="M272.238,481.453l2.532,16.175,11.119,2.2-2.2-15.493Z" transform="translate(-191.32 -461.082)" fill="#b4c4d6"/>
        </g>
        <path id="Path_6961" data-name="Path 6961" d="M221.044,528.867l-105.7.1-2.108-17.18,109.161,4.69Z" transform="translate(-111.219 -471.658)" fill="#405166"/>
        <path id="Path_6962" data-name="Path 6962" d="M222.611,535.511l-105.7.1.582-8.244,104.723.424Z" transform="translate(-112.787 -478.302)" fill="#263342"/>
        <g id="Group_1396" data-name="Group 1396" transform="translate(5.458 40.615)">
          <path id="Path_6963" data-name="Path 6963" d="M119.239,529.326l7.8-16.693,14.985.643-7.819,16.036Z" transform="translate(-119.239 -512.633)" fill="#b4c4d6"/>
          <path id="Path_6964" data-name="Path 6964" d="M168.7,530.2l7.809-15.451,13.712.591-7.774,14.847Z" transform="translate(-140.332 -513.537)" fill="#b4c4d6"/>
          <path id="Path_6965" data-name="Path 6965" d="M217.889,531.076l7.723-14.215,12.509.541-7.646,13.661Z" transform="translate(-161.311 -514.436)" fill="#b4c4d6"/>
          <path id="Path_6966" data-name="Path 6966" d="M260.572,531.829l7.568-13.143,11.516.495-7.474,12.638Z" transform="translate(-179.514 -515.215)" fill="#b4c4d6"/>
        </g>
        <path id="Path_6967" data-name="Path 6967" d="M284.992,495.883c-6.659,8.809-6.589,8.825-13.553,18.04l16.28,1.07L289,496.411Z" transform="translate(-178.691 -464.874)" fill="#263342"/>
        <path id="Path_6968" data-name="Path 6968" d="M286.385,497.051c-5.774,7.635-6.407,8.547-12.45,16.538l14.123.929,1.154-16.772Z" transform="translate(-179.755 -465.373)" fill="#65768e"/>
        <path id="Path_6969" data-name="Path 6969" d="M293.21,505.559l.539-7.813-2.827-.7c-3.014,3.99-4.633,6.145-6.349,8.431Z" transform="translate(-184.292 -465.373)" fill="#8498af"/>
        <path id="Path_6970" data-name="Path 6970" d="M284.842,519.639a1.978,1.978,0,0,0-1.515-2.282,1.93,1.93,0,0,0-1.863,1.972,1.974,1.974,0,0,0,1.512,2.28A1.93,1.93,0,0,0,284.842,519.639Z" transform="translate(-182.962 -474.03)" fill="#344256"/>
        <path id="Path_6971" data-name="Path 6971" d="M295.213,519.916a2.165,2.165,0,0,0-1.658-2.5,2.117,2.117,0,0,0-2.042,2.159,2.161,2.161,0,0,0,1.658,2.5A2.112,2.112,0,0,0,295.213,519.916Z" transform="translate(-187.248 -474.056)" fill="#344256"/>
        <path id="Path_6972" data-name="Path 6972" d="M295.88,504.157a2.233,2.233,0,0,0-1.859-2.463,2.084,2.084,0,0,0-2.222,2.012,2.225,2.225,0,0,0,1.859,2.458A2.077,2.077,0,0,0,295.88,504.157Z" transform="translate(-187.37 -467.348)" fill="#344256"/>
        <path id="Path_6973" data-name="Path 6973" d="M284.718,520.14a1.144,1.144,0,0,0-.855-1.306,1.062,1.062,0,0,0-1.05,1.091,1.143,1.143,0,0,0,.856,1.305A1.061,1.061,0,0,0,284.718,520.14Z" transform="translate(-183.54 -474.661)" fill="#8498af"/>
        <path id="Path_6974" data-name="Path 6974" d="M295.062,520.592a1.231,1.231,0,0,0-.922-1.411A1.15,1.15,0,0,0,293,520.361a1.231,1.231,0,0,0,.923,1.411A1.15,1.15,0,0,0,295.062,520.592Z" transform="translate(-187.884 -474.808)" fill="#8498af"/>
        <path id="Path_6975" data-name="Path 6975" d="M295.724,504.679a1.228,1.228,0,0,0-.984-1.38,1.146,1.146,0,0,0-1.189,1.139,1.23,1.23,0,0,0,.984,1.378A1.145,1.145,0,0,0,295.724,504.679Z" transform="translate(-188.119 -468.035)" fill="#8498af"/>
        <path id="Path_6976" data-name="Path 6976" d="M221.485,612.177l-71.075-1.129.014-1.013,71.074,1.132Z" transform="translate(-127.075 -513.558)" fill="#8ea7c1"/>
        <path id="Path_6977" data-name="Path 6977" d="M173.783,619.515l-.872-.067.513-8.6.869.067Z" transform="translate(-136.671 -513.905)" fill="#8ea7c1"/>
        <rect id="Rectangle_807" data-name="Rectangle 807" width="1.011" height="82.474" transform="translate(17.235 76.311) rotate(-89.145)" fill="#8ea7c1"/>
        <path id="Path_6978" data-name="Path 6978" d="M230.688,559.091l1.449-50.171.894-12.719-.966-.017.073-1.52-2.608-.118.092-1.35,3.595.661,4.822-15.423-61.008-15.4-8.138,18.934,50.4,9.316c-.622.832-1.27,1.694-2.022,2.7l-52.511-2.394-30.8,71.676,91.24,1.091A5.429,5.429,0,0,0,230.688,559.091Z" transform="translate(-120.057 -450.866)" fill="#d9a46e" opacity="0.6" style="mix-blend-mode: overlay;isolation: isolate"/>
        <path id="Path_6979" data-name="Path 6979" d="M293.977,549.419,294,591.477s1.2-35.537,1.608-42.08Z" transform="translate(-188.303 -487.697)" fill="#d9a46e" opacity="0.6" style="mix-blend-mode: overlay;isolation: isolate"/>
      </g>
      <path id="Path_6980" data-name="Path 6980" d="M366.414,339.765c.523-3.137-1.171-3.081-3.139-3.411s-3.472-.919-3.995,2.218.622,2.934,2.592,3.263S365.89,342.9,366.414,339.765Z" transform="translate(-194.126 -315.482)" fill="#f4b867"/>
      <path id="Path_6981" data-name="Path 6981" d="M372.924,355.262c-.7-3.1-2.247-2.409-4.2-1.969s-3.561.463-2.858,3.564,1.685,2.481,3.633,2.04S373.626,358.363,372.924,355.262Z" transform="translate(-196.919 -322.656)" fill="#f4b867"/>
      <path id="Path_6982" data-name="Path 6982" d="M410,367.687c.838-2.057-.676-2.424-2.392-3.129s-2.983-1.475-3.821.58.2,2.193,1.92,2.9S409.167,369.743,410,367.687Z" transform="translate(-213.037 -327.309)" fill="#f4b867"/>
      <path id="Path_6983" data-name="Path 6983" d="M347.86,329.557c.055-1.442-1.22-.867-2.046-.493s-1.541.532-.946,1.848,1.208.482,2.034.107A1.466,1.466,0,0,0,347.86,329.557Z" transform="translate(-187.941 -312.304)" fill="#f4b867"/>
      <path id="Path_6984" data-name="Path 6984" d="M369.074,538.012c.384-1.875,4.316-5.318,5.329-2.987s6.65.662,3.278,6.4-5.621,2.98-5.621.468S368.691,539.885,369.074,538.012Z" transform="translate(-198.344 -399.993)" fill="#f74d4d"/>
      <path id="Path_6985" data-name="Path 6985" d="M372.561,538.439c.252-1.235,2.844-3.5,3.51-1.969s4.383.437,2.16,4.219-3.7,1.964-3.7.31S372.307,539.675,372.561,538.439Z" transform="translate(-199.836 -400.723)" fill="#ffd0c0"/>
      <path id="Path_6986" data-name="Path 6986" d="M368.064,522.664s3.044,2.821,1.627,3.282-.112,4.477-3.275,2.189-1.405-3.59-.605-3.938A7.689,7.689,0,0,0,368.064,522.664Z" transform="translate(-196.448 -395.055)" fill="#f74d4d"/>
      <path id="Path_6987" data-name="Path 6987" d="M368.757,523.073s1.394,1.292.746,1.5-.052,2.05-1.5,1-.643-1.644-.276-1.8A3.5,3.5,0,0,0,368.757,523.073Z" transform="translate(-197.546 -395.229)" fill="#ffd0c0"/>
      <path id="Path_6988" data-name="Path 6988" d="M386.484,533.039s3.712,1.561,3.7.154,3.479-2.136.243-4.005-3.8.087-3.189,1.307S386.484,533.039,386.484,533.039Z" transform="translate(-205.782 -397.507)" fill="#f74d4d"/>
      <path id="Path_6989" data-name="Path 6989" d="M344.067,386.465,373.43,527.238l16.258-119.69c3.4-21.251-3.357-22.1-7.922-6.712-3.551-29.246-19.442-25.358-23.5-3.043C354.679,378.546,349.818,377.717,344.067,386.465Z" transform="translate(-187.692 -334.202)" fill="#ffefb8" opacity="0.6" style="mix-blend-mode: overlay;isolation: isolate"/>
      <path id="Path_6990" data-name="Path 6990" d="M352.53,506.411l-8.452,2.029-1.692-3.044-7.441,2.017L326.5,490.774l-.338,7.184,5.072,10.313-5.326,1.69-2.028,64.916,41.334.508-13.694-55.45,3.382-3.044Z" transform="translate(-179.082 -381.455)" fill="#ad2c00" opacity="0.4" style="mix-blend-mode: multiply;isolation: isolate"/>
      <path id="Path_6991" data-name="Path 6991" d="M346.806,349.035c.424-2.54-1.189-2.854-4.388-3.388s-5.95-3.756-7.65.157c-1.562,3.59,2.281,6.326,5.479,6.86S346.382,351.574,346.806,349.035Z" transform="translate(-183.573 -318.813)" fill="#f4b867"/>
      <path id="Path_6992" data-name="Path 6992" d="M339.594,351.181c-3.163-.528-6.941-3.208-5.522-6.738-.89-.012-1.667.455-2.3,1.908-1.56,3.59,2.281,6.326,5.479,6.86,2.662.445,5.139-.609,6.141-2.44A6.836,6.836,0,0,1,339.594,351.181Z" transform="translate(-182.296 -319.048)" fill="#ffcd85"/>
      <path id="Path_6993" data-name="Path 6993" d="M346.615,369.111c0-1.627-2.026-.928-4.2-1.883-2.415-1.062-4.4.256-4.4,1.883s1.924,2.945,4.3,2.945S346.615,370.738,346.615,369.111Z" transform="translate(-185.114 -328.602)" fill="#fff2c6" opacity="0.4" style="mix-blend-mode: overlay;isolation: isolate"/>
      <path id="Path_6994" data-name="Path 6994" d="M304.288,342.095c0-1.2-1.29-.687-2.672-1.394a1.773,1.773,0,0,0-2.8,1.394,2.805,2.805,0,0,0,5.469,0Z" transform="translate(-168.395 -317.331)" fill="#fff2c6" opacity="0.4" style="mix-blend-mode: overlay;isolation: isolate"/>
      <path id="Path_6995" data-name="Path 6995" d="M327.241,336.185c-.943-.258-.2-1.394-.391-2.878-.213-1.65.883-2.661,1.824-2.4s1.388,1.645.993,3.1S328.185,336.439,327.241,336.185Z" transform="translate(-180.308 -313.256)" fill="#fff2c6" opacity="0.4" style="mix-blend-mode: overlay;isolation: isolate"/>
      <path id="Path_6996" data-name="Path 6996" d="M383.015,348.549c-.945-.256-.2-1.392-.392-2.876-.212-1.651.883-2.662,1.826-2.4s1.389,1.645.993,3.1S383.957,348.8,383.015,348.549Z" transform="translate(-204.093 -318.53)" fill="#fff2c6" opacity="0.4" style="mix-blend-mode: overlay;isolation: isolate"/>
      <path id="Path_6997" data-name="Path 6997" d="M317.073,361.388c-.754-.2-.093-1.362-.17-2.816-.088-1.616.855-2.669,1.606-2.464s1.043,1.549.646,3.009S317.826,361.589,317.073,361.388Z" transform="translate(-176.024 -324.012)" fill="#fff2c6" opacity="0.4" style="mix-blend-mode: overlay;isolation: isolate"/>
      <g id="Group_1398" data-name="Group 1398" transform="translate(190.145 78.266)">
        <path id="Path_6998" data-name="Path 6998" d="M457.651,443.765l-2.683-1.94-8.642,42.184,3.333.524Z" transform="translate(-421.448 -438.845)" fill="#ffd0c0"/>
        <path id="Path_6999" data-name="Path 6999" d="M490.211,457.472l2.942-3.5-24.62-14.545-.731,3.642Z" transform="translate(-430.607 -437.824)" fill="#ffd0c0"/>
        <path id="Path_7000" data-name="Path 7000" d="M456.357,516.758l-45.335,1.664,4.834,68.219,29.344.741Z" transform="translate(-406.392 -470.802)" fill="#f74d4d"/>
        <path id="Path_7001" data-name="Path 7001" d="M459.951,516.758c-9.323,69.7-37.181,46.163-40.5,69.883l29.344.741Z" transform="translate(-409.986 -470.802)" fill="#ffaeae"/>
        <path id="Path_7002" data-name="Path 7002" d="M452.493,588.811c-2.149-3.3-11.851,4.05-10.413,7.779.811,2.1,4.694.8,7.517-1.041S453.719,590.694,452.493,588.811Z" transform="translate(-419.576 -501.176)" fill="#ffaeae"/>
        <path id="Path_7003" data-name="Path 7003" d="M465.045,583.13a2.03,2.03,0,1,0-.291,2.369A1.732,1.732,0,0,0,465.045,583.13Z" transform="translate(-428.156 -498.982)" fill="#ffaeae"/>
        <path id="Path_7004" data-name="Path 7004" d="M459.036,579.38a1.178,1.178,0,0,0-1.593.3,1.156,1.156,0,0,0-.192,1.6,1.179,1.179,0,0,0,1.594-.3A1.159,1.159,0,0,0,459.036,579.38Z" transform="translate(-426.004 -497.422)" fill="#ffaeae"/>
        <path id="Path_7005" data-name="Path 7005" d="M435.468,596.129a1.179,1.179,0,0,0-1.593.3,1.156,1.156,0,0,0-.193,1.6,1.181,1.181,0,0,0,1.6-.294A1.16,1.16,0,0,0,435.468,596.129Z" transform="translate(-415.953 -504.565)" fill="#ffaeae"/>
        <path id="Path_7006" data-name="Path 7006" d="M449.6,610.091c-.326-.391-1.095-.3-1.713.212s-.852,1.237-.522,1.628,1.095.3,1.713-.211S449.935,610.483,449.6,610.091Z" transform="translate(-421.83 -510.503)" fill="#f74d4d"/>
        <path id="Path_7007" data-name="Path 7007" d="M448.6,616.056c-.177-.211-.593-.159-.927.115s-.461.67-.283.881.592.159.926-.114S448.777,616.268,448.6,616.056Z" transform="translate(-421.868 -513.095)" fill="#f74d4d"/>
        <path id="Path_7008" data-name="Path 7008" d="M421.615,621.787c-.239-.123-.6.088-.8.471s-.17.792.071.915.6-.089.8-.471S421.855,621.91,421.615,621.787Z" transform="translate(-410.512 -515.579)" fill="#ffaeae"/>
        <path id="Path_7009" data-name="Path 7009" d="M438.789,614.856c-.836-1.106-3.466-.56-5.868,1.219s-3.679,4.12-2.842,5.223,3.465.562,5.869-1.217S439.624,615.961,438.789,614.856Z" transform="translate(-414.41 -512.394)" fill="#f74d4d"/>
        <path id="Path_7010" data-name="Path 7010" d="M470.394,574.456a1.184,1.184,0,0,0-1.4.813,1.148,1.148,0,0,0,.361,1.562,1.187,1.187,0,0,0,1.406-.815A1.146,1.146,0,0,0,470.394,574.456Z" transform="translate(-431.053 -495.384)" fill="#ffaeae"/>
        <path id="Path_7011" data-name="Path 7011" d="M471.8,516.758l-10.005,3-14.562,65.527,13.6.958Z" transform="translate(-421.835 -470.802)" fill="#ffefb8" opacity="0.6" style="mix-blend-mode: overlay;isolation: isolate"/>
        <path id="Path_7012" data-name="Path 7012" d="M454.424,530.446,414.96,528.5l-2.825,3.739,5.883,2.368,6.27,56.2,7.913-.167,11.858-53.617Z" transform="translate(-406.867 -475.808)" fill="#ad2c00" opacity="0.3" style="mix-blend-mode: multiply;isolation: isolate"/>
        <path id="Path_7013" data-name="Path 7013" d="M454.242,507.494l-38.885-1.457-1.04,8.288,40.227.065Z" transform="translate(-407.797 -466.23)" fill="#ffd0c0"/>
        <path id="Path_7014" data-name="Path 7014" d="M438.622,507.582l-23.265-1.545-1.04,8.288,28.62,1.193Z" transform="translate(-407.797 -466.23)" fill="#cc8881"/>
        <path id="Path_7015" data-name="Path 7015" d="M426.718,506.865l-11.361-.828-1.04,8.288,14.556-2.232Z" transform="translate(-407.797 -466.23)" fill="#dd998e"/>
        <path id="Path_7016" data-name="Path 7016" d="M429.775,511.424l-15.447,1.583-1.226,9.1,14.555-2.231Z" transform="translate(-407.279 -468.527)" fill="#cc8881"/>
        <path id="Path_7017" data-name="Path 7017" d="M455.264,512.148l-51.925,3.437,1.679,9.861,49.538-.966Z" transform="translate(-403.115 -468.836)" fill="#ffd0c0"/>
        <path id="Path_7018" data-name="Path 7018" d="M464.4,440.064l-1.856-.6.941,4.379,3.457-.715Z" transform="translate(-428.365 -437.84)" fill="#ffd0c0"/>
        <path id="Path_7019" data-name="Path 7019" d="M466.472,438.405l-1.763-1.128v5.107l1.927-.027Z" transform="translate(-429.288 -436.905)" fill="#ffd0c0"/>
        <path id="Path_7020" data-name="Path 7020" d="M468.01,439l-.957-2.366-2.175,4.279,2.178,1.285Z" transform="translate(-429.36 -436.629)" fill="#ffd0c0"/>
        <path id="Path_7021" data-name="Path 7021" d="M449.012,635.726,415.4,634.279l-.1,3.981,33.736-.085Z" transform="translate(-408.218 -520.922)" fill="#f74d4d"/>
        <path id="Path_7022" data-name="Path 7022" d="M422.8,515.809l-19.463,1.337,1.679,9.861,20.04-.394Z" transform="translate(-403.115 -470.397)" fill="#dd998e"/>
        <path id="Path_7023" data-name="Path 7023" d="M408.4,527.888l-5.45-10.144,1.732,10.144Z" transform="translate(-402.949 -471.222)" fill="#b26d69"/>
        <path id="Path_7024" data-name="Path 7024" d="M456.013,519l-19.461.971,1.284,6.576,20.957-.43Z" transform="translate(-417.28 -471.756)" fill="#cc8881"/>
        <rect id="Rectangle_808" data-name="Rectangle 808" width="7.026" height="2.811" transform="translate(41.426 45.147) rotate(-4.43)" fill="#fff8d7"/>
        <path id="Path_7025" data-name="Path 7025" d="M506.605,467.933s-1.691-3.017,2.581-3.737h0S509.862,467.464,506.605,467.933Z" transform="translate(-447.015 -448.249)" fill="#b26d69"/>
      </g>
      <path id="Path_7026" data-name="Path 7026" d="M469.137,571.345l3.72-21.469s-3.289,3.078-12.469,5.45c-1.538,9.572-3.769,17.974-4.607,22.1C461.54,576.506,468.1,572.529,469.137,571.345Z" transform="translate(-235.336 -406.66)" fill="#9a2700" opacity="0.4" style="mix-blend-mode: multiply;isolation: isolate"/>
      <path id="Path_7027" data-name="Path 7027" d="M449.445,541.661c23.184-5.664,31.57-11.158,31.7-16.99l3.8,17.751c0,7.354-10.65,14.2-27.386,16.737l-1.015-2.62,2.536-.591L454.01,543.69l-3.418.443Z" transform="translate(-232.634 -395.911)" fill="#7a3429"/>
      <path id="Path_7028" data-name="Path 7028" d="M487.09,534.989s-3.551,8.874-22.908,12.256l4.565,12.595s14.369-.76,21.554-12.763Z" transform="translate(-238.919 -400.311)" fill="#a04137"/>
      <path id="Path_7029" data-name="Path 7029" d="M486.88,546.489l4.395,14.37,1.522-1.183-4.142-14.37Z" transform="translate(-248.599 -404.71)" fill="#7a3429"/>
      <path id="Path_7030" data-name="Path 7030" d="M502.713,524.671a7.619,7.619,0,0,1-2.679,5.322c-.11,5.709.777,14.964.412,21.707,3.907-2.759,6.071-5.967,6.071-9.279Z" transform="translate(-254.204 -395.911)" fill="#ffefb8" opacity="0.4" style="mix-blend-mode: overlay;isolation: isolate"/>
      <path id="Path_7031" data-name="Path 7031" d="M140.879,574.125c-30.683,5.931-62.635,2.381-65.931-8.776l.22,16.229c.288,11.157,41.115,17.5,65.678,11.523l-.24-2.771-3.439.34-.726-13.077,4.434-.786Z" transform="translate(-72.92 -413.259)" fill="#7a3429"/>
      <path id="Path_7032" data-name="Path 7032" d="M134.573,582.743c-45.072,6.2-56.971-6.93-56.971-6.93l.169,11.157c21.808,15.046,57.31,8.79,57.31,8.79Z" transform="translate(-74.052 -417.721)" fill="#a04137"/>
      <path id="Path_7033" data-name="Path 7033" d="M148.811,588.47l.766,14.516-1.691.169L146.87,588Z" transform="translate(-103.593 -422.918)" fill="#7a3429"/>
      <path id="Path_7034" data-name="Path 7034" d="M122.281,588.174l.766,14.517-1.69.169L120.341,587.7Z" transform="translate(-92.279 -422.792)" fill="#7a3429"/>
      <path id="Path_7035" data-name="Path 7035" d="M96.637,582.573l.766,14.517-1.691.169L94.7,582.1Z" transform="translate(-81.342 -420.403)" fill="#7a3429"/>
      <path id="Path_7036" data-name="Path 7036" d="M176.3,580.651c-4.293.832-8.608,1.468-12.868,1.932l-5.435,19.286a89.826,89.826,0,0,0,18.27-2.242l-.24-2.771-3.439.34-.726-13.077,4.434-.786Z" transform="translate(-108.336 -419.785)" fill="#d9a46e" opacity="0.6" style="mix-blend-mode: overlay;isolation: isolate"/>
      <path id="Path_7037" data-name="Path 7037" d="M175.812,597.846l-2.007,7.459,2.3-.147Z" transform="translate(-115.08 -427.118)" fill="#d9a46e" opacity="0.6" style="mix-blend-mode: overlay;isolation: isolate"/>
      <g id="Group_1399" data-name="Group 1399" transform="translate(135.755 190.206)">
        <path id="Path_7038" data-name="Path 7038" d="M320.512,639.059c.424-2.54-1.188-2.854-4.387-3.387s-5.951-3.757-7.651.155c-1.561,3.591,2.28,6.325,5.478,6.859S320.088,641.6,320.512,639.059Z" transform="translate(-308.115 -632.707)" fill="#ffcd85"/>
        <path id="Path_7039" data-name="Path 7039" d="M319.951,638.51c.161-.974-.721-1.14-2.47-1.433s-3.7-2.86-4.718-.361c-.582,1.431,1.981,2.731,3.73,3.024S319.789,639.483,319.951,638.51Z" transform="translate(-310.061 -633.439)" fill="#f4b867"/>
        <path id="Path_7040" data-name="Path 7040" d="M327.579,635.824c.66-.918.087-1.352-1.066-2.186s-1.609-2.634-3.038-1.426c-1.312,1.107-.334,2.93.818,3.762A2.358,2.358,0,0,0,327.579,635.824Z" transform="translate(-314.398 -631.808)" fill="#ffcd85"/>
        <path id="Path_7041" data-name="Path 7041" d="M318.5,641.224c.054-1.443-1.22-.868-2.046-.494s-1.54.532-.946,1.848,1.208.482,2.035.107A1.467,1.467,0,0,0,318.5,641.224Z" transform="translate(-311.177 -635.427)" fill="#f4b867"/>
      </g>
      <g id="Group_1400" data-name="Group 1400" transform="translate(120.275 187.957)">
        <path id="Path_7042" data-name="Path 7042" d="M295.362,632.19c-1.552-2.053-2.889-1.1-5.477.856s-6.82,1.737-5.149,5.661c1.534,3.6,6.161,2.693,8.748.739S296.914,634.244,295.362,632.19Z" transform="translate(-282.503 -629.232)" fill="#ffcd85"/>
        <path id="Path_7043" data-name="Path 7043" d="M294.1,634.4c-.6-.785-1.323-.26-2.739.808s-4.625.723-3.508,3.177c.639,1.405,3.344.44,4.761-.628S294.7,635.188,294.1,634.4Z" transform="translate(-283.896 -630.505)" fill="#f4b867"/>
        <path id="Path_7044" data-name="Path 7044" d="M295.241,638.513c-1.01-1.03-1.468.29-1.766,1.147s-.672,1.484.693,1.957,1.18-.547,1.476-1.4A1.468,1.468,0,0,0,295.241,638.513Z" transform="translate(-286.271 -632.259)" fill="#f4b867"/>
        <path id="Path_7045" data-name="Path 7045" d="M299.247,639.192c-.211-1.11-.923-.993-2.32-.73s-3.019-.642-3.125,1.225c-.1,1.715,1.9,2.257,3.294,1.992A2.356,2.356,0,0,0,299.247,639.192Z" transform="translate(-286.53 -632.321)" fill="#ffcd85"/>
        <path id="Path_7046" data-name="Path 7046" d="M286.572,635.654c-.212-1.109-.922-.993-2.32-.729s-3.02-.642-3.125,1.225c-.1,1.715,1.9,2.256,3.293,1.992A2.356,2.356,0,0,0,286.572,635.654Z" transform="translate(-281.124 -630.813)" fill="#ffcd85"/>
        <path id="Path_7047" data-name="Path 7047" d="M300.048,628.083c-.65-.466-.958-.058-1.543.759s-1.858,1.146-1,2.154c.786.926,2.072.229,2.657-.588A1.67,1.67,0,0,0,300.048,628.083Z" transform="translate(-287.987 -627.887)" fill="#ffcd85"/>
      </g>
      <g id="Group_1401" data-name="Group 1401" transform="translate(164.827 188.479)">
        <path id="Path_7048" data-name="Path 7048" d="M373.038,633.172c-1.3-2.221-2.742-1.431-5.541.209s-6.978.927-5.776,5.019c1.1,3.756,5.8,3.4,8.6,1.757S374.339,635.392,373.038,633.172Z" transform="translate(-359.958 -630.08)" fill="#ffcd85"/>
        <path id="Path_7049" data-name="Path 7049" d="M371.762,634.932c-.5-.849-1.283-.412-2.815.481s-4.678.177-3.856,2.745c.471,1.472,3.27.829,4.8-.066S372.26,635.784,371.762,634.932Z" transform="translate(-361.428 -631.219)" fill="#f4b867"/>
        <path id="Path_7050" data-name="Path 7050" d="M372.5,638.763c-.883-1.141-1.491.116-1.886.932s-.843,1.395.457,2.025,1.236-.4,1.631-1.222A1.467,1.467,0,0,0,372.5,638.763Z" transform="translate(-363.666 -632.853)" fill="#f4b867"/>
        <path id="Path_7051" data-name="Path 7051" d="M379.241,638.778c-.89-1.449-1.827-.9-3.65.216s-4.585.713-3.737,3.395c.779,2.459,3.872,2.151,5.691,1.033S380.128,640.224,379.241,638.778Z" transform="translate(-364.303 -632.68)" fill="#ffcd85"/>
        <path id="Path_7052" data-name="Path 7052" d="M364.3,635.026c-.079-1.128-.8-1.095-2.219-1s-2.924-.99-3.247.851c-.3,1.692,1.621,2.463,3.038,2.363A2.355,2.355,0,0,0,364.3,635.026Z" transform="translate(-358.805 -630.93)" fill="#ffcd85"/>
        <path id="Path_7053" data-name="Path 7053" d="M378.5,629.053c-.591-.538-.944-.17-1.621.572s-1.98.922-1.246,2.023c.673,1.01,2.033.47,2.709-.274A1.668,1.668,0,0,0,378.5,629.053Z" transform="translate(-365.887 -628.797)" fill="#ffcd85"/>
        <path id="Path_7054" data-name="Path 7054" d="M378.671,640.478c.072-1.441-1.21-.882-2.042-.521s-1.547.51-.97,1.835,1.2.5,2.036.134A1.464,1.464,0,0,0,378.671,640.478Z" transform="translate(-365.904 -633.379)" fill="#f4b867"/>
      </g>
      <g id="Group_1402" data-name="Group 1402" transform="translate(154.182 200.202)">
        <path id="Path_7055" data-name="Path 7055" d="M347.787,651.89c-.888-1.448-1.826-.9-3.649.216s-4.584.713-3.737,3.395c.779,2.459,3.871,2.151,5.692,1.033S348.676,653.337,347.787,651.89Z" transform="translate(-340.245 -649.995)" fill="#ffcd85"/>
        <path id="Path_7056" data-name="Path 7056" d="M347.108,649.493c-.591-.539-.944-.17-1.622.572s-1.979.922-1.246,2.023c.672,1.011,2.032.469,2.709-.274A1.667,1.667,0,0,0,347.108,649.493Z" transform="translate(-341.856 -649.237)" fill="#ffcd85"/>
        <path id="Path_7057" data-name="Path 7057" d="M347.218,653.59c.073-1.441-1.208-.882-2.041-.521s-1.548.512-.969,1.835,1.2.5,2.035.134A1.462,1.462,0,0,0,347.218,653.59Z" transform="translate(-341.846 -650.694)" fill="#f4b867"/>
      </g>
      <g id="Group_1403" data-name="Group 1403" transform="translate(179.716 192.204)">
        <path id="Path_7058" data-name="Path 7058" d="M384.89,638.869c.543-1.631,1.621-1.337,3.726-.715s4.789-.47,4.588,2.347c-.185,2.582-3.373,3.068-5.478,2.443S384.349,640.5,384.89,638.869Z" transform="translate(-384.765 -636.301)" fill="#ffcd85"/>
        <path id="Path_7059" data-name="Path 7059" d="M388.154,635.69c.463-.673.908-.4,1.771.145s2.218.392,1.748,1.646c-.431,1.152-1.932.97-2.794.422A1.625,1.625,0,0,1,388.154,635.69Z" transform="translate(-386.12 -635.291)" fill="#ffcd85"/>
        <path id="Path_7060" data-name="Path 7060" d="M389.162,639.668c-.425-1.38,1-1.163,1.928-1.022s1.683.1,1.423,1.534-1.093.789-2.016.646A1.461,1.461,0,0,1,389.162,639.668Z" transform="translate(-386.607 -636.677)" fill="#f4b867"/>
      </g>
      <g id="Group_1404" data-name="Group 1404" transform="translate(108.957 196.466)">
        <path id="Path_7061" data-name="Path 7061" d="M261.608,645.427c.508-1.039,1.067-.966,2.406-.751,1.827.3,5.716-1.3,4.913,1.989-.766,3.141-4.8,2.653-6.34,1.7A2.257,2.257,0,0,1,261.608,645.427Z" transform="translate(-261.389 -643.5)" fill="#ffcd85"/>
        <path id="Path_7062" data-name="Path 7062" d="M263.959,643.1c.4-.52.657-.419,1.209-.176.628.278,1.983-.11,1.286,1.063a1.7,1.7,0,0,1-2.361.564A.99.99,0,0,1,263.959,643.1Z" transform="translate(-262.378 -642.723)" fill="#ffcd85"/>
        <path id="Path_7063" data-name="Path 7063" d="M264.039,645.72c-.058-.932.882-.919,1.6-.911.825.012,1.624-.115,1.1,1.217s-1.2.7-1.94.554A.809.809,0,0,1,264.039,645.72Z" transform="translate(-262.518 -643.612)" fill="#f4b867"/>
      </g>
      <g id="Group_1405" data-name="Group 1405" transform="translate(129.421 194.159)">
        <path id="Path_7064" data-name="Path 7064" d="M307.093,643.47c-.134-2.055-1.449-2-4.035-1.834s-5.32-1.827-5.928,1.529c-.555,3.077,2.936,4.5,5.52,4.326S307.227,645.523,307.093,643.47Z" transform="translate(-297.071 -639.768)" fill="#ffcd85"/>
        <path id="Path_7065" data-name="Path 7065" d="M308.49,639.35c-.33-.913-.916-.718-2.064-.3s-2.645-.132-2.48,1.464c.15,1.466,1.914,1.652,3.06,1.239A2.023,2.023,0,0,0,308.49,639.35Z" transform="translate(-299.997 -638.7)" fill="#ffcd85"/>
        <path id="Path_7066" data-name="Path 7066" d="M306.538,643.571c.894-1.505-.8-1.631-1.894-1.715s-1.949-.326-2.079,1.419,1.011,1.217,2.108,1.3A1.775,1.775,0,0,0,306.538,643.571Z" transform="translate(-299.41 -640.021)" fill="#f4b867"/>
      </g>
      <g id="Group_1406" data-name="Group 1406" transform="translate(131.754 188.646)">
        <path id="Path_7067" data-name="Path 7067" d="M309.276,632.708c.341-1.665-.717-1.906-2.811-2.338s-3.834-2.615-5.049-.079c-1.113,2.327,1.354,4.218,3.448,4.646S308.934,634.371,309.276,632.708Z" transform="translate(-301.139 -629.087)" fill="#ffcd85"/>
        <path id="Path_7068" data-name="Path 7068" d="M311.473,629.961c-.063-.8-.572-.77-1.575-.691s-2.074-.682-2.293.624c-.2,1.2,1.162,1.731,2.164,1.653A1.668,1.668,0,0,0,311.473,629.961Z" transform="translate(-303.888 -629.102)" fill="#ffcd85"/>
        <path id="Path_7069" data-name="Path 7069" d="M308.974,632.55c1.039-1-.278-1.471-1.132-1.777s-1.479-.685-1.963.676.539,1.187,1.394,1.491A1.464,1.464,0,0,0,308.974,632.55Z" transform="translate(-303.108 -629.682)" fill="#f4b867"/>
      </g>
      <path id="Path_7070" data-name="Path 7070" d="M323.291,640.028c-.868-1.272-1.52.782-3.138,1.887s-3.59.85-2.723,2.122,2.884,1.4,4.5.3S324.159,641.3,323.291,640.028Z" transform="translate(-176.242 -444.936)" fill="#fff2c6" opacity="0.4" style="mix-blend-mode: overlay;isolation: isolate"/>
      <path id="Path_7071" data-name="Path 7071" d="M351.039,655.054c.516-1.14.486-2.266-.065-2.518s-1.417.47-1.933,1.61-.486,2.267.065,2.518S350.522,656.194,351.039,655.054Z" transform="translate(-189.657 -450.421)" fill="#fff2c6" opacity="0.4" style="mix-blend-mode: overlay;isolation: isolate"/>
      <path id="Path_7072" data-name="Path 7072" d="M382.872,642.38c.517-1.14.486-2.267-.065-2.518s-1.416.47-1.933,1.609-.486,2.267.065,2.518S382.357,643.519,382.872,642.38Z" transform="translate(-203.233 -445.015)" fill="#fff2c6" opacity="0.4" style="mix-blend-mode: overlay;isolation: isolate"/>
    </g>
    <g id="Group_1408" data-name="Group 1408" transform="translate(71.412 300.164)" opacity="0.6" style="mix-blend-mode: overlay;isolation: isolate">
      <path id="Path_7073" data-name="Path 7073" d="M333.614,496.63c-10.771-2.073-21.7-3.8-32.672-5.225l4.178-26.464c.029-.03.069-.065.093-.091l.609-3.51a40.632,40.632,0,0,0,11.832-5.385h0l.007,0q.719-.51,1.359-1.039a.418.418,0,0,0,.035-.028,15.6,15.6,0,0,0,3.067-3.318c.015-.021.032-.044.046-.067a10.884,10.884,0,0,0,.621-1.081c.023-.049.049-.1.072-.144a9.269,9.269,0,0,0,.435-1.067c.019-.056.035-.111.052-.166a8.076,8.076,0,0,0,.266-1.086c.007-.044.011-.087.019-.132a7.786,7.786,0,0,0,.092-1.148l-3.8-17.751a5.78,5.78,0,0,1-.048.621c-.005.045-.014.089-.021.135l-.1-.586c-1.078-2.089-3.317-2.233-6.406-1.081l.36-6.272-5.6.371-.1-2.418-17.241-.646,6.822-34.8,1.557-.322,21.971,14.117c.02.04.036.068.036.068a2.858,2.858,0,0,0,2.635-3.153l.32-.379-.354-.209.128-.021-.128.021L300.03,380.362l-.78-1.932-.7,1.376-1.572-1v1.655l-1.242-.4.465,2.166-1.125-.814-7.685,37.511-18.275-.684-.815,6.493-1.869.128,6.985-51.407c.2-1.25.361-2.425.493-3.536l.022,0c.014-.185.025-.361.038-.542v-.01l.04-.288-.009,0c.711-6.644.194-10.622-.955-12.117a1.371,1.371,0,0,0-1.836-.617,1.414,1.414,0,0,0-.381-.265c2.126-2.436-.74-3.429-2.4-6.009-1.07-1.663-2.154-3.168-3.328-3.776h0a2.644,2.644,0,0,0-.556-.215l-.028-.006a2.121,2.121,0,0,0-.568-.063c-.184-.379-.385-.75-.58-1.124-.06-.114-.118-.231-.177-.345a7.19,7.19,0,0,0,.763.174,7.629,7.629,0,0,0,.923.091l.137.006a7.286,7.286,0,0,0,.871-.036l.113-.013a6.423,6.423,0,0,0,1.719-.444,2.769,2.769,0,0,0,1.246.566l.036.009a2.837,2.837,0,0,0,.453.048,1.876,1.876,0,0,0,2.086-1.577,1.331,1.331,0,0,0-.02-.289.866.866,0,0,0-.032-.1.9.9,0,0,0-.038-.117.636.636,0,0,0-.069-.095.65.65,0,0,0-.055-.068.64.64,0,0,0-.1-.073c-.023-.014-.045-.03-.07-.043a1.185,1.185,0,0,0-.136-.049c-.029-.009-.057-.02-.09-.028-.05-.012-.107-.022-.165-.03-.037-.006-.073-.012-.112-.017-.064-.007-.132-.013-.2-.017l-.119-.008c-.1-.005-.2-.009-.306-.012h0a3.673,3.673,0,0,0,.273-.563c.02-.049.038-.1.056-.15a3.7,3.7,0,0,0,.165-.615c.424-2.54-1.824-5.03-5.023-5.564a7.484,7.484,0,0,0-.939-.091c-.047,0-.093-.005-.139-.006a7.2,7.2,0,0,0-.867.037l-.153.017a6.915,6.915,0,0,0-.832.157l-.085.026a6.112,6.112,0,0,0-.809.279l0,0a5.45,5.45,0,0,0-.736.389l-.071.043a5.008,5.008,0,0,0-.624.479l-.053.049a4.144,4.144,0,0,0-.946,1.284h0q-.736-1.008-1.516-1.975l.009,0a4.47,4.47,0,0,0,.8.17c.034,0,.069.01.1.013a3.223,3.223,0,0,0,.384.017,3.04,3.04,0,0,0,.467-.043c.075-.014.146-.031.218-.05a2.271,2.271,0,0,0,.5-.19c.031-.017.06-.038.089-.057a2.028,2.028,0,0,0,.482-.383c3.221-3.572.234-3.028-1.6-4.994s-1.26-5.363-5.057-2.128a2.281,2.281,0,0,0-.465.559c-.021.036-.032.079-.05.115a2.556,2.556,0,0,0-.228.587c-.007.022-.007.046-.013.069a3.369,3.369,0,0,0-.077.743v0a4.348,4.348,0,0,0,.1.86h0q-.865-.823-1.763-1.6c-.013-.011-.024-.023-.037-.033a2.947,2.947,0,0,0,.779-.893,3.909,3.909,0,0,0,.381-.732c.017-.046.034-.09.05-.137a3.487,3.487,0,0,0,.161-.607c.424-2.539-1.825-5.029-5.023-5.564q-.323-.052-.639-.077c-.043,0-.083,0-.126-.006-.175-.011-.348-.017-.521-.015l-.086,0q-.281.006-.556.034l-.036,0c-.2.021-.4.05-.588.089h0l0-.006a5.235,5.235,0,0,0-.322-.469c-.033-.043-.068-.082-.1-.124-.089-.11-.182-.217-.282-.321-.045-.046-.09-.092-.136-.138-.1-.1-.206-.194-.317-.287-.046-.038-.092-.079-.139-.118-.151-.12-.309-.236-.475-.344-.009-.005-.017-.012-.025-.017-.174-.113-.357-.217-.545-.314-.059-.031-.12-.057-.18-.086q-.2-.1-.415-.184c-.072-.029-.144-.057-.217-.083-.143-.053-.29-.1-.44-.145-.069-.02-.136-.042-.205-.06-.218-.058-.442-.108-.67-.147a7.711,7.711,0,0,0-.79-.084c-.066,0-.131-.007-.2-.009a7.106,7.106,0,0,0-.751.011h-.013a6.712,6.712,0,0,0-.74.1c-.057.011-.113.022-.167.034a6.151,6.151,0,0,0-1.357.457c-.041.019-.08.04-.119.06a5.081,5.081,0,0,0-1.127.765c-.028.025-.054.05-.081.076a4.176,4.176,0,0,0-.444.482c-.249-.067-.5-.142-.746-.2a4.943,4.943,0,0,0,.738-.551l.009-.008a4.471,4.471,0,0,0,.587-.649.4.4,0,0,0,.022-.034,3.93,3.93,0,0,0,.418-.729l.017-.045a3.745,3.745,0,0,0,.241-.822,4.163,4.163,0,0,0,.053-.7c0-.081,0-.163-.007-.24a2.269,2.269,0,0,0-.075-.417,1.769,1.769,0,0,0-.128-.335,1.826,1.826,0,0,0,.475-.218c.028-.017.054-.034.079-.052a1.629,1.629,0,0,0,.385-.368c.66-.918.087-1.353-1.066-2.186s-1.61-2.634-3.038-1.426a1.825,1.825,0,0,0-.348.4c-.024.037-.045.073-.066.11a1.561,1.561,0,0,0-.161.4c0,.014-.011.028-.014.042a1.723,1.723,0,0,0-.029.458c0,.042.006.085.011.128a2.445,2.445,0,0,0,.079.388c.009.029.013.057.022.085a3.035,3.035,0,0,0,.189.44c.024.045.05.088.076.132s.048.092.077.137c-.289-.052-.582-.1-.9-.157-3.2-.535-5.95-3.756-7.651.157a4.441,4.441,0,0,0-.237.7c-.021.08-.028.157-.042.237a3.663,3.663,0,0,0-.065.444c-.006.089,0,.177,0,.266a3.486,3.486,0,0,0,.017.388c.01.09.026.177.044.266a3.343,3.343,0,0,0,.085.36c.025.086.053.172.084.255a3.451,3.451,0,0,0,.147.342c.038.079.075.158.119.236.063.113.134.223.208.331.047.071.091.141.143.209.087.116.182.227.279.336.049.056.093.113.145.167.136.142.282.278.433.409.018.016.033.034.053.05-.062,0-.123-.006-.185-.006-.575,0-1.144.028-1.713.065q-.5.03-1,.077l-.035,0h0c-.448.044-.894.091-1.339.154-.005-.017-.007-.034-.012-.049-2.066-6.262-3.445-2.336-7.034-1.482s-7.24-2.143-5.962,4.577a3.139,3.139,0,0,0,.647,1.378c-.343.2-.684.408-1.023.617l0-.007a4.089,4.089,0,0,0-2.654-1.776c-.21-.179-.471-.37-.774-.59-1.155-.831-1.61-2.634-3.038-1.426a1.9,1.9,0,0,0-.255,2.556,7.379,7.379,0,0,0-.726.375c-2.685,1.668-3.821,4.709-2.62,6.887-1.119.048-2.536,1.292-4.521,1.576l-.056.006L190.2,304.526a4.15,4.15,0,0,1-.661.073c-2.269.052-3.481-1.961-4.1-4.435l-.488.1a1.5,1.5,0,0,1-.05.211l-.252.049a1.333,1.333,0,0,1-.272.7,1.27,1.27,0,0,1-1.914-.47l-.614.12a1.7,1.7,0,0,1-.019.207l-.28.054a1.563,1.563,0,0,1-.315,1.09c-.023.029-.05.052-.074.079a1.686,1.686,0,0,1-1.957-.1,1.737,1.737,0,0,1-.578-.79l-.508.085a1.41,1.41,0,0,1,.053.2l-.353.06a1.333,1.333,0,0,1-.123,1.272,1.582,1.582,0,0,1-1.865-.128,1.808,1.808,0,0,1-.631-.911l-.512.086c.009.069.009.14.017.208l-.316.053c.03.241.052.487.06.737a6.218,6.218,0,0,1-1.973,4.8,4.449,4.449,0,0,1-1.472.743l.029.133c-.111.041-.216.1-.33.13l5.278,24.35-6.613-10.338-3.038-4.783.005.042-.855-1.337a4.344,4.344,0,0,1-.563.356c-2.018,1.039-3.989-.24-5.632-2.192l-.4.3a1.467,1.467,0,0,1,.048.213l-.2.154a1.348,1.348,0,0,1,.059.747c-.01.044-.038.077-.051.12a1.3,1.3,0,0,1-1.343.547,1.283,1.283,0,0,1-.533-.252l-.5.376a1.9,1.9,0,0,1,.088.182l-.243.184a1.563,1.563,0,0,1,.2,1.118.955.955,0,0,1-.032.1,1.686,1.686,0,0,1-1.8.777,1.74,1.74,0,0,1-.865-.459l-.419.3a1.52,1.52,0,0,1,.135.158l-.292.21a1.331,1.331,0,0,1,.446,1.239c0,.005,0,.009,0,.014a1.623,1.623,0,0,1-1.727.645,1.812,1.812,0,0,1-.968-.542l-.42.3c.037.057.069.12.1.179l-.261.187c.132.2.261.416.375.637A6.212,6.212,0,0,1,151,327.59a4.5,4.5,0,0,1-1,1.311l.084.107c-.081.085-.15.181-.239.26l16.823,21.377a5.94,5.94,0,0,0-2.3,1.264l-.034.018-.029.018c-.109.064-.216.131-.323.2l-.025.017a9.225,9.225,0,0,0-1.912,1.792c-.006.009-.014.017-.022.026-.091.112-.18.227-.268.343l-.04.05c-.086.115-.171.231-.255.35l-.04.059c-.085.121-.169.244-.251.37-.009.013-.017.026-.026.038a18.441,18.441,0,0,0-1.243,2.259l0,.01c-.069.149-.136.3-.2.45-.01.023-.02.046-.03.068-.062.146-.124.291-.183.438-.012.028-.023.056-.034.083-.059.149-.118.3-.174.447-.009.022-.018.044-.026.067-.059.158-.116.315-.171.475a.021.021,0,0,0,0,.011,23.237,23.237,0,0,0-.75,2.638l-.006.03c-.036.166-.07.331-.1.5,0,.02-.009.039-.013.06-.031.162-.06.324-.088.485,0,.021-.007.041-.01.063-.027.166-.053.331-.077.5,0,0,0,.009,0,.014-.02.138-.04.275-.057.412-3.029-7.836-5.357-8.894-6.854-6.952-2.633.637-3.552,8.5-2.741,13.761.027.175.054.349.085.518.01.054.019.107.03.159.045.236.093.466.146.687a9.987,9.987,0,0,0,.237,1.323c.005.021.009.041.014.062a13.358,13.358,0,0,0,.428,1.384h0l3.5,19.055-2.446-.617h0L102.135,381.4,96.168,404l46.052,8.513h0l14.433,2.667,1.444,7.869L93.384,420.1,95.8,440.017l.63,0,.091,2.427c-12.936,1.6-22.832,5.074-22.991,10.04-.026-.076-.065-.15-.088-.227l.22,16.229c.147,5.658,10.72,10.076,24.309,12.279l.294,7.776a5.385,5.385,0,0,0,.435,1.908c-17.154,1.683-27.285,3.14-27.285,3.14,9.148,4.893,56.769,6.218,108.97,6.1a2.385,2.385,0,0,0,1.184,1.8c1.535.954,5.574,1.442,6.34-1.7.012-.048.013-.085.022-.131q3.935-.017,7.886-.046a6.016,6.016,0,0,0,4.51-.036q.386,0,.773-.007c.8,1.785,3.324,2.6,5.314,2.47a4.852,4.852,0,0,0,4.143-2.5,8.827,8.827,0,0,0,2.451.806,6.529,6.529,0,0,0,4.784-.951c7.315-.094,14.565-.206,21.655-.33a6.106,6.106,0,0,0,5.141.5c1.263,1.066,3.47.695,4.9-.184a4.894,4.894,0,0,0,.687-.515c1.129-.023,2.256-.044,3.374-.068a5.024,5.024,0,0,0,.547.21,5.638,5.638,0,0,0,4.1-.306C300.73,497.808,333.614,496.63,333.614,496.63ZM265.043,435.1h1.785l1.579,22.285c-2.307,1.262-4.6,2.4-6.849,3.361Zm-5.828,42.892a58.643,58.643,0,0,0,10.423-3.24l.952,13.43q-6.332-.528-12.63-.945ZM97.3,463.182a70.979,70.979,0,0,1-10.626-1.95,71.446,71.446,0,0,1,10.483-1.854Z" transform="translate(-71.412 -300.164)" opacity="0.4" fill="url(#linear-gradient)" style="mix-blend-mode: overlay;isolation: isolate"/>
      <path id="Path_7074" data-name="Path 7074" d="M511.812,464.282l.588-.1Z" transform="translate(-259.232 -370.114)" opacity="0.4" fill="url(#linear-gradient-2)" style="mix-blend-mode: overlay;isolation: isolate"/>
      <path id="Path_7075" data-name="Path 7075" d="M511.609,464.376l.116-.021Z" transform="translate(-259.145 -370.187)" opacity="0.4" fill="url(#linear-gradient-3)" style="mix-blend-mode: overlay;isolation: isolate"/>
      <path id="Path_7076" data-name="Path 7076" d="M512.837,464.114l.56-.095C513.251,464.043,513.067,464.075,512.837,464.114Z" transform="translate(-259.669 -370.044)" opacity="0.4" fill="url(#linear-gradient-4)" style="mix-blend-mode: overlay;isolation: isolate"/>
      <path id="Path_7077" data-name="Path 7077" d="M513.814,463.96c.751-.127.5-.084,0,0Z" transform="translate(-260.085 -369.985)" opacity="0.4" fill="url(#linear-gradient-5)" style="mix-blend-mode: overlay;isolation: isolate"/>
      <path id="Path_7078" data-name="Path 7078" d="M345.889,650.4a1.267,1.267,0,0,0-.392-.906c-.591-.539-.944-.17-1.622.572-.656.724-1.887.917-1.289,1.936-1.473.469-2.807.767-2.183,2.741.779,2.459,3.871,2.151,5.692,1.033s2.582-3.2,1.694-4.644A1.378,1.378,0,0,0,345.889,650.4Z" transform="translate(-186.062 -449.035)" opacity="0.4" fill="url(#linear-gradient-6)" style="mix-blend-mode: overlay;isolation: isolate"/>
    </g>
  </g>
</svg>
