<?xml version="1.0" encoding="utf-8"?>
<!-- Generator: Adobe Illustrator 19.0.0, SVG Export Plug-In . SVG Version: 6.00 Build 0)  -->
<svg version="1.1" id="Layer_1" xmlns="http://www.w3.org/2000/svg" xmlns:xlink="http://www.w3.org/1999/xlink" x="0px" y="0px"
	 viewBox="-256 348 98 98" style="enable-background:new -256 348 98 98;" xml:space="preserve">
<style type="text/css">
	.st0{fill:#5D5D5D;}
	.st1{fill:#969696;}
	.st2{fill:#383838;}
	.st3{fill:#F0F0F0;}
</style>
<path class="st0" d="M-162.9,410.5c-0.1-0.4-0.2-0.9-0.3-1.3c-0.1-0.4-0.3-0.9-0.4-1.3c-0.2-0.4-0.4-0.8-0.6-1.2
	c-0.2-0.4-0.4-0.8-0.7-1.1c-0.3-0.4-0.6-0.7-0.9-1c-0.6-0.6-1.3-1.1-2.2-1.4c-0.4-0.1-0.7-0.3-1.1-0.3c0,0,0,0,0,0c0,0,0,0,0,0
	c0.4,0,0.8,0,1.2,0c0.9-0.1,1.7-0.4,2.5-0.8c0.4-0.2,0.8-0.5,1.1-0.7c0.3-0.3,0.7-0.6,1-0.9c0.3-0.3,0.6-0.7,0.9-1
	c0.3-0.4,0.5-0.7,0.7-1.1c0.2-0.4,0.4-0.8,0.7-1.2c0.2-0.4,0.4-0.8,0.5-1.1c0.7-1.5,1-2.7,1.3-3.2l0,0c-0.3-0.4-1-1.5-1.9-2.9
	c-0.5-0.6-1-1.3-1.6-2c-0.6-0.6-1.3-1.3-2.1-1.8c-0.8-0.5-1.5-0.9-2.4-1.2c-0.8-0.3-1.7-0.4-2.6-0.3c-0.4,0-0.7,0.1-1.1,0.2
	c0,0,0,0,0-0.1c0.3-0.2,0.7-0.3,1-0.5c0.7-0.5,1.3-1.1,1.8-1.9c0.5-0.7,0.8-1.6,1.1-2.4c0.2-0.9,0.4-1.8,0.4-2.7c0-0.9,0-1.8,0-2.6
	c-0.1-1.6-0.4-2.9-0.4-3.4l0,0c-0.5-0.2-1.6-0.9-3-1.6c-0.7-0.3-1.5-0.7-2.4-1c-0.9-0.3-1.7-0.5-2.6-0.6c-0.9-0.1-1.8-0.1-2.7,0.1
	c-0.9,0.2-1.7,0.5-2.4,1c-0.2,0.2-0.5,0.3-0.7,0.5c0,0-0.1-0.1-0.1-0.1c0.2-0.2,0.3-0.5,0.5-0.8c0.4-0.8,0.6-1.6,0.7-2.5
	c0.1-0.9,0-1.8-0.2-2.7c-0.2-0.9-0.5-1.8-0.9-2.6c-0.4-0.8-0.8-1.6-1.2-2.3c-0.8-1.4-1.7-2.4-1.9-2.9l0,0c-0.5,0.1-1.8-0.1-3.4,0
	c-0.8,0-1.7,0.1-2.6,0.2c-0.9,0.2-1.8,0.4-2.6,0.7c-0.8,0.3-1.6,0.8-2.3,1.3c-0.7,0.6-1.3,1.2-1.7,2c-0.1,0.2-0.2,0.3-0.3,0.5
	c-0.1,0-0.1,0-0.2,0c0-0.2,0-0.4,0-0.6c0-0.9-0.2-1.7-0.5-2.5c-0.3-0.8-0.8-1.6-1.4-2.3c-0.6-0.7-1.3-1.3-2-1.9
	c-0.7-0.5-1.4-1-2.1-1.4c-0.7-0.4-1.3-0.7-1.9-1c-0.5-0.3-0.9-0.5-1.1-0.6l0,0c-0.2,0.2-0.6,0.4-1.2,0.6c-0.5,0.2-1.2,0.6-1.9,1
	c-1.4,0.8-3,1.8-4.2,3.2c-0.6,0.7-1.1,1.4-1.5,2.2c-0.4,0.8-0.6,1.6-0.6,2.5c0,0.1,0,0.2,0,0.3c-0.1,0-0.2,0-0.3,0.1
	c0-0.1-0.1-0.1-0.1-0.2c-0.4-0.8-1-1.4-1.6-2c-0.7-0.6-1.4-1-2.3-1.3c-0.8-0.4-1.7-0.6-2.6-0.8c-0.9-0.2-1.8-0.2-2.6-0.3
	c-0.8,0-1.5,0-2.1,0c-0.6,0-1.1,0-1.3,0l0,0c-0.2,0.5-1.1,1.5-2,2.8c-0.5,0.7-0.9,1.4-1.3,2.2c-0.4,0.8-0.7,1.7-0.9,2.6
	c-0.2,0.9-0.3,1.8-0.3,2.6c0.1,0.9,0.3,1.7,0.6,2.5c-0.1,0.1-0.2,0.2-0.3,0.3c-0.7-0.5-1.5-0.8-2.4-1c-0.9-0.2-1.7-0.2-2.7-0.1
	c-0.9,0.1-1.8,0.3-2.7,0.5c-0.9,0.3-1.7,0.6-2.4,0.9c-1.4,0.7-2.6,1.4-3.1,1.6l0,0c0,0.5-0.3,1.8-0.5,3.4c-0.1,0.8-0.1,1.7-0.1,2.6
	c0,0.9,0.2,1.8,0.4,2.7c0.2,0.9,0.6,1.7,1,2.5c0.4,0.7,0.9,1.3,1.6,1.8c-0.1,0.2-0.1,0.3-0.2,0.5c-0.8-0.1-1.6,0-2.4,0.2
	c-0.8,0.2-1.6,0.6-2.4,1.1c-1.5,1-2.8,2.4-3.8,3.7c-0.5,0.6-0.9,1.2-1.2,1.7c-0.3,0.5-0.6,0.9-0.8,1.1l0,0c0.1,0.2,0.3,0.7,0.5,1.2
	c0.2,0.6,0.4,1.2,0.7,2c0.6,1.5,1.5,3.2,2.7,4.5c0.6,0.7,1.3,1.3,2,1.7c0.7,0.4,1.5,0.7,2.3,0.8c0,0.2,0,0.4,0.1,0.5
	c-0.8,0.3-1.4,0.8-2,1.3c-0.6,0.6-1.2,1.3-1.6,2.1c-0.4,0.8-0.8,1.6-1.1,2.5c-0.3,0.9-0.5,1.7-0.6,2.5c-0.3,1.6-0.3,2.9-0.5,3.4l0,0
	c0.4,0.3,1.3,1.3,2.5,2.3c0.6,0.5,1.3,1.1,2.1,1.5c0.8,0.5,1.6,0.9,2.4,1.2c0.9,0.3,1.7,0.5,2.6,0.6c0.9,0,1.7-0.1,2.5-0.3
	c0.1,0.1,0.2,0.2,0.3,0.4c-0.6,0.7-1,1.4-1.3,2.2c-0.3,0.8-0.4,1.7-0.5,2.6c0,0.9,0,1.8,0.2,2.7c0.2,0.9,0.4,1.7,0.6,2.5
	c0.5,1.5,1.1,2.7,1.2,3.2l0,0c0.3,0,0.7,0.2,1.3,0.3c0.6,0.2,1.3,0.4,2,0.5c0.8,0.2,1.6,0.3,2.5,0.4c0.9,0.1,1.8,0.1,2.7,0
	c0.9-0.1,1.8-0.3,2.6-0.7c0.8-0.4,1.5-0.9,2.1-1.5c0.1-0.1,0.1-0.1,0.2-0.2c0.1,0.1,0.2,0.1,0.3,0.1c0,0.1-0.1,0.2-0.1,0.3
	c-0.2,0.9-0.2,1.7-0.1,2.6c0.1,0.9,0.4,1.7,0.8,2.5c0.8,1.6,2,3.1,3.2,4.2c0.6,0.5,1.1,1.1,1.6,1.4c0.5,0.4,0.8,0.7,1,0.9l0,0
	c0.2-0.1,0.7-0.2,1.3-0.3c0.6-0.1,1.3-0.3,2.1-0.5c0.8-0.2,1.6-0.5,2.4-0.8c0.8-0.3,1.6-0.8,2.4-1.3c0.7-0.5,1.4-1.1,1.9-1.8
	c0.5-0.7,0.9-1.5,1.2-2.3c0.1-0.2,0.1-0.4,0.1-0.6c0.1,0,0.1,0,0.2,0c0,0.2,0.1,0.4,0.1,0.6c0.2,0.9,0.6,1.6,1.1,2.4
	c0.5,0.7,1.2,1.3,1.9,1.9c0.7,0.5,1.5,1,2.4,1.4c0.8,0.4,1.6,0.6,2.4,0.9c1.5,0.4,2.8,0.7,3.3,0.9l0,0c0.3-0.4,1.4-1.1,2.6-2.2
	c0.6-0.5,1.2-1.2,1.8-1.9c0.6-0.7,1.1-1.5,1.5-2.3c0.4-0.8,0.7-1.7,0.9-2.5c0.2-0.9,0.2-1.7,0-2.6c-0.1-0.3-0.2-0.6-0.3-0.9
	c0,0,0.1,0,0.1-0.1c0.2,0.3,0.3,0.5,0.5,0.7c0.6,0.7,1.3,1.2,2.1,1.6c0.8,0.4,1.6,0.6,2.5,0.8c0.9,0.1,1.8,0.1,2.7,0.1
	c0.9,0,1.8-0.2,2.5-0.3c1.6-0.3,2.8-0.7,3.3-0.8l0,0c0.1-0.5,0.7-1.7,1.3-3.2c0.3-0.7,0.5-1.6,0.7-2.5c0.2-0.9,0.3-1.8,0.3-2.7
	c0-0.9-0.1-1.8-0.4-2.6c-0.3-0.8-0.7-1.6-1.2-2.3c-0.2-0.3-0.5-0.5-0.8-0.8c0,0,0,0,0-0.1c0.3,0.2,0.7,0.4,1,0.5
	c0.8,0.3,1.7,0.4,2.6,0.4c0.9,0,1.7-0.2,2.6-0.5c0.9-0.3,1.7-0.7,2.5-1.2c0.8-0.5,1.5-1,2.1-1.5c1.2-1,2.2-2,2.6-2.2l0,0
	c-0.2-0.5-0.1-1.8-0.4-3.4C-162.8,411.3-162.8,410.9-162.9,410.5z"/>
<circle class="st1" cx="-207.4" cy="397.6" r="38.7"/>
<g>
	<path class="st2" d="M-207.5,360.9L-207.5,360.9L-207.5,360.9c-0.2,0-0.4,0.2-0.4,0.4c0,0.2,0.2,0.4,0.4,0.4h0c0,0,0,0,0,0
		c0.2,0,0.4-0.2,0.4-0.4C-207.1,361.1-207.3,360.9-207.5,360.9L-207.5,360.9z M-209.7,361C-209.7,361-209.7,361-209.7,361
		L-209.7,361c-0.3,0-0.4,0.2-0.4,0.4c0,0.2,0.2,0.3,0.4,0.3c0,0,0,0,0,0c0,0,0,0,0,0c0.2,0,0.4-0.2,0.3-0.4
		C-209.4,361.1-209.5,361-209.7,361L-209.7,361z M-212,361.2C-212,361.2-212,361.2-212,361.2L-212,361.2c-0.3,0-0.4,0.2-0.4,0.4
		c0,0.2,0.2,0.3,0.4,0.3c0,0,0,0,0,0c0,0,0,0,0,0c0.2,0,0.3-0.2,0.3-0.4C-211.6,361.3-211.8,361.2-212,361.2L-212,361.2z
		 M-214.2,361.5C-214.2,361.5-214.2,361.5-214.2,361.5l-0.1,0c-0.2,0-0.3,0.2-0.3,0.4c0,0.2,0.2,0.3,0.4,0.3c0,0,0,0,0.1,0
		c0,0,0,0,0,0c0.2,0,0.3-0.2,0.3-0.4C-213.9,361.7-214,361.5-214.2,361.5L-214.2,361.5z M-216.4,362C-216.4,362-216.5,362-216.4,362
		l-0.1,0c-0.2,0.1-0.3,0.3-0.3,0.4c0,0.2,0.2,0.3,0.4,0.3c0,0,0.1,0,0.1,0c0,0,0,0,0,0c0,0,0,0,0,0c0.2-0.1,0.3-0.3,0.3-0.4
		C-216.1,362.1-216.2,362-216.4,362L-216.4,362z M-218.6,362.7c0,0-0.1,0-0.1,0l0,0c-0.2,0.1-0.3,0.3-0.2,0.5
		c0.1,0.2,0.2,0.3,0.3,0.3c0,0,0.1,0,0.1,0c0,0,0,0,0,0c0.2-0.1,0.3-0.3,0.2-0.5C-218.3,362.8-218.4,362.7-218.6,362.7L-218.6,362.7
		z M-220.7,363.4c0,0-0.1,0-0.1,0l0,0c-0.2,0.1-0.3,0.3-0.2,0.5c0.1,0.1,0.2,0.2,0.3,0.2c0,0,0.1,0,0.1,0c0,0,0,0,0,0c0,0,0,0,0,0
		c0,0,0,0,0,0c0.2-0.1,0.3-0.3,0.2-0.5C-220.4,363.5-220.6,363.4-220.7,363.4L-220.7,363.4z M-222.8,364.3c-0.1,0-0.1,0-0.2,0l0,0
		c-0.2,0.1-0.3,0.3-0.2,0.5c0.1,0.1,0.2,0.2,0.3,0.2c0.1,0,0.1,0,0.2,0c0,0,0,0,0,0c0.2-0.1,0.3-0.3,0.2-0.5
		C-222.5,364.4-222.7,364.3-222.8,364.3L-222.8,364.3z M-224.8,365.3c-0.1,0-0.1,0-0.2,0l0,0c-0.2,0.1-0.2,0.3-0.1,0.5
		c0.1,0.1,0.2,0.2,0.3,0.2c0.1,0,0.1,0,0.2,0c0,0,0,0,0,0c0,0,0,0,0,0c0.2-0.1,0.2-0.3,0.1-0.5
		C-224.6,365.4-224.7,365.3-224.8,365.3L-224.8,365.3z M-226.8,366.5c-0.1,0-0.1,0-0.2,0.1l0,0c-0.2,0.1-0.2,0.3-0.1,0.5
		c0.1,0.1,0.2,0.2,0.3,0.2c0.1,0,0.1,0,0.2-0.1c0,0,0,0,0,0c0,0,0,0,0,0c0,0,0,0,0,0c0.2-0.1,0.2-0.3,0.1-0.5
		C-226.5,366.6-226.6,366.5-226.8,366.5L-226.8,366.5z M-228.6,367.8c-0.1,0-0.1,0-0.2,0.1l0,0c-0.2,0.1-0.2,0.3-0.1,0.5
		c0.1,0.1,0.2,0.2,0.3,0.2c0.1,0,0.1,0,0.2-0.1c0,0,0,0,0,0l0,0c0,0,0,0,0,0c0,0,0,0,0,0c0.2-0.1,0.2-0.3,0.1-0.5
		C-228.4,367.8-228.5,367.8-228.6,367.8L-228.6,367.8z M-230.4,369.1c-0.1,0-0.2,0-0.2,0.1l0,0c-0.2,0.1-0.2,0.4-0.1,0.5
		c0.1,0.1,0.2,0.1,0.3,0.1c0.1,0,0.2,0,0.2-0.1c0,0,0,0,0,0c0,0,0,0,0,0c0,0,0,0,0,0c0.2-0.1,0.2-0.4,0.1-0.5
		C-230.2,369.2-230.3,369.1-230.4,369.1L-230.4,369.1z M-232.1,370.6c-0.1,0-0.2,0-0.2,0.1l0,0c-0.1,0.1-0.2,0.4,0,0.5
		c0.1,0.1,0.2,0.1,0.3,0.1c0.1,0,0.2,0,0.2-0.1c0,0,0,0,0,0c0.1-0.1,0.2-0.4,0-0.5C-231.9,370.7-232,370.6-232.1,370.6L-232.1,370.6
		z M-233.7,372.2c-0.1,0-0.2,0-0.3,0.1l0,0c-0.1,0.1-0.1,0.4,0,0.5c0.1,0.1,0.2,0.1,0.3,0.1c0.1,0,0.2,0,0.3-0.1c0,0,0,0,0,0
		c0,0,0,0,0,0c0,0,0,0,0,0c0.1-0.1,0.1-0.4,0-0.5C-233.6,372.2-233.6,372.2-233.7,372.2L-233.7,372.2z M-235.2,373.9
		c-0.1,0-0.2,0-0.3,0.1l0,0c-0.1,0.2-0.1,0.4,0,0.5c0.1,0.1,0.2,0.1,0.2,0.1c0.1,0,0.2,0,0.3-0.1c0,0,0,0,0,0c0,0,0,0,0,0
		c0.1-0.2,0.1-0.4,0-0.5C-235.1,373.9-235.2,373.9-235.2,373.9L-235.2,373.9z M-236.6,375.7c-0.1,0-0.2,0.1-0.3,0.1l0,0
		c-0.1,0.2-0.1,0.4,0.1,0.5c0.1,0,0.1,0.1,0.2,0.1c0.1,0,0.2-0.1,0.3-0.1c0,0,0,0,0,0l0,0c0,0,0,0,0,0c0.1-0.2,0.1-0.4-0.1-0.5
		C-236.5,375.7-236.6,375.7-236.6,375.7L-236.6,375.7z M-237.9,377.5c-0.1,0-0.2,0.1-0.3,0.2l0,0c-0.1,0.2-0.1,0.4,0.1,0.5
		c0.1,0,0.1,0.1,0.2,0.1c0.1,0,0.2-0.1,0.3-0.2c0,0,0,0,0,0c0.1-0.2,0.1-0.4-0.1-0.5C-237.8,377.6-237.9,377.5-237.9,377.5
		L-237.9,377.5z M-239.1,379.5c-0.1,0-0.3,0.1-0.3,0.2l0,0c-0.1,0.2,0,0.4,0.1,0.5c0.1,0,0.1,0,0.2,0c0.1,0,0.3-0.1,0.3-0.2
		c0,0,0,0,0,0c0,0,0,0,0,0c0.1-0.2,0-0.4-0.1-0.5C-239,379.5-239,379.5-239.1,379.5L-239.1,379.5z M-240.1,381.5
		c-0.1,0-0.3,0.1-0.3,0.2l0,0c-0.1,0.2,0,0.4,0.2,0.5c0.1,0,0.1,0,0.2,0c0.1,0,0.3-0.1,0.3-0.2c0,0,0,0,0,0c0.1-0.2,0-0.4-0.2-0.5
		C-240,381.5-240.1,381.5-240.1,381.5L-240.1,381.5z M-241.1,383.5c-0.1,0-0.3,0.1-0.3,0.2l0,0c-0.1,0.2,0,0.4,0.2,0.5
		c0,0,0.1,0,0.1,0c0.1,0,0.3-0.1,0.3-0.2c0,0,0,0,0,0c0.1-0.2,0-0.4-0.2-0.5C-241,383.6-241,383.5-241.1,383.5L-241.1,383.5z
		 M-241.8,385.7c-0.2,0-0.3,0.1-0.3,0.3l0,0c-0.1,0.2,0,0.4,0.2,0.5c0,0,0.1,0,0.1,0c0.2,0,0.3-0.1,0.3-0.3c0,0,0,0,0,0
		c0.1-0.2,0-0.4-0.2-0.5C-241.8,385.7-241.8,385.7-241.8,385.7L-241.8,385.7z M-242.5,387.8c-0.2,0-0.3,0.1-0.4,0.3l0,0
		c-0.1,0.2,0.1,0.4,0.3,0.4c0,0,0.1,0,0.1,0c0.2,0,0.3-0.1,0.4-0.3c0,0,0,0,0,0C-242.1,388.1-242.2,387.9-242.5,387.8
		C-242.4,387.8-242.5,387.8-242.5,387.8L-242.5,387.8z M-243,390c-0.2,0-0.3,0.1-0.4,0.3l0,0c0,0.2,0.1,0.4,0.3,0.4c0,0,0,0,0.1,0
		c0.2,0,0.3-0.1,0.4-0.3c0,0,0,0,0,0l0,0c0,0,0,0,0,0c0,0,0,0,0,0c0,0,0,0,0,0C-242.6,390.3-242.7,390.1-243,390
		C-243,390-243,390-243,390L-243,390z M-243.4,392.3c-0.2,0-0.3,0.1-0.4,0.3l0,0c0,0.2,0.1,0.4,0.3,0.4c0,0,0,0,0,0
		c0.2,0,0.3-0.1,0.4-0.3c0,0,0,0,0,0C-243,392.5-243.1,392.3-243.4,392.3C-243.3,392.3-243.4,392.3-243.4,392.3L-243.4,392.3z
		 M-243.6,394.5c-0.2,0-0.4,0.1-0.4,0.3l0,0c0,0.2,0.1,0.4,0.3,0.4c0,0,0,0,0,0c0.2,0,0.4-0.1,0.4-0.3c0,0,0,0,0,0c0,0,0,0,0,0
		c0,0,0,0,0,0c0,0,0,0,0,0C-243.2,394.7-243.4,394.5-243.6,394.5C-243.6,394.5-243.6,394.5-243.6,394.5L-243.6,394.5z M-243.7,396.8
		c-0.2,0-0.4,0.2-0.4,0.4l0,0c0,0.2,0.2,0.4,0.4,0.4c0,0,0,0,0,0c0.2,0,0.4-0.2,0.4-0.4c0,0,0,0,0,0c0,0,0,0,0,0
		C-243.3,396.9-243.5,396.8-243.7,396.8C-243.7,396.8-243.7,396.8-243.7,396.8L-243.7,396.8z M-243.7,399
		C-243.7,399-243.7,399-243.7,399c-0.2,0-0.4,0.2-0.4,0.4l0,0c0,0.2,0.2,0.3,0.4,0.3c0,0,0,0,0,0c0.2,0,0.4-0.2,0.3-0.4c0,0,0,0,0,0
		c0,0,0,0,0,0c0,0,0,0,0,0c0,0,0,0,0,0C-243.3,399.2-243.5,399-243.7,399L-243.7,399z M-243.5,401.3
		C-243.5,401.3-243.5,401.3-243.5,401.3c-0.2,0-0.4,0.2-0.4,0.4l0,0c0,0.2,0.2,0.3,0.4,0.3c0,0,0,0,0,0c0.2,0,0.3-0.2,0.3-0.4
		c0,0,0,0,0,0c0,0,0,0,0,0c0,0,0,0,0,0C-243.2,401.4-243.3,401.3-243.5,401.3L-243.5,401.3z M-243.2,403.5
		C-243.2,403.5-243.2,403.5-243.2,403.5c-0.3,0-0.4,0.2-0.4,0.4l0,0c0,0.2,0.2,0.3,0.4,0.3c0,0,0,0,0.1,0c0.2,0,0.3-0.2,0.3-0.4
		c0,0,0,0,0,0C-242.8,403.7-243,403.5-243.2,403.5L-243.2,403.5z M-242.7,405.7C-242.7,405.7-242.8,405.7-242.7,405.7
		c-0.3,0.1-0.4,0.3-0.4,0.5l0,0c0,0.2,0.2,0.3,0.4,0.3c0,0,0.1,0,0.1,0c0.2,0,0.3-0.2,0.3-0.4c0,0,0,0,0,0c0,0,0,0,0,0
		C-242.4,405.9-242.5,405.7-242.7,405.7L-242.7,405.7z M-242.1,407.9c0,0-0.1,0-0.1,0c-0.2,0.1-0.3,0.3-0.2,0.5l0,0
		c0,0.2,0.2,0.3,0.3,0.3c0,0,0.1,0,0.1,0c0.2-0.1,0.3-0.3,0.2-0.5c0,0,0,0,0,0C-241.8,408-242,407.9-242.1,407.9L-242.1,407.9z
		 M-241.4,410.1c0,0-0.1,0-0.1,0c-0.2,0.1-0.3,0.3-0.2,0.5l0,0c0.1,0.1,0.2,0.2,0.3,0.2c0,0,0.1,0,0.1,0c0.2-0.1,0.3-0.3,0.2-0.5
		c0,0,0,0,0,0c0,0,0,0,0,0C-241.1,410.2-241.2,410.1-241.4,410.1L-241.4,410.1z M-240.5,412.2c-0.1,0-0.1,0-0.2,0
		c-0.2,0.1-0.3,0.3-0.2,0.5l0,0c0.1,0.1,0.2,0.2,0.3,0.2c0.1,0,0.1,0,0.2,0c0.2-0.1,0.3-0.3,0.2-0.5c0,0,0,0,0,0
		C-240.2,412.2-240.4,412.2-240.5,412.2L-240.5,412.2z M-239.5,414.2c-0.1,0-0.1,0-0.2,0c-0.2,0.1-0.2,0.3-0.2,0.5l0,0
		c0.1,0.1,0.2,0.2,0.3,0.2c0.1,0,0.1,0,0.2,0c0.2-0.1,0.2-0.3,0.2-0.5c0,0,0,0,0,0c0,0,0,0,0,0
		C-239.3,414.3-239.4,414.2-239.5,414.2L-239.5,414.2z M-238.4,416.1c-0.1,0-0.1,0-0.2,0.1c-0.2,0.1-0.2,0.3-0.1,0.5l0,0
		c0.1,0.1,0.2,0.2,0.3,0.2c0.1,0,0.1,0,0.2-0.1c0.2-0.1,0.2-0.3,0.1-0.5c0,0,0,0,0,0C-238.1,416.2-238.3,416.1-238.4,416.1
		L-238.4,416.1z M-237.2,418c-0.1,0-0.1,0-0.2,0.1c-0.2,0.1-0.2,0.3-0.1,0.5l0,0c0.1,0.1,0.2,0.2,0.3,0.2c0.1,0,0.1,0,0.2-0.1
		c0.2-0.1,0.2-0.3,0.1-0.5c0,0,0,0,0,0C-236.9,418.1-237,418-237.2,418L-237.2,418z M-235.8,419.8c-0.1,0-0.2,0-0.2,0.1
		c-0.2,0.1-0.2,0.4-0.1,0.5l0,0c0.1,0.1,0.2,0.1,0.3,0.1c0.1,0,0.2,0,0.2-0.1c0.2-0.1,0.2-0.4,0.1-0.5c0,0,0,0,0,0
		C-235.6,419.9-235.7,419.8-235.8,419.8L-235.8,419.8z M-234.3,421.6c-0.1,0-0.2,0-0.2,0.1c-0.2,0.1-0.2,0.4,0,0.5l0,0
		c0.1,0.1,0.2,0.1,0.3,0.1c0.1,0,0.2,0,0.2-0.1c0.1-0.1,0.2-0.4,0-0.5c0,0,0,0,0,0c0,0,0,0,0,0
		C-234.1,421.6-234.2,421.6-234.3,421.6L-234.3,421.6z M-232.8,423.2c-0.1,0-0.2,0-0.3,0.1c-0.1,0.1-0.1,0.4,0,0.5l0,0
		c0.1,0.1,0.2,0.1,0.3,0.1c0.1,0,0.2,0,0.3-0.1c0.1-0.1,0.1-0.4,0-0.5c0,0,0,0,0,0C-232.6,423.2-232.7,423.2-232.8,423.2
		L-232.8,423.2z M-231.1,424.7c-0.1,0-0.2,0-0.3,0.1c-0.1,0.2-0.1,0.4,0,0.5l0,0c0.1,0.1,0.2,0.1,0.2,0.1c0.1,0,0.2,0,0.3-0.1
		c0.1-0.2,0.1-0.4,0-0.5c0,0,0,0,0,0c0,0,0,0,0,0C-230.9,424.8-231,424.7-231.1,424.7L-231.1,424.7z M-229.3,426.2
		c-0.1,0-0.2,0-0.3,0.1c-0.1,0.2-0.1,0.4,0.1,0.5l0,0c0.1,0.1,0.1,0.1,0.2,0.1c0.1,0,0.2-0.1,0.3-0.1c0.1-0.2,0.1-0.4-0.1-0.5
		c0,0,0,0,0,0C-229.2,426.2-229.3,426.2-229.3,426.2L-229.3,426.2z M-227.5,427.5c-0.1,0-0.2,0.1-0.3,0.2c-0.1,0.2-0.1,0.4,0.1,0.5
		l0,0c0.1,0,0.1,0.1,0.2,0.1c0.1,0,0.2-0.1,0.3-0.2c0.1-0.2,0.1-0.4-0.1-0.5c0,0,0,0,0,0C-227.4,427.5-227.4,427.5-227.5,427.5
		L-227.5,427.5z M-225.6,428.7c-0.1,0-0.2,0.1-0.3,0.2c-0.1,0.2,0,0.4,0.1,0.5l0,0c0.1,0,0.1,0,0.2,0c0.1,0,0.2-0.1,0.3-0.2
		c0.1-0.2,0-0.4-0.1-0.5c0,0,0,0,0,0c0,0,0,0,0,0C-225.5,428.7-225.5,428.7-225.6,428.7L-225.6,428.7z M-223.6,429.7
		c-0.1,0-0.3,0.1-0.3,0.2c-0.1,0.2,0,0.4,0.2,0.5l0,0c0.1,0,0.1,0,0.2,0c0.1,0,0.3-0.1,0.3-0.2c0.1-0.2,0-0.4-0.2-0.5c0,0,0,0,0,0
		c0,0,0,0,0,0C-223.5,429.7-223.5,429.7-223.6,429.7L-223.6,429.7z M-221.5,430.7c-0.1,0-0.3,0.1-0.3,0.2c-0.1,0.2,0,0.4,0.2,0.5
		l0,0c0,0,0.1,0,0.1,0c0.1,0,0.3-0.1,0.3-0.2c0.1-0.2,0-0.4-0.2-0.5c0,0,0,0,0,0C-221.4,430.7-221.5,430.7-221.5,430.7L-221.5,430.7
		z M-219.4,431.5c-0.2,0-0.3,0.1-0.3,0.2c-0.1,0.2,0,0.4,0.2,0.5l0,0c0,0,0.1,0,0.1,0c0.2,0,0.3-0.1,0.3-0.2c0.1-0.2,0-0.4-0.2-0.5
		c0,0,0,0,0,0c0,0,0,0,0,0c0,0,0,0,0,0c0,0,0,0,0,0C-219.3,431.5-219.4,431.5-219.4,431.5L-219.4,431.5z M-217.3,432.2
		c-0.2,0-0.3,0.1-0.4,0.3c-0.1,0.2,0.1,0.4,0.3,0.5l0,0c0,0,0.1,0,0.1,0c0.2,0,0.3-0.1,0.4-0.3c0.1-0.2-0.1-0.4-0.3-0.5
		C-217.1,432.2-217.1,432.2-217.3,432.2C-217.2,432.2-217.2,432.2-217.3,432.2L-217.3,432.2z M-215.1,432.7c-0.2,0-0.3,0.1-0.4,0.3
		c0,0.2,0.1,0.4,0.3,0.4l0,0c0,0,0.1,0,0.1,0c0.2,0,0.3-0.1,0.4-0.3c0-0.2-0.1-0.4-0.3-0.4c0,0,0,0,0,0
		C-215,432.7-215,432.7-215.1,432.7C-215,432.7-215,432.7-215.1,432.7L-215.1,432.7z M-212.8,433.1c-0.2,0-0.3,0.1-0.4,0.3
		c0,0.2,0.1,0.4,0.3,0.4l0,0c0,0,0,0,0.1,0c0.2,0,0.3-0.1,0.4-0.3C-212.4,433.3-212.5,433.1-212.8,433.1
		C-212.7,433.1-212.7,433.1-212.8,433.1C-212.8,433.1-212.8,433.1-212.8,433.1C-212.8,433.1-212.8,433.1-212.8,433.1L-212.8,433.1z
		 M-210.6,433.4c-0.2,0-0.3,0.1-0.4,0.3c0,0.2,0.1,0.4,0.3,0.4l0,0c0,0,0,0,0,0c0.2,0,0.3-0.1,0.4-0.3
		C-210.2,433.6-210.3,433.4-210.6,433.4C-210.5,433.4-210.5,433.4-210.6,433.4C-210.5,433.4-210.5,433.4-210.6,433.4
		C-210.6,433.4-210.6,433.4-210.6,433.4C-210.6,433.4-210.6,433.4-210.6,433.4L-210.6,433.4z M-208.3,433.5c-0.2,0-0.4,0.2-0.4,0.4
		c0,0.2,0.2,0.4,0.4,0.4l0,0c0,0,0,0,0,0c0.2,0,0.4-0.2,0.4-0.4C-207.9,433.7-208.1,433.5-208.3,433.5
		C-208.3,433.5-208.3,433.5-208.3,433.5C-208.3,433.5-208.3,433.5-208.3,433.5C-208.3,433.5-208.3,433.5-208.3,433.5L-208.3,433.5z
		 M-206,433.5C-206,433.5-206,433.5-206,433.5C-206.1,433.5-206.1,433.5-206,433.5C-206.1,433.5-206.1,433.5-206,433.5
		c-0.3,0-0.4,0.2-0.4,0.4c0,0.2,0.2,0.4,0.4,0.4c0,0,0,0,0,0l0,0c0.2,0,0.4-0.2,0.4-0.4C-205.7,433.7-205.8,433.5-206,433.5
		L-206,433.5z M-203.8,433.3C-203.8,433.3-203.8,433.3-203.8,433.3C-203.8,433.3-203.8,433.3-203.8,433.3
		C-203.8,433.3-203.8,433.3-203.8,433.3c-0.3,0-0.4,0.2-0.4,0.4c0,0.2,0.2,0.3,0.4,0.3c0,0,0,0,0,0l0,0c0.2,0,0.3-0.2,0.3-0.4
		C-203.4,433.5-203.6,433.3-203.8,433.3L-203.8,433.3z M-201.5,433C-201.6,433-201.6,433-201.5,433
		C-201.6,433.1-201.6,433.1-201.5,433C-201.6,433.1-201.6,433.1-201.5,433c-0.3,0-0.4,0.2-0.4,0.4c0,0.2,0.2,0.3,0.4,0.3
		c0,0,0,0,0.1,0l0,0c0.2,0,0.3-0.2,0.3-0.4C-201.2,433.2-201.4,433-201.5,433L-201.5,433z M-199.3,432.6
		C-199.3,432.6-199.4,432.6-199.3,432.6c-0.1,0-0.1,0-0.1,0c-0.2,0-0.3,0.2-0.3,0.4c0,0.2,0.2,0.3,0.4,0.3c0,0,0.1,0,0.1,0l0,0
		c0.2,0,0.3-0.2,0.3-0.4C-199,432.7-199.1,432.6-199.3,432.6L-199.3,432.6z M-197.1,432c0,0-0.1,0-0.1,0c0,0,0,0,0,0
		c-0.2,0.1-0.3,0.3-0.2,0.5c0,0.2,0.2,0.3,0.4,0.3c0,0,0.1,0,0.1,0l0,0c0.2-0.1,0.3-0.3,0.2-0.5C-196.8,432.1-197,432-197.1,432
		L-197.1,432z M-195,431.3c0,0-0.1,0-0.1,0c0,0,0,0,0,0c0,0,0,0,0,0c0,0,0,0,0,0c0,0,0,0,0,0c-0.2,0.1-0.3,0.3-0.2,0.5
		c0.1,0.1,0.2,0.2,0.3,0.2c0,0,0.1,0,0.1,0l0,0c0.2-0.1,0.3-0.3,0.2-0.5C-194.7,431.4-194.8,431.3-195,431.3L-195,431.3z
		 M-192.9,430.5c0,0-0.1,0-0.1,0c0,0,0,0,0,0c0,0,0,0,0,0c-0.2,0.1-0.3,0.3-0.2,0.5c0.1,0.1,0.2,0.2,0.3,0.2c0,0,0.1,0,0.1,0l0,0
		c0.2-0.1,0.3-0.3,0.2-0.5C-192.6,430.6-192.7,430.5-192.9,430.5L-192.9,430.5z M-190.8,429.5c-0.1,0-0.1,0-0.2,0c0,0,0,0,0,0
		c-0.2,0.1-0.3,0.3-0.2,0.5c0.1,0.1,0.2,0.2,0.3,0.2c0.1,0,0.1,0,0.2,0l0,0c0.2-0.1,0.3-0.3,0.2-0.5
		C-190.6,429.6-190.7,429.5-190.8,429.5L-190.8,429.5z M-188.9,428.4c-0.1,0-0.1,0-0.2,0.1c0,0,0,0,0,0c0,0,0,0,0,0l0,0
		c-0.2,0.1-0.2,0.3-0.1,0.5c0.1,0.1,0.2,0.2,0.3,0.2c0.1,0,0.1,0,0.2-0.1l0,0c0.2-0.1,0.2-0.3,0.1-0.5
		C-188.6,428.5-188.7,428.4-188.9,428.4L-188.9,428.4z M-187,427.2c-0.1,0-0.1,0-0.2,0.1c0,0,0,0,0,0c-0.2,0.1-0.2,0.3-0.1,0.5
		c0.1,0.1,0.2,0.2,0.3,0.2c0.1,0,0.1,0,0.2-0.1l0,0c0.2-0.1,0.2-0.3,0.1-0.5C-186.7,427.3-186.8,427.2-187,427.2L-187,427.2z
		 M-185.1,425.9c-0.1,0-0.2,0-0.2,0.1c0,0,0,0,0,0c-0.2,0.1-0.2,0.4-0.1,0.5c0.1,0.1,0.2,0.1,0.3,0.1c0.1,0,0.2,0,0.2-0.1l0,0
		c0.2-0.1,0.2-0.4,0.1-0.5C-184.9,425.9-185,425.9-185.1,425.9L-185.1,425.9z M-183.4,424.4c-0.1,0-0.2,0-0.2,0.1c0,0,0,0,0,0
		c0,0,0,0,0,0c0,0,0,0,0,0c-0.2,0.1-0.2,0.4,0,0.5c0.1,0.1,0.2,0.1,0.3,0.1c0.1,0,0.2,0,0.2-0.1l0,0c0.2-0.1,0.2-0.4,0-0.5
		C-183.2,424.5-183.3,424.4-183.4,424.4L-183.4,424.4z M-181.7,422.9c-0.1,0-0.2,0-0.3,0.1c0,0,0,0,0,0c-0.1,0.1-0.1,0.4,0,0.5
		c0.1,0.1,0.2,0.1,0.3,0.1c0.1,0,0.2,0,0.3-0.1l0,0c0.1-0.1,0.1-0.4,0-0.5C-181.5,422.9-181.6,422.9-181.7,422.9L-181.7,422.9z
		 M-180.2,421.2c-0.1,0-0.2,0-0.3,0.1c0,0,0,0,0,0c0,0,0,0,0,0c-0.1,0.2-0.1,0.4,0,0.5c0.1,0.1,0.2,0.1,0.2,0.1c0.1,0,0.2,0,0.3-0.1
		l0,0c0.1-0.2,0.1-0.4,0-0.5C-180,421.3-180.1,421.2-180.2,421.2L-180.2,421.2z M-178.7,419.5c-0.1,0-0.2,0-0.3,0.1c0,0,0,0,0,0
		c0,0,0,0,0,0c0,0,0,0,0,0c-0.1,0.2-0.1,0.4,0.1,0.5c0.1,0.1,0.1,0.1,0.2,0.1c0.1,0,0.2,0,0.3-0.1l0,0c0.1-0.2,0.1-0.4-0.1-0.5
		C-178.6,419.5-178.7,419.5-178.7,419.5L-178.7,419.5z M-177.4,417.7c-0.1,0-0.2,0.1-0.3,0.2l0,0c0,0,0,0,0,0
		c-0.1,0.2-0.1,0.4,0.1,0.5c0.1,0,0.1,0.1,0.2,0.1c0.1,0,0.2-0.1,0.3-0.2l0,0c0.1-0.2,0.1-0.4-0.1-0.5
		C-177.3,417.7-177.3,417.7-177.4,417.7L-177.4,417.7z M-176.2,415.8c-0.1,0-0.2,0.1-0.3,0.2c0,0,0,0,0,0c-0.1,0.2,0,0.4,0.1,0.5
		c0.1,0,0.1,0.1,0.2,0.1c0.1,0,0.2-0.1,0.3-0.2l0,0c0.1-0.2,0-0.4-0.1-0.5C-176.1,415.8-176.1,415.8-176.2,415.8L-176.2,415.8z
		 M-175.1,413.8c-0.1,0-0.3,0.1-0.3,0.2c0,0,0,0,0,0c0,0,0,0,0,0c-0.1,0.2,0,0.4,0.2,0.5c0.1,0,0.1,0,0.2,0c0.1,0,0.3-0.1,0.3-0.2
		l0,0c0.1-0.2,0-0.4-0.2-0.5C-175,413.8-175,413.8-175.1,413.8L-175.1,413.8z M-174.1,411.7c-0.1,0-0.3,0.1-0.3,0.2c0,0,0,0,0,0
		c0,0,0,0,0,0c0,0,0,0,0,0c0,0,0,0,0,0c0,0,0,0,0,0c-0.1,0.2,0,0.4,0.2,0.5c0,0,0.1,0,0.1,0c0.1,0,0.3-0.1,0.3-0.2l0,0
		c0.1-0.2,0-0.4-0.2-0.5C-174,411.7-174.1,411.7-174.1,411.7L-174.1,411.7z M-173.3,409.6c-0.1,0-0.3,0.1-0.3,0.2c0,0,0,0,0,0
		c-0.1,0.2,0,0.4,0.2,0.5c0,0,0.1,0,0.1,0c0.1,0,0.3-0.1,0.3-0.2l0,0c0.1-0.2,0-0.4-0.2-0.5C-173.2,409.6-173.3,409.6-173.3,409.6
		L-173.3,409.6z M-172.6,407.5c-0.2,0-0.3,0.1-0.4,0.3c0,0,0,0,0,0l0,0c-0.1,0.2,0.1,0.4,0.2,0.5c0,0,0.1,0,0.1,0
		c0.2,0,0.3-0.1,0.4-0.3l0,0c0.1-0.2-0.1-0.4-0.2-0.5C-172.5,407.5-172.6,407.5-172.6,407.5L-172.6,407.5z M-172,405.3
		c-0.2,0-0.3,0.1-0.4,0.3c0,0,0,0,0,0c0,0,0,0,0,0c0,0,0,0,0,0c0,0.2,0.1,0.4,0.3,0.4c0,0,0.1,0,0.1,0c0.2,0,0.3-0.1,0.4-0.3l0,0
		C-171.6,405.5-171.7,405.4-172,405.3C-172,405.3-172,405.3-172,405.3L-172,405.3z M-171.6,403.1c-0.2,0-0.3,0.1-0.4,0.3
		c0,0,0,0,0,0c0,0,0,0,0,0c0,0.2,0.1,0.4,0.3,0.4c0,0,0,0,0.1,0c0.2,0,0.3-0.1,0.4-0.3l0,0C-171.2,403.3-171.3,403.1-171.6,403.1
		C-171.5,403.1-171.6,403.1-171.6,403.1L-171.6,403.1z M-171.3,400.8c-0.2,0-0.3,0.1-0.4,0.3c0,0,0,0,0,0c0,0.2,0.1,0.4,0.3,0.4
		c0,0,0,0,0,0c0.2,0,0.3-0.1,0.4-0.3l0,0C-170.9,401-171.1,400.9-171.3,400.8C-171.3,400.8-171.3,400.8-171.3,400.8L-171.3,400.8z
		 M-171.1,398.6c-0.2,0-0.4,0.2-0.4,0.4c0,0,0,0,0,0c0,0,0,0,0,0c0,0.2,0.1,0.4,0.4,0.4c0,0,0,0,0,0c0.2,0,0.4-0.2,0.4-0.4l0,0
		C-170.8,398.8-170.9,398.6-171.1,398.6C-171.1,398.6-171.1,398.6-171.1,398.6L-171.1,398.6z M-171.1,396.3
		C-171.1,396.3-171.1,396.3-171.1,396.3c-0.2,0-0.4,0.2-0.4,0.4c0,0,0,0,0,0c0,0,0,0,0,0c0,0,0,0,0,0c0,0,0,0,0,0
		c0,0.2,0.2,0.4,0.4,0.4c0,0,0,0,0,0c0.2,0,0.4-0.2,0.4-0.4l0,0C-170.8,396.5-170.9,396.3-171.1,396.3L-171.1,396.3z M-171.2,394.1
		C-171.2,394.1-171.3,394.1-171.2,394.1c-0.2,0-0.4,0.2-0.4,0.4c0,0,0,0,0,0c0,0.2,0.2,0.3,0.4,0.3c0,0,0,0,0,0
		c0.2,0,0.4-0.2,0.3-0.4l0,0C-170.9,394.2-171.1,394.1-171.2,394.1L-171.2,394.1z M-171.5,391.8
		C-171.5,391.8-171.5,391.8-171.5,391.8c-0.3,0-0.4,0.2-0.4,0.4c0,0,0,0,0,0c0,0,0,0,0,0c0,0.2,0.2,0.3,0.4,0.3c0,0,0,0,0.1,0
		c0.2,0,0.3-0.2,0.3-0.4l0,0C-171.2,391.9-171.3,391.8-171.5,391.8L-171.5,391.8z M-171.9,389.6C-171.9,389.6-172,389.6-171.9,389.6
		c-0.3,0.1-0.4,0.2-0.4,0.4c0,0,0,0,0,0c0,0,0,0,0,0c0,0,0,0,0,0c0,0.2,0.2,0.3,0.4,0.3c0,0,0.1,0,0.1,0c0.2,0,0.3-0.2,0.3-0.4l0,0
		C-171.6,389.7-171.7,389.6-171.9,389.6L-171.9,389.6z M-172.5,387.4C-172.5,387.4-172.5,387.4-172.5,387.4
		c-0.3,0.1-0.4,0.3-0.4,0.5c0,0,0,0,0,0c0,0,0,0,0,0c0,0,0,0,0,0v0c0,0.2,0.2,0.3,0.4,0.3c0,0,0.1,0,0.1,0c0.2-0.1,0.3-0.3,0.3-0.5
		l0,0C-172.1,387.5-172.3,387.4-172.5,387.4L-172.5,387.4z M-173.1,385.2c0,0-0.1,0-0.1,0c-0.2,0.1-0.3,0.3-0.2,0.5c0,0,0,0,0,0
		c0,0,0,0,0,0c0.1,0.2,0.2,0.2,0.3,0.2c0,0,0.1,0,0.1,0c0.2-0.1,0.3-0.3,0.2-0.5l0,0C-172.8,385.3-173,385.2-173.1,385.2
		L-173.1,385.2z M-173.9,383.1c0,0-0.1,0-0.1,0c-0.2,0.1-0.3,0.3-0.2,0.5c0,0,0,0,0,0c0,0,0,0,0,0c0,0,0,0,0,0
		c0.1,0.1,0.2,0.2,0.3,0.2c0,0,0.1,0,0.1,0c0.2-0.1,0.3-0.3,0.2-0.5l0,0C-173.7,383.2-173.8,383.1-173.9,383.1L-173.9,383.1z
		 M-174.9,381.1c-0.1,0-0.1,0-0.2,0c-0.2,0.1-0.3,0.3-0.2,0.5c0,0,0,0,0,0c0.1,0.1,0.2,0.2,0.3,0.2c0.1,0,0.1,0,0.2,0
		c0.2-0.1,0.3-0.3,0.2-0.5l0,0C-174.6,381.1-174.8,381.1-174.9,381.1L-174.9,381.1z M-176,379.1c-0.1,0-0.1,0-0.2,0
		c-0.2,0.1-0.2,0.3-0.1,0.5c0,0,0,0,0,0c0,0,0,0,0,0c0.1,0.1,0.2,0.2,0.3,0.2c0.1,0,0.1,0,0.2,0c0.2-0.1,0.2-0.3,0.1-0.5l0,0
		C-175.7,379.1-175.8,379.1-176,379.1L-176,379.1z M-177.2,377.2c-0.1,0-0.1,0-0.2,0.1c-0.2,0.1-0.2,0.3-0.1,0.5c0,0,0,0,0,0
		c0,0,0,0,0,0c0,0,0,0,0,0c0,0,0,0,0,0c0.1,0.1,0.2,0.2,0.3,0.2c0.1,0,0.1,0,0.2-0.1c0.2-0.1,0.2-0.3,0.1-0.5l0,0
		C-176.9,377.2-177,377.2-177.2,377.2L-177.2,377.2z M-178.5,375.3c-0.1,0-0.2,0-0.2,0.1c-0.2,0.1-0.2,0.4-0.1,0.5c0,0,0,0,0,0
		c0,0,0,0,0,0c0.1,0.1,0.2,0.1,0.3,0.1c0.1,0,0.2,0,0.2-0.1c0.2-0.1,0.2-0.4,0.1-0.5l0,0C-178.2,375.4-178.4,375.3-178.5,375.3
		L-178.5,375.3z M-179.9,373.6c-0.1,0-0.2,0-0.2,0.1c-0.2,0.1-0.2,0.4,0,0.5c0,0,0,0,0,0c0,0,0,0,0,0c0.1,0.1,0.2,0.1,0.3,0.1
		c0.1,0,0.2,0,0.2-0.1c0.2-0.1,0.2-0.4,0-0.5l0,0C-179.7,373.6-179.8,373.6-179.9,373.6L-179.9,373.6z M-181.4,371.9
		c-0.1,0-0.2,0-0.3,0.1c-0.1,0.1-0.1,0.4,0,0.5c0,0,0,0,0,0c0,0,0,0,0,0l0,0c0,0,0,0,0,0c0.1,0.1,0.2,0.1,0.3,0.1
		c0.1,0,0.2,0,0.3-0.1c0.1-0.1,0.1-0.4,0-0.5l0,0C-181.2,371.9-181.3,371.9-181.4,371.9L-181.4,371.9z M-183,370.3
		c-0.1,0-0.2,0-0.3,0.1c-0.1,0.1-0.1,0.4,0,0.5c0,0,0,0,0,0c0,0,0,0,0,0c0,0,0,0,0,0c0.1,0.1,0.2,0.1,0.2,0.1c0.1,0,0.2,0,0.3-0.1
		c0.1-0.1,0.1-0.4,0-0.5l0,0C-182.9,370.3-182.9,370.3-183,370.3L-183,370.3z M-184.8,368.8c-0.1,0-0.2,0-0.3,0.1
		c-0.1,0.2-0.1,0.4,0.1,0.5c0,0,0,0,0,0c0,0,0,0,0,0c0,0,0,0,0,0c0.1,0.1,0.1,0.1,0.2,0.1c0.1,0,0.2,0,0.3-0.1
		c0.1-0.2,0.1-0.4-0.1-0.5l0,0C-184.6,368.9-184.7,368.8-184.8,368.8L-184.8,368.8z M-186.6,367.5c-0.1,0-0.2,0.1-0.3,0.2
		c-0.1,0.2-0.1,0.4,0.1,0.5c0,0,0,0,0,0c0,0,0,0,0,0c0,0,0,0,0,0c0,0,0,0,0,0c0.1,0,0.1,0.1,0.2,0.1c0.1,0,0.2-0.1,0.3-0.2
		c0.1-0.2,0.1-0.4-0.1-0.5l0,0C-186.4,367.5-186.5,367.5-186.6,367.5L-186.6,367.5z M-188.5,366.2c-0.1,0-0.2,0.1-0.3,0.2
		c-0.1,0.2-0.1,0.4,0.1,0.5c0,0,0,0,0,0c0,0,0,0,0,0c0.1,0,0.1,0.1,0.2,0.1c0.1,0,0.2-0.1,0.3-0.2c0.1-0.2,0.1-0.4-0.1-0.5l0,0
		C-188.3,366.3-188.4,366.2-188.5,366.2L-188.5,366.2z M-190.4,365.1c-0.1,0-0.3,0.1-0.3,0.2c-0.1,0.2,0,0.4,0.2,0.5c0,0,0,0,0,0
		c0,0,0,0,0,0c0.1,0,0.1,0,0.2,0c0.1,0,0.3-0.1,0.3-0.2c0.1-0.2,0-0.4-0.2-0.5l0,0C-190.3,365.1-190.4,365.1-190.4,365.1
		L-190.4,365.1z M-192.4,364.1c-0.1,0-0.3,0.1-0.3,0.2c-0.1,0.2,0,0.4,0.2,0.5c0,0,0,0,0,0c0,0,0,0,0,0c0,0,0,0,0,0c0,0,0.1,0,0.1,0
		c0.1,0,0.3-0.1,0.3-0.2c0.1-0.2,0-0.4-0.2-0.5l0,0C-192.3,364.1-192.4,364.1-192.4,364.1L-192.4,364.1z M-194.5,363.3
		c-0.1,0-0.3,0.1-0.3,0.2c-0.1,0.2,0,0.4,0.2,0.5c0,0,0,0,0,0c0,0,0.1,0,0.1,0c0.1,0,0.3-0.1,0.3-0.2c0.1-0.2,0-0.4-0.2-0.5l0,0
		C-194.5,363.3-194.5,363.3-194.5,363.3L-194.5,363.3z M-196.7,362.5c-0.2,0-0.3,0.1-0.3,0.3c-0.1,0.2,0,0.4,0.2,0.5c0,0,0,0,0,0
		c0,0,0,0,0,0c0,0,0.1,0,0.1,0c0.2,0,0.3-0.1,0.4-0.3c0.1-0.2,0-0.4-0.2-0.5l0,0C-196.6,362.5-196.6,362.5-196.7,362.5L-196.7,362.5
		z M-198.9,361.9c-0.2,0-0.3,0.1-0.4,0.3c0,0.2,0.1,0.4,0.3,0.4c0,0,0,0,0,0c0,0,0.1,0,0.1,0c0.2,0,0.3-0.1,0.4-0.3
		c0-0.2-0.1-0.4-0.3-0.4L-198.9,361.9C-198.8,361.9-198.8,361.9-198.9,361.9L-198.9,361.9z M-201.1,361.5c-0.2,0-0.3,0.1-0.4,0.3
		c0,0.2,0.1,0.4,0.3,0.4c0,0,0,0,0,0c0,0,0,0,0,0c0,0,0,0,0.1,0c0.2,0,0.3-0.1,0.4-0.3c0-0.2-0.1-0.4-0.3-0.4L-201.1,361.5
		C-201,361.5-201.1,361.5-201.1,361.5L-201.1,361.5z M-203.3,361.1c-0.2,0-0.3,0.1-0.4,0.3c0,0.2,0.1,0.4,0.3,0.4c0,0,0,0,0,0
		c0,0,0,0,0,0c0.2,0,0.3-0.1,0.4-0.3C-202.9,361.4-203,361.2-203.3,361.1L-203.3,361.1C-203.3,361.1-203.3,361.1-203.3,361.1
		L-203.3,361.1z M-205.6,361c-0.2,0-0.4,0.2-0.4,0.3c0,0.2,0.1,0.4,0.3,0.4c0,0,0,0,0,0c0,0,0,0,0,0c0.2,0,0.4-0.2,0.4-0.3
		C-205.1,361.1-205.3,361-205.6,361L-205.6,361C-205.6,361-205.6,361-205.6,361L-205.6,361z"/>
</g>
<g>
	<path class="st3" d="M-183.6,385.5c-0.2,0.1-0.3,0.1-0.3,0.1c-0.1,0-0.1,0-0.2,0c-0.1,0-0.2,0-0.3,0c-0.2,0-0.4-0.1-0.6-0.1
		c-0.3-0.1-0.6-0.2-0.9-0.3c-0.6-0.3-1-0.6-1.5-0.9c-0.9-0.6-1.8-1.3-2.7-2.1c-0.8-0.7-1.6-1.4-2.5-2c-0.9-0.6-1.9-1-2.9-0.8
		c-1,0.1-2,0.5-2.9,1.1c-0.8,0.6-1.5,1.4-2.1,2.3c-1.1,1.8-1.8,3.9-2.4,5.9c-1.2,4.1-1.7,8.4-1.4,12.7c0.1,2.1,0.5,4.3,1.2,6.2
		c0.4,1,0.8,2,1.4,2.9c0.6,0.9,1.3,1.7,2,2.4l0,0c0.1,0.1,0.2,0.4,0,0.5c-0.1,0.1-0.3,0.2-0.5,0c-0.9-0.7-1.7-1.5-2.3-2.4
		c-0.6-0.9-1.2-1.9-1.6-3c-0.8-2.1-1.3-4.3-1.5-6.5c-0.4-4.4,0.1-8.9,1.4-13.2c0.7-2.1,1.6-4.2,3-6c0.7-0.9,1.5-1.8,2.5-2.4
		c1-0.6,2-1,3.2-1.1c1.2-0.1,2.3,0.3,3.3,0.9c1,0.6,1.9,1.2,2.7,1.9c0.9,0.6,1.8,1.2,2.8,1.6c0.5,0.2,1,0.4,1.4,0.5
		c0.2,0.1,0.5,0.1,0.7,0.1c0.1,0,0.2,0,0.3,0c0,0,0.1,0,0.1,0c0,0,0,0,0,0c0,0,0,0-0.2,0c0.5-0.3,1.1-0.1,1.4,0.4
		C-182.9,384.6-183.1,385.2-183.6,385.5z"/>
	<path class="st3" d="M-232.2,383.6c0.2,0,0.7,0,1-0.1c0.4-0.1,0.8-0.2,1.2-0.4c0.8-0.3,1.5-0.8,2.2-1.3c1.5-1.1,3-2.1,4.7-3
		c1.7-0.9,3.6-1.5,5.5-1.3c2,0.1,3.8,1.4,4.9,3c1.1,1.6,1.5,3.6,1.7,5.4c0.2,1.9,0,3.8-0.2,5.6c-0.6,3.6-1.3,7.2-1.6,10.8
		c-0.2,1.8-0.2,3.6-0.1,5.4c0.1,1.8,0.4,3.6,1.3,5.1c0.8,1.6,2.3,2.7,4,3.1c1.7,0.4,3.6,0.5,5.3,0.3c3.6-0.4,6.9-2.8,7.8-5.8
		c0.3-0.7,0.3-1.5,0.3-2.3c0-0.8-0.1-1.5-0.5-2.2c-0.4-0.7-1-1.2-1.8-1.3c-0.8-0.1-1.6,0.2-1.9,0.7c-0.3,0.4-0.8,0.6-1.3,0.3
		c-0.4-0.3-0.6-0.8-0.3-1.3c0.1-0.1,0.2-0.2,0.3-0.3l0.1-0.1c2.2-1.2,4.5-0.5,6,1c0.7,0.8,1.2,1.9,1.3,2.9c0.1,1.1-0.1,2.1-0.5,3.1
		c-0.8,2-2.5,3.3-4.1,4.2c-1.7,0.9-3.6,1.3-5.4,1.5c-1.9,0.2-3.7,0.1-5.5-0.3c-1.9-0.4-3.5-1.7-4.4-3.4c-0.9-1.7-1.3-3.5-1.5-5.4
		c-0.2-1.8-0.2-3.7-0.1-5.5c0.2-3.7,0.8-7.3,1.4-10.9c0.2-1.8,0.4-3.6,0.3-5.3c-0.1-1.7-0.4-3.5-1.3-5c-0.9-1.5-2.4-2.5-4.1-2.6
		c-1.7-0.1-3.4,0.5-4.9,1.4c-1.6,0.9-3,2-4.4,3.1c-0.7,0.6-1.5,1.2-2.4,1.7c-0.4,0.2-0.9,0.5-1.4,0.6c-0.5,0.2-0.9,0.4-1.7,0.4l0,0
		c-0.6,0-1.1-0.4-1.1-1c0-0.6,0.4-1.1,1-1.1C-232.4,383.6-232.3,383.6-232.2,383.6z"/>
	<path class="st3" d="M-205,404.5c0-0.9,0.2-1.7,0.5-2.4c0.3-0.8,0.7-1.5,1.2-2.1c0.9-1.3,2.4-2.5,4.2-2.4c0.8,0,1.8,0.3,2.4,1
		c0.6,0.7,0.8,1.7,0.8,2.6c0,0.9-0.3,1.8-0.7,2.6c-0.4,0.8-1.1,1.5-2,2l-0.1,0.1c-0.5,0.3-1.2,0.1-1.5-0.4c-0.3-0.5-0.1-1.2,0.4-1.5
		c0.1-0.1,0.2-0.1,0.3-0.1c1.1-0.2,2.1-1.4,2.2-2.7c0.1-0.6,0-1.3-0.3-1.8c-0.3-0.5-1-0.8-1.7-0.8c-1.4-0.1-2.7,0.8-3.5,2
		c-0.8,1.2-1.4,2.7-1.2,4l0,0c0,0.3-0.2,0.6-0.5,0.6C-204.7,405.1-204.9,404.9-205,404.5C-205,404.6-205,404.5-205,404.5z"/>
	<path class="st3" d="M-199.4,380.4c1.4-1.5,3.5-2,5.5-2c2,0,3.9,0.5,5.8,1.1c1.8,0.6,3.7,1,5.5,1c1.8,0,3.8-0.3,5.4-1.2l0,0l0,0
		c0.1-0.1,0.3,0,0.3,0.1c0,0.1,0,0.1,0,0.2c-0.5,1.4-1.3,2.8-2.2,3.9c-0.5,0.6-1,1.1-1.7,1.6c-0.6,0.4-1.3,0.8-2.1,1l0,0l0.2-0.3
		c0.3,1.3,0.3,2.7-0.2,3.9c-0.3,0.6-0.7,1.2-1.2,1.6c-0.5,0.5-1.1,0.8-1.7,1l0,0l0.2-0.2c0.1,1.6-0.4,3.2-1.4,4.5
		c-1,1.3-2.6,2.1-4.2,2.3c-1.6,0.2-3.4-0.1-4.8-1.2c-0.4-0.2-0.6-0.6-0.9-0.9c-0.2-0.4-0.4-0.8-0.6-1.2c-0.1-0.4-0.2-0.8-0.2-1.3
		c0-0.4,0.1-0.9,0.2-1.3c0.6-1.7,2.4-2.8,4.2-2.5c1.8,0.3,3,2.3,2.2,4c-0.4,0.8-1.1,1.4-2,1.5c-0.9,0.1-1.8-0.4-2.1-1.3
		c-0.4-0.8,0-1.9,0.8-2.2c0.4-0.2,0.9-0.2,1.3,0c0.4,0.2,0.8,0.6,0.9,1.1l0,0.1c0.1,0.2-0.1,0.5-0.3,0.5c-0.2,0.1-0.5-0.1-0.5-0.3
		c0-0.1,0-0.1,0-0.2c0.1-0.5-0.6-1.1-1.2-0.7c-0.6,0.3-0.8,1-0.5,1.6c0.3,0.6,0.9,1,1.6,0.9c0.7-0.1,1.2-0.5,1.5-1.1
		c0.2-0.6,0.1-1.3-0.2-1.8c-0.3-0.5-0.9-0.9-1.6-1c-1.3-0.2-2.6,0.7-2.9,1.9c-0.2,0.6-0.1,1.2,0.1,1.9c0.1,0.3,0.3,0.6,0.4,0.9
		c0.2,0.2,0.4,0.5,0.7,0.7c1,0.8,2.5,1.1,3.8,0.9c1.4-0.2,2.7-0.8,3.6-1.8c1-1,1.5-2.4,1.7-3.8c0-0.1,0.1-0.2,0.2-0.2l0,0
		c0.5-0.3,1.1-0.6,1.5-1c0.4-0.4,0.8-0.9,1-1.4c0.5-1.1,0.5-2.4,0.3-3.5c0-0.1,0.1-0.3,0.2-0.3l0,0c0.7-0.2,1.3-0.5,1.9-0.9
		c0.6-0.4,1.1-0.9,1.6-1.5c0.9-1.1,1.6-2.4,2.1-3.8l0.4,0.3l0,0c-1.6,1.3-3.7,1.7-5.7,1.7c-2,0-3.9-0.5-5.8-1.1
		c-1.8-0.6-3.6-1.2-5.5-1.3c-1.8-0.1-3.8,0.3-5.2,1.5l0,0c-0.1,0.1-0.2,0.1-0.3,0C-199.5,380.6-199.5,380.5-199.4,380.4z"/>
	<path class="st3" d="M-216,378.6c-0.6-0.6-1.5-1-2.4-1.2c-0.9-0.2-1.9-0.2-2.8-0.1c-1.9,0.2-3.7,0.9-5.5,1.6
		c-1.8,0.7-3.5,1.6-5.3,2.4l-2.6,1.3c-0.4,0.2-0.9,0.4-1.4,0.6c-0.5,0.2-1,0.4-1.7,0.3l0,0l0.6-1c0.5,0.9,1.2,1.8,1.9,2.5
		c0.8,0.7,1.7,1.3,2.7,1.4l0,0c0.2,0,0.3,0.2,0.3,0.3l0,0c-0.2,0.7-0.4,1.4-0.5,2.1c-0.1,0.7-0.2,1.4-0.1,2c0.1,0.6,0.3,1.2,0.7,1.6
		c0.4,0.4,1.1,0.6,1.8,0.8l0,0l0.1,0c0.1,0,0.2,0.1,0.2,0.3c0.1,2.4,1.5,4.7,3.6,5.8c1,0.6,2.2,0.9,3.3,0.6c1.1-0.2,2-0.9,2.3-2.1
		c0.3-1-0.1-2.2-1.1-2.8c-0.9-0.6-2.3-0.3-2.8,0.7c-0.3,0.5-0.3,1.1,0,1.5c0.2,0.5,0.8,0.8,1.3,0.8c0.5,0,1-0.4,1.1-0.9
		c0.1-0.5-0.2-0.9-0.6-0.9c-0.3,0-0.5-0.2-0.5-0.5c0-0.3,0.2-0.5,0.5-0.5c0.1,0,0.1,0,0.2,0l0.1,0c0.8,0.3,1.3,1.3,1,2.1
		c-0.3,0.7-1,1.3-1.7,1.3c-0.8,0-1.4-0.4-1.8-1.1c-0.4-0.6-0.4-1.5,0-2.1c0.3-0.6,0.9-1.1,1.6-1.4c0.7-0.2,1.5-0.1,2.1,0.2
		c1.3,0.7,2,2.3,1.6,3.7c-0.1,0.3-0.3,0.7-0.4,1c-0.2,0.3-0.4,0.6-0.7,0.8c-0.5,0.5-1.2,0.9-1.9,0.9c-1.4,0.2-2.8-0.1-4-0.8
		c-1.2-0.7-2.1-1.6-2.8-2.8c-0.7-1.2-0.9-2.5-0.9-3.8l0.3,0.3l0,0c-0.8,0-1.6,0-2.4-0.5c-0.7-0.5-1.1-1.4-1.2-2.2
		c-0.1-1.6,0.4-3.1,1.2-4.4l0.2,0.4l0,0c-1.2,0-2.4-0.5-3.3-1.2c-0.5-0.4-0.9-0.8-1.3-1.2c-0.4-0.4-0.8-0.9-1.1-1.4
		c-0.2-0.3-0.1-0.7,0.1-0.8c0.1-0.1,0.2-0.1,0.3-0.1l0.2,0l0,0c0.2,0,0.7-0.1,1.1-0.2c0.4-0.1,0.9-0.3,1.3-0.5l2.6-1.2
		c1.8-0.8,3.6-1.6,5.4-2.3c1.8-0.7,3.7-1.3,5.7-1.5c2-0.1,4.2,0.1,5.7,1.6c0.1,0.1,0.1,0.3,0,0.4
		C-215.7,378.8-215.9,378.8-216,378.6L-216,378.6z"/>
	<path class="st3" d="M-201.7,384.8c-0.6,1.8-0.8,3.8-0.6,5.7c0.2,1.9,1,3.7,2.4,5l0,0c0.2,0.1,0.2,0.4,0,0.5c0,0-0.1,0.1-0.1,0.1
		l-0.1,0l-2.4,1.4c-0.2,0.1-0.4,0.1-0.5,0c-0.5-0.3-0.8-0.5-1.1-0.9c-0.3-0.3-0.5-0.7-0.7-1.1c-0.4-0.8-0.5-1.6-0.4-2.5
		c0-0.2,0.2-0.3,0.3-0.3c0.2,0,0.3,0.1,0.3,0.3c0.1,0.7,0.3,1.4,0.6,2c0.2,0.3,0.4,0.5,0.7,0.8c0.2,0.2,0.6,0.4,0.8,0.5l-0.5,0
		l2.6-0.9l-0.1,0.6l0,0c-1.5-1.4-2.4-3.4-2.6-5.5c-0.1-1-0.1-2,0-3c0.1-1,0.3-2,0.7-3c0.1-0.2,0.2-0.3,0.4-0.2
		C-201.7,384.4-201.6,384.6-201.7,384.8L-201.7,384.8z"/>
	<path class="st3" d="M-201.1,393.5c-0.3,0.3-0.5,0.4-0.8,0.6c-0.3,0.2-0.6,0.3-0.9,0.4c-0.6,0.2-1.2,0.3-1.9,0.4
		c-0.1,0-0.3-0.1-0.3-0.3c0-0.1,0.1-0.3,0.2-0.3c0.6-0.1,1.1-0.3,1.6-0.5c0.3-0.1,0.5-0.3,0.7-0.4c0.2-0.2,0.4-0.4,0.6-0.5l0,0
		c0.2-0.2,0.5-0.2,0.7-0.1C-200.9,393-200.9,393.3-201.1,393.5C-201,393.5-201.1,393.5-201.1,393.5z"/>
	<path class="st3" d="M-212.2,381.8c0.2,1.6-0.1,3.1-0.4,4.6c-0.3,1.5-0.7,3-1.3,4.4c-0.5,1.4-1.2,2.9-2,4.2
		c-0.9,1.3-1.9,2.6-3.6,3.2l0.1-0.8c0.7,0.4,1.6,0.5,2.4,0.4c0.8-0.1,1.6-0.5,2.2-1.1c1.2-1.2,2-3,2.5-4.7c0-0.1,0.2-0.2,0.3-0.2
		c0.1,0,0.2,0.2,0.2,0.3c-0.5,1.8-1.1,3.7-2.5,5.1c-0.7,0.7-1.6,1.3-2.6,1.4c-1,0.2-2,0-3-0.5c-0.2-0.1-0.3-0.4-0.2-0.6
		c0.1-0.1,0.1-0.2,0.2-0.2l0,0c1.3-0.5,2.3-1.6,3.1-2.9c0.8-1.2,1.5-2.6,2-4c0.5-1.4,1-2.8,1.4-4.3c0.3-1.5,0.7-3,0.6-4.4l0,0
		c0-0.1,0.1-0.3,0.2-0.3C-212.3,381.5-212.2,381.6-212.2,381.8z"/>
	<path class="st3" d="M-213.9,390c-0.2,1-0.6,1.8-1,2.6l-0.1-0.4c0.4,0.2,0.9,0.4,1.4,0.5c0.5,0.1,1,0.1,1.5,0c0.1,0,0.2,0,0.2,0.1
		c0,0.1,0,0.2-0.1,0.2c-0.5,0.3-1.1,0.3-1.7,0.3c-0.6-0.1-1.1-0.3-1.6-0.5c-0.1-0.1-0.2-0.3-0.1-0.4l0,0l0,0
		c0.4-0.8,0.8-1.6,1.2-2.4l0,0c0-0.1,0.1-0.1,0.2-0.1C-213.9,389.9-213.9,389.9-213.9,390z"/>
	<path class="st3" d="M-209.4,415.8c-2.7-1.2-5-3.2-6.8-5.6c-1.7-2.2-4.2-3.8-7-4.2c-1.4-0.2-2.8-0.2-4.1,0.1
		c-1.4,0.3-2.7,0.7-3.7,1.5c-2.1,1.6-2.8,4.8-1.3,7.1c0.7,1.1,1.8,2,3.1,2.5c1.3,0.5,2.7,0.8,4.1,1.1c2.8,0.6,5.7,0.9,8.6,1.2
		c2.9,0.3,5.8,0.4,8.7,0.8c0.7,0.1,1.5,0.3,2.2,0.7c0.7,0.4,1.3,1.1,1.6,2c0.2,0.8,0.1,1.8-0.4,2.6c-0.5,0.8-1.4,1.2-2.3,1.2l0,0
		c-1.6,0.3-3.3-0.8-3.6-2.4c-0.1-0.8,0.1-1.6,0.5-2.2c0.5-0.6,1.3-1,2-0.9c0.8,0.1,1.5,0.5,1.8,1.2c0.3,0.7,0.2,1.6-0.3,2.1
		c-0.5,0.6-1.5,0.8-2.2,0.3c-0.8-0.4-1.1-1.6-0.5-2.5l0.1-0.2c0.2-0.3,0.7-0.4,1-0.2c0.3,0.2,0.4,0.7,0.2,1
		c-0.1,0.1-0.2,0.2-0.3,0.2c-0.3,0.1-0.4,0.7-0.1,1c0.4,0.4,1,0.4,1.5,0c0.4-0.4,0.5-1.1,0.3-1.6c-0.2-0.5-0.8-0.9-1.4-0.9
		c-1.2-0.1-2.1,1.3-1.7,2.4c0.3,1.1,1.6,1.7,2.6,1.5l0,0l0,0c1.2-0.1,2.1-1.3,1.7-2.4c-0.1-0.6-0.5-1-1.1-1.4
		c-0.5-0.4-1.2-0.5-1.9-0.7c-2.8-0.6-5.7-0.9-8.6-1.2c-2.9-0.3-5.8-0.6-8.7-1.1c-1.4-0.2-2.9-0.5-4.3-1c-1.4-0.5-2.8-1.5-3.7-2.8
		c-0.9-1.3-1.3-3-1-4.6c0.3-1.6,1.1-3,2.4-4.1c0.3-0.3,0.7-0.5,1-0.7c0.3-0.2,0.7-0.3,1.1-0.5c0.7-0.3,1.5-0.5,2.2-0.6
		c1.5-0.3,3.1-0.3,4.6,0c3,0.5,5.8,2.4,7.5,4.8c1.7,2.3,3.7,4.4,6.3,5.7l0,0c0.1,0.1,0.1,0.2,0.1,0.3
		C-209.2,415.8-209.3,415.9-209.4,415.8z"/>
	<path class="st3" d="M-195.5,404.4c0.4-0.8,0.9-1.6,1.4-2.2c0.6-0.7,1.2-1.3,1.8-1.9c1.3-1.1,2.8-2.1,4.5-2.8
		c1.7-0.7,3.6-1,5.5-0.6c1.8,0.3,3.8,1.5,4.7,3.3c1,1.8,1,3.8,0.7,5.6c-0.4,1.8-1.2,3.5-2.4,4.9c-0.6,0.7-1.3,1.3-2,1.8
		c-0.7,0.5-1.4,1-2.2,1.4c-1.5,0.9-3,1.6-4.6,2.3c-3.1,1.4-6.2,2.5-9.1,4.2c-1.4,0.8-2.7,1.8-3.5,3.2c-0.4,0.7-0.6,1.4-0.6,2.2
		c0,0.7,0.4,1.5,0.9,2c0.5,0.5,1.3,0.8,2,0.8c0.7,0,1.4-0.5,1.8-1.1c0.4-0.6,0.5-1.4,0.2-2.1c-0.3-0.7-1-1.1-1.7-1.1
		c-0.7-0.1-1.3,0.4-1.6,1c-0.3,0.6,0,1.3,0.5,1.6c0.5,0.3,1.2,0.2,1.5-0.3c0.1-0.2,0.1-0.6,0-0.7c-0.1-0.1-0.3-0.2-0.5-0.1
		c-0.3,0-0.6-0.2-0.7-0.5c0-0.3,0.2-0.6,0.5-0.7c0,0,0,0,0,0l0,0c0.5-0.1,1.3,0.2,1.6,0.8c0.3,0.6,0.2,1.2-0.1,1.7
		c-0.3,0.5-0.8,0.9-1.3,1c-0.6,0.1-1.1,0-1.6-0.3c-0.9-0.6-1.2-1.9-0.8-2.8c0.4-0.9,1.4-1.6,2.4-1.4c1,0.1,1.9,0.7,2.2,1.6
		c0.4,0.9,0.2,1.9-0.3,2.7c-0.5,0.8-1.4,1.3-2.3,1.4c-0.9,0.1-1.9-0.3-2.5-0.9c-0.7-0.6-1.1-1.5-1.2-2.4c-0.1-0.9,0.2-1.8,0.6-2.6
		c0.9-1.6,2.3-2.7,3.7-3.6c2.9-1.8,6-3.2,9-4.7c1.5-0.7,2.9-1.5,4.3-2.4c1.3-0.9,2.7-1.8,3.6-3c0.9-1.2,1.6-2.6,1.9-4.1
		c0.3-1.5,0.2-3-0.5-4.2c-0.6-1.2-1.8-2-3.3-2.3c-1.4-0.3-2.9-0.2-4.4,0.3c-1.5,0.5-2.9,1.2-4.2,2.2c-1.3,0.9-2.6,2-3.5,3.3l0,0
		c-0.1,0.2-0.3,0.2-0.5,0.1C-195.5,404.7-195.6,404.6-195.5,404.4z"/>
	<g>
		<path class="st3" d="M-192.8,378.9C-192.8,378.9-192.9,378.9-192.8,378.9c-0.4,0-0.7-0.2-0.9-0.4c-0.2-0.2-0.3-0.6-0.3-0.9
			c0-0.3,0.2-0.6,0.4-0.8c0.2-0.2,0.6-0.3,0.9-0.3c0.3,0,0.6,0.2,0.8,0.4c0.2,0.2,0.3,0.6,0.3,0.9v0
			C-191.6,378.4-192.2,378.9-192.8,378.9z M-192.8,377c-0.2,0-0.3,0.1-0.5,0.2c-0.1,0.1-0.2,0.3-0.2,0.5c0,0.2,0,0.4,0.2,0.5
			c0.1,0.1,0.3,0.2,0.5,0.2c0.4,0,0.7-0.3,0.8-0.7c0-0.2-0.1-0.4-0.2-0.5C-192.4,377.1-192.6,377-192.8,377
			C-192.8,377-192.8,377-192.8,377z M-191.8,377.8L-191.8,377.8L-191.8,377.8z"/>
	</g>
	<g>
		<path class="st3" d="M-190.8,379.3C-190.8,379.3-190.8,379.3-190.8,379.3c-0.4,0-0.7-0.2-0.9-0.4c-0.2-0.2-0.3-0.6-0.3-0.9
			c0-0.3,0.2-0.6,0.4-0.8c0.2-0.2,0.6-0.3,0.9-0.3c0.7,0,1.2,0.6,1.1,1.3v0C-189.6,378.8-190.1,379.3-190.8,379.3z M-190.8,377.3
			c-0.2,0-0.3,0.1-0.5,0.2c-0.1,0.1-0.2,0.3-0.2,0.5c0,0.2,0.1,0.4,0.2,0.5c0.1,0.1,0.3,0.2,0.5,0.2c0.4,0,0.7-0.3,0.8-0.7
			C-190,377.7-190.3,377.4-190.8,377.3C-190.7,377.3-190.7,377.3-190.8,377.3z M-189.8,378.1L-189.8,378.1L-189.8,378.1z"/>
	</g>
	<g>
		<path class="st3" d="M-188.8,379.8C-188.8,379.8-188.8,379.8-188.8,379.8c-0.8,0-1.3-0.6-1.2-1.3c0-0.7,0.6-1.2,1.3-1.1
			c0.7,0,1.2,0.6,1.1,1.3c0,0.3-0.2,0.6-0.4,0.8C-188.2,379.7-188.5,379.8-188.8,379.8z M-188.8,377.9c-0.4,0-0.7,0.3-0.7,0.7
			c0,0.2,0.1,0.4,0.2,0.5c0.1,0.1,0.3,0.2,0.5,0.2c0.2,0,0.4-0.1,0.5-0.2c0.1-0.1,0.2-0.3,0.2-0.5l0,0
			C-188,378.3-188.3,377.9-188.8,377.9C-188.7,377.9-188.7,377.9-188.8,377.9z"/>
	</g>
	<g>
		<path class="st3" d="M-186.8,380.4C-186.9,380.4-186.9,380.4-186.8,380.4c-0.8,0-1.3-0.6-1.2-1.3c0-0.3,0.2-0.6,0.4-0.8
			c0.2-0.2,0.6-0.3,0.9-0.3c0.7,0,1.2,0.6,1.1,1.3l0,0c0,0.3-0.2,0.6-0.4,0.8C-186.3,380.3-186.5,380.4-186.8,380.4z M-186.8,378.5
			c-0.2,0-0.3,0.1-0.5,0.2c-0.1,0.1-0.2,0.3-0.2,0.5c0,0.4,0.3,0.7,0.7,0.8c0.2,0,0.4-0.1,0.5-0.2c0.1-0.1,0.2-0.3,0.2-0.5
			C-186.1,378.8-186.4,378.5-186.8,378.5C-186.8,378.5-186.8,378.5-186.8,378.5z M-185.9,379.2L-185.9,379.2L-185.9,379.2z"/>
	</g>
	<g>
		<path class="st3" d="M-184.8,380.9C-184.9,380.9-184.9,380.9-184.8,380.9c-0.4,0-0.7-0.2-0.9-0.4c-0.2-0.2-0.3-0.6-0.3-0.9
			c0-0.7,0.6-1.2,1.3-1.1c0.7,0,1.2,0.6,1.1,1.3v0C-183.6,380.4-184.2,380.9-184.8,380.9z M-184.8,378.9c-0.4,0-0.7,0.3-0.7,0.7
			c0,0.2,0.1,0.4,0.2,0.5c0.1,0.1,0.3,0.2,0.5,0.2c0.4,0,0.7-0.3,0.8-0.7C-184.1,379.3-184.4,378.9-184.8,378.9
			C-184.8,378.9-184.8,378.9-184.8,378.9z M-183.9,379.7L-183.9,379.7L-183.9,379.7z"/>
	</g>
	<g>
		<path class="st3" d="M-182.8,381.2C-182.8,381.2-182.8,381.2-182.8,381.2c-0.4,0-0.7-0.2-0.9-0.4c-0.2-0.2-0.3-0.6-0.3-0.9
			c0-0.3,0.2-0.6,0.4-0.8c0.2-0.2,0.6-0.3,0.9-0.3c0.7,0,1.2,0.6,1.1,1.3v0C-181.6,380.7-182.1,381.2-182.8,381.2z M-182.8,379.2
			c-0.2,0-0.3,0.1-0.5,0.2c-0.1,0.1-0.2,0.3-0.2,0.5c0,0.2,0.1,0.4,0.2,0.5c0.1,0.1,0.3,0.2,0.5,0.2c0.4,0,0.7-0.3,0.8-0.7
			C-182,379.6-182.3,379.2-182.8,379.2C-182.7,379.2-182.7,379.2-182.8,379.2z M-181.8,380L-181.8,380L-181.8,380z"/>
	</g>
	<g>
		<path class="st3" d="M-180.8,381.1C-180.8,381.1-180.8,381.1-180.8,381.1c-0.8,0-1.3-0.6-1.2-1.3c0-0.3,0.2-0.6,0.4-0.8
			c0.2-0.2,0.6-0.3,0.9-0.3c0.7,0,1.2,0.6,1.1,1.3c0,0.3-0.2,0.6-0.4,0.8C-180.2,381-180.5,381.1-180.8,381.1z M-180.8,379.2
			c-0.2,0-0.3,0.1-0.5,0.2c-0.1,0.1-0.2,0.3-0.2,0.5c0,0.4,0.3,0.7,0.7,0.8c0.2,0,0.4-0.1,0.5-0.2c0.1-0.1,0.2-0.3,0.2-0.5
			C-180,379.5-180.3,379.2-180.8,379.2C-180.7,379.2-180.8,379.2-180.8,379.2z"/>
	</g>
	<g>
		<path class="st3" d="M-178.9,380.6C-178.9,380.6-178.9,380.6-178.9,380.6c-0.8,0-1.3-0.6-1.2-1.3c0-0.3,0.2-0.6,0.4-0.8
			c0.2-0.2,0.6-0.3,0.9-0.3c0.7,0,1.2,0.6,1.1,1.3v0C-177.7,380.1-178.2,380.6-178.9,380.6z M-178.9,378.7c-0.2,0-0.3,0.1-0.5,0.2
			c-0.1,0.1-0.2,0.3-0.2,0.5c0,0.4,0.3,0.7,0.7,0.8c0.4,0,0.7-0.3,0.8-0.7C-178.1,379.1-178.4,378.7-178.9,378.7
			C-178.8,378.7-178.9,378.7-178.9,378.7z M-177.9,379.5L-177.9,379.5L-177.9,379.5z"/>
	</g>
	<g>
		<path class="st3" d="M-194.8,378.8C-194.8,378.8-194.8,378.8-194.8,378.8c-0.8,0-1.3-0.6-1.2-1.3c0-0.7,0.6-1.2,1.3-1.1
			c0.3,0,0.6,0.2,0.8,0.4c0.2,0.2,0.3,0.6,0.3,0.9c0,0.3-0.2,0.6-0.4,0.8C-194.2,378.7-194.5,378.8-194.8,378.8z M-194.8,376.9
			c-0.4,0-0.7,0.3-0.7,0.7c0,0.2,0.1,0.4,0.2,0.5c0.1,0.1,0.3,0.2,0.5,0.2c0.2,0,0.4-0.1,0.5-0.2c0.1-0.1,0.2-0.3,0.2-0.5v0
			c0-0.2,0-0.4-0.2-0.5C-194.4,377-194.5,376.9-194.8,376.9C-194.7,376.9-194.8,376.9-194.8,376.9z"/>
	</g>
	<g>
		<path class="st3" d="M-219.2,377.1C-219.2,377.1-219.2,377.1-219.2,377.1c-0.8,0-1.3-0.6-1.2-1.3c0-0.3,0.2-0.6,0.4-0.8
			c0.2-0.2,0.6-0.3,0.9-0.3c0.7,0,1.2,0.6,1.1,1.3l0,0c0,0.3-0.2,0.6-0.4,0.8C-218.6,376.9-218.9,377.1-219.2,377.1z M-219.2,375.1
			c-0.2,0-0.3,0.1-0.5,0.2c-0.1,0.1-0.2,0.3-0.2,0.5c0,0.4,0.3,0.7,0.7,0.8c0.2,0,0.4-0.1,0.5-0.2c0.1-0.1,0.2-0.3,0.2-0.5
			C-218.4,375.5-218.7,375.1-219.2,375.1C-219.1,375.1-219.1,375.1-219.2,375.1z M-218.2,375.9L-218.2,375.9L-218.2,375.9z"/>
	</g>
	<g>
		<path class="st3" d="M-221.1,377.2C-221.2,377.2-221.2,377.2-221.1,377.2c-0.4,0-0.7-0.2-0.9-0.4c-0.2-0.2-0.3-0.6-0.3-0.9
			c0-0.3,0.2-0.6,0.4-0.8c0.2-0.2,0.6-0.3,0.9-0.3c0.7,0,1.2,0.6,1.1,1.3v0C-220,376.7-220.5,377.2-221.1,377.2z M-221.1,375.2
			c-0.2,0-0.3,0.1-0.5,0.2c-0.1,0.1-0.2,0.3-0.2,0.5c0,0.2,0.1,0.4,0.2,0.5c0.1,0.1,0.3,0.2,0.5,0.2c0.4,0,0.7-0.3,0.8-0.7
			c0-0.2-0.1-0.4-0.2-0.5C-220.7,375.3-220.9,375.2-221.1,375.2C-221.1,375.2-221.1,375.2-221.1,375.2z M-220.2,376L-220.2,376
			L-220.2,376z"/>
	</g>
	<g>
		<path class="st3" d="M-223.1,377.5C-223.1,377.5-223.2,377.5-223.1,377.5c-0.8,0-1.3-0.6-1.2-1.3c0-0.7,0.6-1.2,1.3-1.1
			c0.3,0,0.6,0.2,0.8,0.4c0.2,0.2,0.3,0.6,0.3,0.9c0,0.3-0.2,0.6-0.4,0.8C-222.5,377.4-222.8,377.5-223.1,377.5z M-223.1,375.5
			c-0.4,0-0.7,0.3-0.7,0.7c0,0.2,0.1,0.4,0.2,0.5c0.1,0.1,0.3,0.2,0.5,0.2c0.2,0,0.4-0.1,0.5-0.2c0.1-0.1,0.2-0.3,0.2-0.5v0
			c0-0.2-0.1-0.4-0.2-0.5C-222.7,375.6-222.9,375.5-223.1,375.5C-223.1,375.5-223.1,375.5-223.1,375.5z"/>
	</g>
	<g>
		<path class="st3" d="M-225,377.9C-225,377.9-225.1,377.9-225,377.9c-0.8,0-1.3-0.6-1.2-1.3c0-0.3,0.2-0.6,0.4-0.8
			c0.2-0.2,0.6-0.3,0.9-0.3c0.7,0,1.2,0.6,1.1,1.3l0,0c0,0.3-0.2,0.6-0.4,0.8C-224.4,377.8-224.7,377.9-225,377.9z M-225,376
			c-0.2,0-0.3,0.1-0.5,0.2c-0.1,0.1-0.2,0.3-0.2,0.5c0,0.4,0.3,0.7,0.7,0.8c0.2,0,0.4-0.1,0.5-0.2c0.1-0.1,0.2-0.3,0.2-0.5
			C-224.3,376.4-224.6,376-225,376C-225,376-225,376-225,376z M-224,376.8L-224,376.8L-224,376.8z"/>
	</g>
	<g>
		<path class="st3" d="M-226.9,378.7C-226.9,378.7-226.9,378.7-226.9,378.7c-0.4,0-0.7-0.2-0.9-0.4c-0.2-0.2-0.3-0.6-0.3-0.9
			c0-0.7,0.6-1.2,1.3-1.1c0.7,0,1.2,0.6,1.1,1.3v0C-225.7,378.2-226.2,378.7-226.9,378.7z M-226.9,376.7c-0.4,0-0.7,0.3-0.7,0.7
			c0,0.2,0.1,0.4,0.2,0.5c0.1,0.1,0.3,0.2,0.5,0.2c0.4,0,0.7-0.3,0.8-0.7C-226.1,377.1-226.4,376.7-226.9,376.7
			C-226.8,376.7-226.8,376.7-226.9,376.7z M-225.9,377.5L-225.9,377.5L-225.9,377.5z"/>
	</g>
	<g>
		<path class="st3" d="M-228.7,379.5C-228.7,379.5-228.8,379.5-228.7,379.5c-0.8,0-1.3-0.6-1.2-1.3c0-0.7,0.6-1.2,1.3-1.1
			c0.3,0,0.6,0.2,0.8,0.4c0.2,0.2,0.3,0.6,0.3,0.9l0,0c0,0.3-0.2,0.6-0.4,0.8C-228.1,379.4-228.4,379.5-228.7,379.5z M-228.7,377.6
			c-0.4,0-0.7,0.3-0.7,0.7c0,0.4,0.3,0.7,0.7,0.8c0.2,0,0.4-0.1,0.5-0.2c0.1-0.1,0.2-0.3,0.2-0.5v0c0-0.2,0-0.4-0.2-0.5
			C-228.3,377.7-228.5,377.6-228.7,377.6C-228.7,377.6-228.7,377.6-228.7,377.6z"/>
	</g>
	<g>
		<path class="st3" d="M-230.6,380.3C-230.6,380.3-230.7,380.3-230.6,380.3c-0.8,0-1.3-0.6-1.2-1.3c0-0.3,0.2-0.6,0.4-0.8
			c0.2-0.2,0.6-0.3,0.9-0.3c0.7,0,1.2,0.6,1.1,1.3c0,0.3-0.2,0.6-0.4,0.8C-230,380.2-230.3,380.3-230.6,380.3z M-230.6,378.4
			c-0.2,0-0.3,0.1-0.5,0.2c-0.1,0.1-0.2,0.3-0.2,0.5c0,0.4,0.3,0.7,0.7,0.8c0.2,0,0.4,0,0.5-0.2c0.1-0.1,0.2-0.3,0.2-0.5
			C-229.9,378.8-230.2,378.4-230.6,378.4C-230.6,378.4-230.6,378.4-230.6,378.4z"/>
	</g>
	<g>
		<path class="st3" d="M-232.4,381C-232.4,381-232.5,381-232.4,381c-0.4,0-0.7-0.2-0.9-0.4c-0.2-0.2-0.3-0.6-0.3-0.9
			c0-0.3,0.2-0.6,0.4-0.8c0.2-0.2,0.6-0.3,0.9-0.3c0.7,0,1.2,0.6,1.1,1.3v0C-231.2,380.5-231.8,381-232.4,381z M-232.4,379.1
			c-0.2,0-0.3,0.1-0.5,0.2c-0.1,0.1-0.2,0.3-0.2,0.5c0,0.2,0,0.4,0.2,0.5c0.1,0.1,0.3,0.2,0.5,0.2c0.4,0,0.7-0.3,0.8-0.7
			c0-0.2-0.1-0.4-0.2-0.5C-232,379.2-232.2,379.1-232.4,379.1C-232.4,379.1-232.4,379.1-232.4,379.1z M-231.5,379.8L-231.5,379.8
			L-231.5,379.8z"/>
	</g>
	<g>
		<path class="st3" d="M-234.1,381.9C-234.1,381.9-234.2,381.9-234.1,381.9c-0.8,0-1.3-0.6-1.2-1.3c0-0.7,0.6-1.2,1.3-1.1
			c0.7,0,1.2,0.6,1.1,1.3l0,0c0,0.3-0.2,0.6-0.4,0.8C-233.5,381.8-233.8,381.9-234.1,381.9z M-234.1,380c-0.4,0-0.7,0.3-0.7,0.7
			c0,0.4,0.3,0.7,0.7,0.8c0.2,0,0.4-0.1,0.5-0.2c0.1-0.1,0.2-0.3,0.2-0.5C-233.4,380.4-233.7,380-234.1,380
			C-234.1,380-234.1,380-234.1,380z M-233.1,380.8L-233.1,380.8L-233.1,380.8z"/>
	</g>
	<g>
		<path class="st3" d="M-235.9,382.8C-235.9,382.8-235.9,382.8-235.9,382.8c-0.4,0-0.7-0.2-0.9-0.4c-0.2-0.2-0.3-0.6-0.3-0.9
			c0-0.3,0.2-0.6,0.4-0.8c0.2-0.2,0.6-0.3,0.9-0.3c0.3,0,0.6,0.2,0.8,0.4s0.3,0.6,0.3,0.9v0C-234.7,382.3-235.2,382.8-235.9,382.8z
			 M-235.9,380.9c-0.2,0-0.3,0.1-0.5,0.2c-0.1,0.1-0.2,0.3-0.2,0.5c0,0.2,0,0.4,0.2,0.5c0.1,0.1,0.3,0.2,0.5,0.2
			c0.4,0,0.7-0.3,0.8-0.7c0-0.2-0.1-0.4-0.2-0.5C-235.4,381-235.6,380.9-235.9,380.9C-235.8,380.9-235.8,380.9-235.9,380.9z
			 M-234.9,381.6L-234.9,381.6L-234.9,381.6z"/>
	</g>
	<path class="st3" d="M-199,374.4c-0.7,0-1.3,0-1.9,0l0.2-0.1c-0.3,1.2-0.9,2.4-1.9,3.3c-1,0.9-2.3,1.4-3.7,1.3
		c-1.4-0.1-2.6-0.8-3.5-1.8c-0.9-1-1.3-2.3-1.5-3.5l0.2,0.2l-2-0.2l0.2-0.2c0.4,1.7,1,3.3,2.2,4.6c1.1,1.2,2.7,2,4.3,2.1
		c1.6,0.1,3.3-0.5,4.6-1.6C-200.5,377.4-199.7,375.8-199,374.4z M-198.7,374.2c-0.3,2-1.3,3.6-2.6,4.9c-1.4,1.3-3.3,2-5.2,1.9
		c-1.9-0.1-3.7-1.1-4.9-2.5c-1.2-1.5-1.8-3.3-1.9-5.1c0-0.1,0.1-0.2,0.1-0.2l0,0l2,0.1c0.1,0,0.2,0.1,0.2,0.1l0,0
		c0.3,1.2,0.8,2.3,1.6,3.1c0.8,0.8,1.9,1.4,3,1.5c1.1,0.1,2.3-0.3,3.2-1.1c0.9-0.7,1.6-1.8,2-2.9l0,0c0-0.1,0.1-0.1,0.2-0.1
		C-200.1,374-199.4,374.1-198.7,374.2z"/>
	<path class="st3" d="M-203.7,373.9c0.1,0.5,0.1,1.2-0.1,1.7c-0.3,0.6-0.8,1-1.4,1.2c-0.6,0.1-1.3,0-1.8-0.4c-0.5-0.4-0.9-1-1-1.6
		c-0.2-1.2,0.7-2.4,1.8-2.6C-205.2,372.1-204,372.8-203.7,373.9z M-204.1,374c-0.1-0.4-0.3-0.9-0.7-1.1c-0.4-0.2-0.9-0.3-1.3-0.2
		c-0.4,0.1-0.8,0.4-1,0.8c-0.2,0.4-0.2,0.8-0.1,1.2c0.2,0.8,1.1,1.2,1.8,1c0.3-0.1,0.7-0.2,1-0.5
		C-204.3,374.9-204.1,374.4-204.1,374z"/>
</g>
</svg>
