<?xml version="1.0" encoding="utf-8"?>
<!-- Generator: Adobe Illustrator 19.0.0, SVG Export Plug-In . SVG Version: 6.00 Build 0)  -->
<svg version="1.1" id="Layer_1" xmlns="http://www.w3.org/2000/svg" xmlns:xlink="http://www.w3.org/1999/xlink" x="0px" y="0px"
	 viewBox="-256 348 98 98" style="enable-background:new -256 348 98 98;" xml:space="preserve">
<style type="text/css">
	.st0{fill:#5E0040;}
	.st1{fill:#F0F0F0;}
	.st2{fill:#FF2D00;}
</style>
<path class="st0" d="M-162.6,411.2c-0.1-0.4-0.2-0.9-0.3-1.3c-0.1-0.4-0.3-0.9-0.4-1.3c-0.2-0.4-0.4-0.9-0.6-1.3
	c-0.2-0.4-0.4-0.8-0.7-1.2c-0.3-0.4-0.6-0.7-0.9-1c-0.6-0.6-1.4-1.1-2.2-1.5c-0.4-0.2-0.7-0.3-1.2-0.3c0,0,0,0,0,0c0,0,0,0,0,0
	c0.4,0,0.8,0,1.2,0c0.9-0.1,1.7-0.4,2.5-0.8c0.4-0.2,0.8-0.5,1.1-0.7c0.3-0.3,0.7-0.6,1-0.9c0.3-0.3,0.6-0.7,0.9-1.1
	c0.3-0.4,0.5-0.8,0.8-1.1c0.2-0.4,0.5-0.8,0.7-1.2c0.2-0.4,0.4-0.8,0.5-1.1c0.7-1.5,1-2.8,1.3-3.2l0,0c-0.3-0.4-1-1.6-1.9-2.9
	c-0.5-0.7-1-1.4-1.7-2c-0.6-0.7-1.3-1.3-2.1-1.8c-0.8-0.5-1.6-0.9-2.4-1.2c-0.9-0.3-1.7-0.4-2.6-0.3c-0.4,0-0.7,0.1-1.1,0.2
	c0,0,0,0,0-0.1c0.4-0.2,0.7-0.3,1-0.6c0.7-0.5,1.3-1.2,1.8-1.9c0.5-0.7,0.9-1.6,1.1-2.5c0.2-0.9,0.4-1.8,0.4-2.7c0-0.9,0-1.8,0-2.6
	c-0.1-1.6-0.4-2.9-0.4-3.4l0,0c-0.5-0.2-1.6-0.9-3-1.6c-0.7-0.4-1.5-0.7-2.4-1c-0.9-0.3-1.8-0.5-2.7-0.6c-0.9-0.1-1.8-0.1-2.7,0.1
	c-0.9,0.2-1.7,0.5-2.4,1c-0.3,0.2-0.5,0.4-0.7,0.6c0,0-0.1-0.1-0.1-0.1c0.2-0.3,0.3-0.5,0.5-0.8c0.4-0.8,0.6-1.6,0.7-2.5
	c0.1-0.9,0-1.8-0.2-2.7c-0.2-0.9-0.5-1.8-0.9-2.6c-0.4-0.8-0.8-1.6-1.2-2.3c-0.9-1.4-1.7-2.4-1.9-2.9l0,0c-0.5,0.1-1.9-0.1-3.5,0
	c-0.8,0-1.7,0.1-2.6,0.2c-0.9,0.2-1.8,0.4-2.7,0.7c-0.9,0.3-1.7,0.8-2.3,1.3c-0.7,0.6-1.3,1.2-1.7,2c-0.1,0.2-0.2,0.4-0.3,0.5
	c-0.1,0-0.1,0-0.2,0c0-0.2,0-0.4,0-0.6c0-0.9-0.2-1.8-0.5-2.6c-0.3-0.8-0.8-1.6-1.4-2.3c-0.6-0.7-1.3-1.3-2-1.9
	c-0.7-0.5-1.5-1-2.2-1.5c-0.7-0.4-1.4-0.7-1.9-1c-0.5-0.3-0.9-0.5-1.2-0.6l0,0c-0.2,0.2-0.6,0.4-1.2,0.6c-0.5,0.2-1.2,0.6-1.9,1
	c-1.4,0.8-3,1.9-4.2,3.2c-0.6,0.7-1.1,1.4-1.5,2.2c-0.4,0.8-0.6,1.6-0.6,2.5c0,0.1,0,0.2,0,0.3c-0.1,0-0.2,0-0.3,0.1
	c0-0.1-0.1-0.2-0.1-0.2c-0.4-0.8-1-1.5-1.7-2c-0.7-0.6-1.5-1-2.3-1.4c-0.9-0.4-1.7-0.6-2.6-0.8c-0.9-0.2-1.8-0.2-2.6-0.3
	c-0.8,0-1.5,0-2.1,0c-0.6,0-1.1,0-1.3,0l0,0c-0.2,0.5-1.1,1.5-2,2.8c-0.5,0.7-0.9,1.4-1.3,2.3c-0.4,0.8-0.7,1.7-0.9,2.6
	c-0.2,0.9-0.3,1.8-0.3,2.7c0.1,0.9,0.3,1.7,0.7,2.5c-0.1,0.1-0.2,0.2-0.3,0.3c-0.7-0.5-1.5-0.8-2.4-1c-0.9-0.2-1.8-0.2-2.7-0.1
	c-0.9,0.1-1.8,0.3-2.7,0.6c-0.9,0.3-1.7,0.6-2.4,0.9c-1.5,0.7-2.6,1.4-3.1,1.6l0,0c0,0.5-0.3,1.8-0.5,3.4c-0.1,0.8-0.1,1.7-0.1,2.6
	c0,0.9,0.2,1.8,0.4,2.7c0.2,0.9,0.6,1.7,1,2.5c0.4,0.7,1,1.3,1.6,1.8c-0.1,0.2-0.1,0.3-0.2,0.5c-0.8-0.1-1.6,0-2.4,0.2
	c-0.9,0.2-1.7,0.6-2.4,1.1c-1.5,1-2.8,2.4-3.8,3.7c-0.5,0.6-0.9,1.3-1.2,1.7c-0.3,0.5-0.6,0.9-0.8,1.1l0,0c0.1,0.2,0.3,0.7,0.5,1.2
	c0.2,0.6,0.4,1.3,0.7,2c0.6,1.5,1.5,3.2,2.7,4.6c0.6,0.7,1.3,1.3,2,1.7c0.7,0.4,1.5,0.7,2.3,0.9c0,0.2,0,0.4,0.1,0.5
	c-0.8,0.3-1.4,0.8-2,1.3c-0.6,0.6-1.2,1.3-1.6,2.1c-0.4,0.8-0.8,1.7-1.1,2.5c-0.3,0.9-0.5,1.7-0.6,2.5c-0.3,1.6-0.3,2.9-0.5,3.4l0,0
	c0.4,0.3,1.4,1.3,2.6,2.3c0.6,0.5,1.3,1.1,2.1,1.6c0.8,0.5,1.6,0.9,2.4,1.2c0.9,0.3,1.7,0.5,2.6,0.6c0.9,0,1.7-0.1,2.6-0.4
	c0.1,0.1,0.2,0.2,0.3,0.4c-0.6,0.7-1,1.4-1.3,2.2c-0.3,0.8-0.4,1.7-0.5,2.6c0,0.9,0,1.9,0.2,2.7c0.2,0.9,0.4,1.8,0.7,2.5
	c0.5,1.6,1.1,2.7,1.2,3.3l0,0c0.3,0,0.7,0.2,1.3,0.3c0.6,0.2,1.3,0.4,2.1,0.6c0.8,0.2,1.7,0.3,2.6,0.4c0.9,0.1,1.8,0.1,2.7,0
	c0.9-0.1,1.8-0.3,2.6-0.7c0.8-0.4,1.5-0.9,2.1-1.5c0.1-0.1,0.1-0.1,0.2-0.2c0.1,0.1,0.2,0.1,0.3,0.1c0,0.1-0.1,0.2-0.1,0.3
	c-0.2,0.9-0.2,1.7-0.1,2.6c0.1,0.9,0.4,1.8,0.8,2.6c0.8,1.6,2.1,3.1,3.2,4.2c0.6,0.6,1.1,1.1,1.6,1.4c0.5,0.4,0.8,0.7,1,0.9l0,0
	c0.3-0.1,0.7-0.2,1.3-0.3c0.6-0.1,1.3-0.3,2.1-0.5c0.8-0.2,1.6-0.5,2.5-0.8c0.8-0.4,1.7-0.8,2.4-1.3c0.8-0.5,1.4-1.1,2-1.8
	c0.5-0.7,0.9-1.5,1.2-2.3c0.1-0.2,0.1-0.4,0.1-0.6c0.1,0,0.1,0,0.2,0c0,0.2,0.1,0.4,0.1,0.6c0.2,0.9,0.6,1.7,1.1,2.4
	c0.5,0.7,1.2,1.3,1.9,1.9c0.7,0.5,1.6,1,2.4,1.4c0.8,0.4,1.7,0.6,2.4,0.9c1.6,0.4,2.9,0.7,3.4,0.9l0,0c0.3-0.4,1.4-1.2,2.6-2.3
	c0.6-0.5,1.2-1.2,1.8-1.9c0.6-0.7,1.1-1.5,1.5-2.3c0.4-0.8,0.7-1.7,0.9-2.5c0.2-0.9,0.2-1.7,0-2.6c-0.1-0.3-0.2-0.6-0.3-0.9
	c0,0,0.1,0,0.1-0.1c0.2,0.3,0.4,0.5,0.6,0.7c0.6,0.7,1.3,1.2,2.1,1.6c0.8,0.4,1.7,0.6,2.6,0.8c0.9,0.2,1.8,0.1,2.7,0.1
	c0.9,0,1.8-0.2,2.6-0.3c1.6-0.3,2.8-0.7,3.4-0.8l0,0c0.1-0.5,0.7-1.7,1.3-3.2c0.3-0.7,0.5-1.6,0.7-2.5c0.2-0.9,0.3-1.8,0.3-2.7
	c0-0.9-0.1-1.8-0.4-2.7c-0.3-0.8-0.7-1.6-1.2-2.3c-0.2-0.3-0.5-0.5-0.8-0.8c0,0,0,0,0-0.1c0.3,0.2,0.7,0.4,1,0.5
	c0.8,0.3,1.7,0.4,2.6,0.4c0.9,0,1.8-0.2,2.6-0.5c0.9-0.3,1.7-0.7,2.5-1.2c0.8-0.5,1.5-1,2.1-1.5c1.2-1,2.2-2,2.6-2.3l0,0
	c-0.2-0.5-0.1-1.8-0.4-3.5C-162.4,412-162.5,411.6-162.6,411.2z"/>
<circle class="st1" cx="-207.6" cy="398.1" r="39.1"/>
<g>
	<path class="st2" d="M-207.6,361C-207.6,361-207.6,361-207.6,361L-207.6,361c-0.2,0-0.4,0.2-0.4,0.4c0,0.2,0.2,0.4,0.4,0.4h0
		c0,0,0,0,0,0c0.2,0,0.4-0.2,0.4-0.4C-207.2,361.2-207.4,361-207.6,361L-207.6,361z M-209.9,361.1
		C-209.9,361.1-209.9,361.1-209.9,361.1L-209.9,361.1c-0.3,0-0.4,0.2-0.4,0.4c0,0.2,0.2,0.3,0.4,0.3c0,0,0,0,0,0c0,0,0,0,0,0
		c0.2,0,0.4-0.2,0.3-0.4C-209.5,361.3-209.7,361.1-209.9,361.1L-209.9,361.1z M-212.2,361.3C-212.2,361.3-212.2,361.3-212.2,361.3
		L-212.2,361.3c-0.3,0-0.4,0.2-0.4,0.4c0,0.2,0.2,0.3,0.4,0.3c0,0,0,0,0,0c0,0,0,0,0,0c0.2,0,0.3-0.2,0.3-0.4
		C-211.8,361.5-212,361.3-212.2,361.3L-212.2,361.3z M-214.4,361.7C-214.4,361.7-214.5,361.7-214.4,361.7l-0.1,0
		c-0.2,0-0.3,0.2-0.3,0.4c0,0.2,0.2,0.3,0.4,0.3c0,0,0,0,0.1,0c0,0,0,0,0,0c0.2,0,0.3-0.2,0.3-0.4
		C-214.1,361.8-214.3,361.7-214.4,361.7L-214.4,361.7z M-216.7,362.2C-216.7,362.2-216.7,362.2-216.7,362.2l-0.1,0
		c-0.2,0.1-0.3,0.3-0.3,0.5c0,0.2,0.2,0.3,0.4,0.3c0,0,0.1,0,0.1,0c0,0,0,0,0,0c0,0,0,0,0,0c0.2-0.1,0.3-0.3,0.3-0.5
		C-216.3,362.3-216.5,362.2-216.7,362.2L-216.7,362.2z M-218.9,362.8c0,0-0.1,0-0.1,0l0,0c-0.2,0.1-0.3,0.3-0.2,0.5
		c0.1,0.2,0.2,0.3,0.4,0.3c0,0,0.1,0,0.1,0c0,0,0,0,0,0c0.2-0.1,0.3-0.3,0.2-0.5C-218.6,362.9-218.7,362.8-218.9,362.8L-218.9,362.8
		z M-221,363.6c0,0-0.1,0-0.1,0l0,0c-0.2,0.1-0.3,0.3-0.2,0.5c0.1,0.1,0.2,0.2,0.3,0.2c0,0,0.1,0,0.1,0c0,0,0,0,0,0c0,0,0,0,0,0
		c0,0,0,0,0,0c0.2-0.1,0.3-0.3,0.2-0.5C-220.7,363.7-220.9,363.6-221,363.6L-221,363.6z M-223.1,364.5c-0.1,0-0.1,0-0.2,0l0,0
		c-0.2,0.1-0.3,0.3-0.2,0.5c0.1,0.1,0.2,0.2,0.3,0.2c0.1,0,0.1,0,0.2,0c0,0,0,0,0,0c0.2-0.1,0.3-0.3,0.2-0.5
		C-222.8,364.6-223,364.5-223.1,364.5L-223.1,364.5z M-225.1,365.5c-0.1,0-0.1,0-0.2,0l0,0c-0.2,0.1-0.2,0.3-0.1,0.5
		c0.1,0.1,0.2,0.2,0.3,0.2c0.1,0,0.1,0,0.2,0c0,0,0,0,0,0c0,0,0,0,0,0c0.2-0.1,0.2-0.3,0.1-0.5C-224.9,365.6-225,365.5-225.1,365.5
		L-225.1,365.5z M-227.1,366.7c-0.1,0-0.1,0-0.2,0.1l0,0c-0.2,0.1-0.2,0.3-0.1,0.5c0.1,0.1,0.2,0.2,0.3,0.2c0.1,0,0.1,0,0.2-0.1
		c0,0,0,0,0,0c0,0,0,0,0,0c0,0,0,0,0,0c0.2-0.1,0.2-0.3,0.1-0.5C-226.9,366.8-227,366.7-227.1,366.7L-227.1,366.7z M-229,368
		c-0.1,0-0.2,0-0.2,0.1l0,0c-0.2,0.1-0.2,0.4-0.1,0.5c0.1,0.1,0.2,0.2,0.3,0.2c0.1,0,0.2,0,0.2-0.1c0,0,0,0,0,0l0,0c0,0,0,0,0,0
		c0,0,0,0,0,0c0.2-0.1,0.2-0.4,0.1-0.5C-228.8,368-228.9,368-229,368L-229,368z M-230.8,369.4c-0.1,0-0.2,0-0.2,0.1l0,0
		c-0.2,0.1-0.2,0.4-0.1,0.5c0.1,0.1,0.2,0.1,0.3,0.1c0.1,0,0.2,0,0.2-0.1c0,0,0,0,0,0c0,0,0,0,0,0c0,0,0,0,0,0
		c0.2-0.1,0.2-0.4,0.1-0.5C-230.6,369.4-230.7,369.4-230.8,369.4L-230.8,369.4z M-232.5,370.9c-0.1,0-0.2,0-0.3,0.1l0,0
		c-0.1,0.1-0.2,0.4,0,0.5c0.1,0.1,0.2,0.1,0.3,0.1c0.1,0,0.2,0,0.3-0.1c0,0,0,0,0,0c0.1-0.1,0.2-0.4,0-0.5
		C-232.3,370.9-232.4,370.9-232.5,370.9L-232.5,370.9z M-234.2,372.5c-0.1,0-0.2,0-0.3,0.1l0,0c-0.1,0.1-0.1,0.4,0,0.5
		c0.1,0.1,0.2,0.1,0.3,0.1c0.1,0,0.2,0,0.3-0.1c0,0,0,0,0,0c0,0,0,0,0,0c0,0,0,0,0,0c0.1-0.1,0.1-0.4,0-0.5
		C-234,372.5-234.1,372.5-234.2,372.5L-234.2,372.5z M-235.7,374.2c-0.1,0-0.2,0-0.3,0.1l0,0c-0.1,0.2-0.1,0.4,0,0.5
		c0.1,0.1,0.2,0.1,0.2,0.1c0.1,0,0.2,0,0.3-0.1c0,0,0,0,0,0c0,0,0,0,0,0c0.1-0.2,0.1-0.4,0-0.5
		C-235.5,374.2-235.6,374.2-235.7,374.2L-235.7,374.2z M-237.1,376c-0.1,0-0.2,0.1-0.3,0.2l0,0c-0.1,0.2-0.1,0.4,0.1,0.5
		c0.1,0,0.1,0.1,0.2,0.1c0.1,0,0.2-0.1,0.3-0.2c0,0,0,0,0,0l0,0c0,0,0,0,0,0c0.1-0.2,0.1-0.4-0.1-0.5C-237,376-237,376-237.1,376
		L-237.1,376z M-238.4,377.9c-0.1,0-0.2,0.1-0.3,0.2l0,0c-0.1,0.2-0.1,0.4,0.1,0.5c0.1,0,0.1,0.1,0.2,0.1c0.1,0,0.2-0.1,0.3-0.2
		c0,0,0,0,0,0c0.1-0.2,0.1-0.4-0.1-0.5C-238.3,377.9-238.3,377.9-238.4,377.9L-238.4,377.9z M-239.6,379.8c-0.1,0-0.3,0.1-0.3,0.2
		l0,0c-0.1,0.2,0,0.4,0.1,0.5c0.1,0,0.1,0,0.2,0c0.1,0,0.3-0.1,0.3-0.2c0,0,0,0,0,0c0,0,0,0,0,0c0.1-0.2,0-0.4-0.1-0.5
		C-239.5,379.8-239.5,379.8-239.6,379.8L-239.6,379.8z M-240.6,381.8c-0.1,0-0.3,0.1-0.3,0.2l0,0c-0.1,0.2,0,0.4,0.2,0.5
		c0.1,0,0.1,0,0.2,0c0.1,0,0.3-0.1,0.3-0.2c0,0,0,0,0,0c0.1-0.2,0-0.4-0.2-0.5C-240.5,381.9-240.6,381.8-240.6,381.8L-240.6,381.8z
		 M-241.6,383.9c-0.1,0-0.3,0.1-0.3,0.2l0,0c-0.1,0.2,0,0.4,0.2,0.5c0,0,0.1,0,0.1,0c0.1,0,0.3-0.1,0.3-0.2c0,0,0,0,0,0
		c0.1-0.2,0-0.4-0.2-0.5C-241.5,383.9-241.5,383.9-241.6,383.9L-241.6,383.9z M-242.4,386.1c-0.2,0-0.3,0.1-0.4,0.3l0,0
		c-0.1,0.2,0,0.4,0.2,0.5c0,0,0.1,0,0.1,0c0.2,0,0.3-0.1,0.4-0.3c0,0,0,0,0,0c0.1-0.2,0-0.4-0.2-0.5
		C-242.3,386.1-242.3,386.1-242.4,386.1L-242.4,386.1z M-243,388.3c-0.2,0-0.3,0.1-0.4,0.3l0,0c-0.1,0.2,0.1,0.4,0.3,0.5
		c0,0,0.1,0,0.1,0c0.2,0,0.3-0.1,0.4-0.3c0,0,0,0,0,0C-242.6,388.5-242.7,388.3-243,388.3C-243,388.3-243,388.3-243,388.3
		L-243,388.3z M-243.5,390.5c-0.2,0-0.3,0.1-0.4,0.3l0,0c0,0.2,0.1,0.4,0.3,0.4c0,0,0,0,0.1,0c0.2,0,0.3-0.1,0.4-0.3c0,0,0,0,0,0
		l0,0c0,0,0,0,0,0c0,0,0,0,0,0c0,0,0,0,0,0C-243.1,390.7-243.3,390.5-243.5,390.5C-243.5,390.5-243.5,390.5-243.5,390.5
		L-243.5,390.5z M-243.9,392.7c-0.2,0-0.3,0.1-0.4,0.3l0,0c0,0.2,0.1,0.4,0.3,0.4c0,0,0,0,0.1,0c0.2,0,0.3-0.1,0.4-0.3c0,0,0,0,0,0
		C-243.5,393-243.7,392.8-243.9,392.7C-243.9,392.7-243.9,392.7-243.9,392.7L-243.9,392.7z M-244.2,395c-0.2,0-0.4,0.1-0.4,0.3l0,0
		c0,0.2,0.1,0.4,0.3,0.4c0,0,0,0,0,0c0.2,0,0.4-0.1,0.4-0.3c0,0,0,0,0,0c0,0,0,0,0,0c0,0,0,0,0,0c0,0,0,0,0,0
		C-243.8,395.2-243.9,395-244.2,395C-244.1,395-244.1,395-244.2,395L-244.2,395z M-244.3,397.3c-0.2,0-0.4,0.2-0.4,0.4l0,0
		c0,0.2,0.2,0.4,0.4,0.4c0,0,0,0,0,0c0.2,0,0.4-0.2,0.4-0.4c0,0,0,0,0,0c0,0,0,0,0,0C-243.9,397.5-244,397.3-244.3,397.3
		C-244.3,397.3-244.3,397.3-244.3,397.3L-244.3,397.3z M-244.2,399.6C-244.2,399.6-244.2,399.6-244.2,399.6c-0.2,0-0.4,0.2-0.4,0.4
		l0,0c0,0.2,0.2,0.4,0.4,0.4c0,0,0,0,0,0c0.2,0,0.4-0.2,0.4-0.4c0,0,0,0,0,0c0,0,0,0,0,0c0,0,0,0,0,0c0,0,0,0,0,0
		C-243.9,399.7-244,399.6-244.2,399.6L-244.2,399.6z M-244,401.9C-244,401.9-244.1,401.9-244,401.9c-0.2,0-0.4,0.2-0.4,0.4l0,0
		c0,0.2,0.2,0.3,0.4,0.3c0,0,0,0,0,0c0.2,0,0.3-0.2,0.3-0.4c0,0,0,0,0,0c0,0,0,0,0,0c0,0,0,0,0,0C-243.7,402-243.8,401.9-244,401.9
		L-244,401.9z M-243.7,404.1C-243.7,404.1-243.7,404.1-243.7,404.1c-0.3,0-0.4,0.2-0.4,0.4l0,0c0,0.2,0.2,0.3,0.4,0.3c0,0,0,0,0.1,0
		c0.2,0,0.3-0.2,0.3-0.4c0,0,0,0,0,0C-243.4,404.3-243.5,404.1-243.7,404.1L-243.7,404.1z M-243.2,406.4
		C-243.3,406.4-243.3,406.4-243.2,406.4c-0.3,0.1-0.4,0.3-0.4,0.5l0,0c0,0.2,0.2,0.3,0.4,0.3c0,0,0.1,0,0.1,0c0.2,0,0.3-0.2,0.3-0.4
		c0,0,0,0,0,0c0,0,0,0,0,0C-242.9,406.5-243.1,406.4-243.2,406.4L-243.2,406.4z M-242.6,408.6c0,0-0.1,0-0.1,0
		c-0.2,0.1-0.3,0.3-0.2,0.5l0,0c0,0.2,0.2,0.3,0.4,0.3c0,0,0.1,0,0.1,0c0.2-0.1,0.3-0.3,0.2-0.5c0,0,0,0,0,0
		C-242.3,408.7-242.5,408.6-242.6,408.6L-242.6,408.6z M-241.9,410.7c0,0-0.1,0-0.1,0c-0.2,0.1-0.3,0.3-0.2,0.5l0,0
		c0.1,0.1,0.2,0.2,0.3,0.2c0,0,0.1,0,0.1,0c0.2-0.1,0.3-0.3,0.2-0.5c0,0,0,0,0,0c0,0,0,0,0,0C-241.6,410.8-241.7,410.7-241.9,410.7
		L-241.9,410.7z M-241,412.8c-0.1,0-0.1,0-0.2,0c-0.2,0.1-0.3,0.3-0.2,0.5l0,0c0.1,0.1,0.2,0.2,0.3,0.2c0.1,0,0.1,0,0.2,0
		c0.2-0.1,0.3-0.3,0.2-0.5c0,0,0,0,0,0C-240.7,412.9-240.9,412.8-241,412.8L-241,412.8z M-240,414.9c-0.1,0-0.1,0-0.2,0
		c-0.2,0.1-0.2,0.3-0.2,0.5l0,0c0.1,0.1,0.2,0.2,0.3,0.2c0.1,0,0.1,0,0.2,0c0.2-0.1,0.2-0.3,0.2-0.5c0,0,0,0,0,0c0,0,0,0,0,0
		C-239.7,415-239.9,414.9-240,414.9L-240,414.9z M-238.9,416.9c-0.1,0-0.1,0-0.2,0.1c-0.2,0.1-0.2,0.3-0.1,0.5l0,0
		c0.1,0.1,0.2,0.2,0.3,0.2c0.1,0,0.1,0,0.2-0.1c0.2-0.1,0.2-0.3,0.1-0.5c0,0,0,0,0,0C-238.6,416.9-238.7,416.9-238.9,416.9
		L-238.9,416.9z M-237.6,418.8c-0.1,0-0.1,0-0.2,0.1c-0.2,0.1-0.2,0.3-0.1,0.5l0,0c0.1,0.1,0.2,0.2,0.3,0.2c0.1,0,0.1,0,0.2-0.1
		c0.2-0.1,0.2-0.3,0.1-0.5c0,0,0,0,0,0C-237.4,418.9-237.5,418.8-237.6,418.8L-237.6,418.8z M-236.3,420.6c-0.1,0-0.2,0-0.2,0.1
		c-0.2,0.1-0.2,0.4-0.1,0.5l0,0c0.1,0.1,0.2,0.1,0.3,0.1c0.1,0,0.2,0,0.2-0.1c0.2-0.1,0.2-0.4,0.1-0.5c0,0,0,0,0,0
		C-236,420.7-236.1,420.6-236.3,420.6L-236.3,420.6z M-234.8,422.4c-0.1,0-0.2,0-0.2,0.1c-0.2,0.1-0.2,0.4,0,0.5l0,0
		c0.1,0.1,0.2,0.1,0.3,0.1c0.1,0,0.2,0,0.2-0.1c0.2-0.1,0.2-0.4,0-0.5c0,0,0,0,0,0c0,0,0,0,0,0
		C-234.6,422.4-234.7,422.4-234.8,422.4L-234.8,422.4z M-233.2,424c-0.1,0-0.2,0-0.3,0.1c-0.1,0.1-0.1,0.4,0,0.5l0,0
		c0.1,0.1,0.2,0.1,0.3,0.1c0.1,0,0.2,0,0.3-0.1c0.1-0.1,0.1-0.4,0-0.5c0,0,0,0,0,0C-233,424.1-233.1,424-233.2,424L-233.2,424z
		 M-231.5,425.6c-0.1,0-0.2,0-0.3,0.1c-0.1,0.2-0.1,0.4,0,0.5l0,0c0.1,0.1,0.2,0.1,0.2,0.1c0.1,0,0.2,0,0.3-0.1
		c0.1-0.2,0.1-0.4,0-0.5c0,0,0,0,0,0c0,0,0,0,0,0C-231.3,425.6-231.4,425.6-231.5,425.6L-231.5,425.6z M-229.7,427
		c-0.1,0-0.2,0.1-0.3,0.1c-0.1,0.2-0.1,0.4,0.1,0.5l0,0c0.1,0.1,0.1,0.1,0.2,0.1c0.1,0,0.2-0.1,0.3-0.1c0.1-0.2,0.1-0.4-0.1-0.5
		c0,0,0,0,0,0C-229.6,427-229.6,427-229.7,427L-229.7,427z M-227.9,428.3c-0.1,0-0.2,0.1-0.3,0.2c-0.1,0.2-0.1,0.4,0.1,0.5l0,0
		c0.1,0,0.1,0.1,0.2,0.1c0.1,0,0.2-0.1,0.3-0.2c0.1-0.2,0.1-0.4-0.1-0.5c0,0,0,0,0,0C-227.7,428.3-227.8,428.3-227.9,428.3
		L-227.9,428.3z M-225.9,429.5c-0.1,0-0.3,0.1-0.3,0.2c-0.1,0.2,0,0.4,0.1,0.5l0,0c0.1,0,0.1,0,0.2,0c0.1,0,0.3-0.1,0.3-0.2
		c0.1-0.2,0-0.4-0.1-0.5c0,0,0,0,0,0c0,0,0,0,0,0C-225.8,429.5-225.9,429.5-225.9,429.5L-225.9,429.5z M-223.9,430.6
		c-0.1,0-0.3,0.1-0.3,0.2c-0.1,0.2,0,0.4,0.2,0.5l0,0c0.1,0,0.1,0,0.2,0c0.1,0,0.3-0.1,0.3-0.2c0.1-0.2,0-0.4-0.2-0.5c0,0,0,0,0,0
		c0,0,0,0,0,0C-223.8,430.6-223.9,430.6-223.9,430.6L-223.9,430.6z M-221.8,431.6c-0.1,0-0.3,0.1-0.3,0.2c-0.1,0.2,0,0.4,0.2,0.5
		l0,0c0,0,0.1,0,0.1,0c0.1,0,0.3-0.1,0.3-0.2c0.1-0.2,0-0.4-0.2-0.5c0,0,0,0,0,0C-221.7,431.6-221.8,431.6-221.8,431.6L-221.8,431.6
		z M-219.7,432.4c-0.2,0-0.3,0.1-0.3,0.2c-0.1,0.2,0,0.4,0.2,0.5l0,0c0,0,0.1,0,0.1,0c0.2,0,0.3-0.1,0.3-0.2c0.1-0.2,0-0.4-0.2-0.5
		c0,0,0,0,0,0c0,0,0,0,0,0c0,0,0,0,0,0c0,0,0,0,0,0C-219.6,432.4-219.7,432.4-219.7,432.4L-219.7,432.4z M-217.5,433.1
		c-0.2,0-0.3,0.1-0.4,0.3c-0.1,0.2,0.1,0.4,0.3,0.5l0,0c0,0,0.1,0,0.1,0c0.2,0,0.3-0.1,0.4-0.3c0.1-0.2-0.1-0.4-0.3-0.5c0,0,0,0,0,0
		C-217.4,433.1-217.5,433.1-217.5,433.1L-217.5,433.1z M-215.3,433.6c-0.2,0-0.3,0.1-0.4,0.3c0,0.2,0.1,0.4,0.3,0.4l0,0
		c0,0,0.1,0,0.1,0c0.2,0,0.3-0.1,0.4-0.3c0-0.2-0.1-0.4-0.3-0.4c0,0,0,0,0,0C-215.2,433.6-215.2,433.6-215.3,433.6
		C-215.2,433.6-215.3,433.6-215.3,433.6L-215.3,433.6z M-213,434c-0.2,0-0.3,0.1-0.4,0.3c0,0.2,0.1,0.4,0.3,0.4l0,0c0,0,0,0,0.1,0
		c0.2,0,0.3-0.1,0.4-0.3C-212.6,434.3-212.7,434.1-213,434C-213,434-213,434-213,434C-213,434-213,434-213,434
		C-213,434-213,434-213,434L-213,434z M-210.8,434.3c-0.2,0-0.4,0.1-0.4,0.3c0,0.2,0.1,0.4,0.3,0.4l0,0c0,0,0,0,0,0
		c0.2,0,0.4-0.1,0.4-0.3C-210.3,434.5-210.5,434.3-210.8,434.3C-210.7,434.3-210.7,434.3-210.8,434.3
		C-210.7,434.3-210.7,434.3-210.8,434.3C-210.7,434.3-210.7,434.3-210.8,434.3C-210.8,434.3-210.8,434.3-210.8,434.3L-210.8,434.3z
		 M-208.5,434.4c-0.2,0-0.4,0.2-0.4,0.4c0,0.2,0.2,0.4,0.4,0.4l0,0c0,0,0,0,0,0c0.2,0,0.4-0.2,0.4-0.4
		C-208.1,434.6-208.2,434.4-208.5,434.4C-208.4,434.4-208.4,434.4-208.5,434.4C-208.5,434.4-208.5,434.4-208.5,434.4
		C-208.5,434.4-208.5,434.4-208.5,434.4L-208.5,434.4z M-206.2,434.4C-206.2,434.4-206.2,434.4-206.2,434.4
		C-206.2,434.4-206.2,434.4-206.2,434.4C-206.2,434.4-206.2,434.4-206.2,434.4c-0.3,0-0.4,0.2-0.4,0.4c0,0.2,0.2,0.4,0.4,0.4
		c0,0,0,0,0,0l0,0c0.2,0,0.4-0.2,0.4-0.4C-205.8,434.6-206,434.4-206.2,434.4L-206.2,434.4z M-203.9,434.3
		C-203.9,434.3-203.9,434.3-203.9,434.3C-203.9,434.3-203.9,434.3-203.9,434.3C-203.9,434.3-204,434.3-203.9,434.3
		c-0.3,0-0.4,0.2-0.4,0.4c0,0.2,0.2,0.3,0.4,0.3c0,0,0,0,0,0l0,0c0.2,0,0.4-0.2,0.3-0.4C-203.5,434.4-203.7,434.3-203.9,434.3
		L-203.9,434.3z M-201.6,434C-201.6,434-201.7,434-201.6,434C-201.7,434-201.7,434-201.6,434c-0.1,0-0.1,0-0.1,0
		c-0.2,0-0.3,0.2-0.3,0.4c0,0.2,0.2,0.3,0.4,0.3c0,0,0,0,0.1,0l0,0c0.2,0,0.3-0.2,0.3-0.4C-201.3,434.1-201.4,434-201.6,434
		L-201.6,434z M-199.4,433.5C-199.4,433.5-199.4,433.5-199.4,433.5c-0.1,0-0.1,0-0.1,0c-0.2,0-0.3,0.2-0.3,0.4
		c0,0.2,0.2,0.3,0.4,0.3c0,0,0.1,0,0.1,0l0,0c0.2,0,0.3-0.2,0.3-0.4C-199.1,433.6-199.2,433.5-199.4,433.5L-199.4,433.5z
		 M-197.2,432.9c0,0-0.1,0-0.1,0c0,0,0,0,0,0c-0.2,0.1-0.3,0.3-0.2,0.5c0,0.2,0.2,0.3,0.4,0.3c0,0,0.1,0,0.1,0l0,0
		c0.2-0.1,0.3-0.3,0.3-0.5C-196.9,433.1-197,432.9-197.2,432.9L-197.2,432.9z M-195,432.2c0,0-0.1,0-0.1,0c0,0,0,0,0,0c0,0,0,0,0,0
		c0,0,0,0,0,0c0,0,0,0,0,0c-0.2,0.1-0.3,0.3-0.2,0.5c0.1,0.2,0.2,0.2,0.3,0.2c0,0,0.1,0,0.1,0l0,0c0.2-0.1,0.3-0.3,0.2-0.5
		C-194.7,432.3-194.8,432.2-195,432.2L-195,432.2z M-192.9,431.4c0,0-0.1,0-0.1,0c0,0,0,0,0,0c0,0,0,0,0,0c-0.2,0.1-0.3,0.3-0.2,0.5
		c0.1,0.1,0.2,0.2,0.3,0.2c0,0,0.1,0,0.1,0l0,0c0.2-0.1,0.3-0.3,0.2-0.5C-192.6,431.5-192.7,431.4-192.9,431.4L-192.9,431.4z
		 M-190.8,430.4c-0.1,0-0.1,0-0.2,0c0,0,0,0,0,0c-0.2,0.1-0.3,0.3-0.2,0.5c0.1,0.1,0.2,0.2,0.3,0.2c0.1,0,0.1,0,0.2,0l0,0
		c0.2-0.1,0.3-0.3,0.2-0.5C-190.5,430.5-190.7,430.4-190.8,430.4L-190.8,430.4z M-188.8,429.3c-0.1,0-0.1,0-0.2,0.1c0,0,0,0,0,0
		c0,0,0,0,0,0l0,0c-0.2,0.1-0.2,0.3-0.1,0.5c0.1,0.1,0.2,0.2,0.3,0.2c0.1,0,0.1,0,0.2-0.1l0,0c0.2-0.1,0.2-0.3,0.1-0.5
		C-188.6,429.4-188.7,429.3-188.8,429.3L-188.8,429.3z M-186.9,428.1c-0.1,0-0.1,0-0.2,0.1c0,0,0,0,0,0c-0.2,0.1-0.2,0.3-0.1,0.5
		c0.1,0.1,0.2,0.2,0.3,0.2c0.1,0,0.1,0,0.2-0.1l0,0c0.2-0.1,0.2-0.3,0.1-0.5C-186.6,428.1-186.8,428.1-186.9,428.1L-186.9,428.1z
		 M-185,426.7c-0.1,0-0.2,0-0.2,0.1c0,0,0,0,0,0c-0.2,0.1-0.2,0.4-0.1,0.5c0.1,0.1,0.2,0.1,0.3,0.1c0.1,0,0.2,0,0.2-0.1l0,0
		c0.2-0.1,0.2-0.4,0.1-0.5C-184.8,426.8-184.9,426.7-185,426.7L-185,426.7z M-183.3,425.3c-0.1,0-0.2,0-0.2,0.1c0,0,0,0,0,0
		c0,0,0,0,0,0c0,0,0,0,0,0c-0.2,0.1-0.2,0.4,0,0.5c0.1,0.1,0.2,0.1,0.3,0.1c0.1,0,0.2,0,0.2-0.1l0,0c0.2-0.1,0.2-0.4,0-0.5
		C-183.1,425.3-183.2,425.3-183.3,425.3L-183.3,425.3z M-181.6,423.7c-0.1,0-0.2,0-0.3,0.1c0,0,0,0,0,0c-0.1,0.1-0.1,0.4,0,0.5
		c0.1,0.1,0.2,0.1,0.3,0.1c0.1,0,0.2,0,0.3-0.1l0,0c0.1-0.1,0.1-0.4,0-0.5C-181.4,423.7-181.5,423.7-181.6,423.7L-181.6,423.7z
		 M-180,422c-0.1,0-0.2,0-0.3,0.1c0,0,0,0,0,0c0,0,0,0,0,0c-0.1,0.2-0.1,0.4,0,0.5c0.1,0.1,0.2,0.1,0.2,0.1c0.1,0,0.2,0,0.3-0.1l0,0
		c0.1-0.2,0.1-0.4,0-0.5C-179.9,422.1-180,422-180,422L-180,422z M-178.6,420.3c-0.1,0-0.2,0-0.3,0.1c0,0,0,0,0,0c0,0,0,0,0,0
		c0,0,0,0,0,0c-0.1,0.2-0.1,0.4,0.1,0.5c0.1,0.1,0.1,0.1,0.2,0.1c0.1,0,0.2,0,0.3-0.1l0,0c0.1-0.2,0.1-0.4-0.1-0.5
		C-178.4,420.3-178.5,420.3-178.6,420.3L-178.6,420.3z M-177.2,418.4c-0.1,0-0.2,0.1-0.3,0.2c0,0,0,0,0,0c0,0,0,0,0,0
		c-0.1,0.2-0.1,0.4,0.1,0.5c0.1,0,0.1,0.1,0.2,0.1c0.1,0,0.2-0.1,0.3-0.2l0,0c0.1-0.2,0.1-0.4-0.1-0.5
		C-177.1,418.4-177.2,418.4-177.2,418.4L-177.2,418.4z M-176,416.5c-0.1,0-0.2,0.1-0.3,0.2c0,0,0,0,0,0c-0.1,0.2,0,0.4,0.1,0.5
		c0.1,0,0.1,0.1,0.2,0.1c0.1,0,0.2-0.1,0.3-0.2l0,0c0.1-0.2,0-0.4-0.1-0.5C-175.9,416.5-175.9,416.5-176,416.5L-176,416.5z
		 M-174.9,414.5c-0.1,0-0.3,0.1-0.3,0.2c0,0,0,0,0,0c0,0,0,0,0,0c-0.1,0.2,0,0.4,0.2,0.5c0.1,0,0.1,0,0.2,0c0.1,0,0.3-0.1,0.3-0.2
		l0,0c0.1-0.2,0-0.4-0.2-0.5C-174.8,414.5-174.8,414.5-174.9,414.5L-174.9,414.5z M-173.9,412.4c-0.1,0-0.3,0.1-0.3,0.2c0,0,0,0,0,0
		c0,0,0,0,0,0c0,0,0,0,0,0c0,0,0,0,0,0c0,0,0,0,0,0c-0.1,0.2,0,0.4,0.2,0.5c0,0,0.1,0,0.1,0c0.1,0,0.3-0.1,0.3-0.2l0,0
		c0.1-0.2,0-0.4-0.2-0.5C-173.8,412.4-173.9,412.4-173.9,412.4L-173.9,412.4z M-173.1,410.3c-0.2,0-0.3,0.1-0.3,0.2c0,0,0,0,0,0
		c-0.1,0.2,0,0.4,0.2,0.5c0,0,0.1,0,0.1,0c0.2,0,0.3-0.1,0.3-0.2l0,0c0.1-0.2,0-0.4-0.2-0.5C-173,410.3-173,410.3-173.1,410.3
		L-173.1,410.3z M-172.4,408.1c-0.2,0-0.3,0.1-0.4,0.3c0,0,0,0,0,0c0,0,0,0,0,0c-0.1,0.2,0.1,0.4,0.3,0.5c0,0,0.1,0,0.1,0
		c0.2,0,0.3-0.1,0.4-0.3l0,0c0.1-0.2-0.1-0.4-0.3-0.5C-172.3,408.1-172.3,408.1-172.4,408.1L-172.4,408.1z M-171.8,405.9
		c-0.2,0-0.3,0.1-0.4,0.3c0,0,0,0,0,0c0,0,0,0,0,0c0,0,0,0,0,0c0,0.2,0.1,0.4,0.3,0.4c0,0,0.1,0,0.1,0c0.2,0,0.3-0.1,0.4-0.3l0,0
		C-171.4,406.2-171.5,406-171.8,405.9C-171.7,405.9-171.8,405.9-171.8,405.9L-171.8,405.9z M-171.3,403.7c-0.2,0-0.3,0.1-0.4,0.3
		c0,0,0,0,0,0c0,0,0,0,0,0c0,0.2,0.1,0.4,0.3,0.4c0,0,0,0,0.1,0c0.2,0,0.3-0.1,0.4-0.3l0,0C-170.9,403.9-171.1,403.7-171.3,403.7
		C-171.3,403.7-171.3,403.7-171.3,403.7L-171.3,403.7z M-171,401.4c-0.2,0-0.3,0.1-0.4,0.3c0,0,0,0,0,0c0,0.2,0.1,0.4,0.3,0.4
		c0,0,0,0,0,0c0.2,0,0.3-0.1,0.4-0.3l0,0C-170.7,401.6-170.8,401.4-171,401.4C-171,401.4-171,401.4-171,401.4L-171,401.4z
		 M-170.9,399.1c-0.2,0-0.4,0.2-0.4,0.4c0,0,0,0,0,0c0,0,0,0,0,0c0,0.2,0.2,0.4,0.4,0.4c0,0,0,0,0,0c0.2,0,0.4-0.2,0.4-0.4l0,0
		C-170.5,399.3-170.7,399.1-170.9,399.1C-170.9,399.1-170.9,399.1-170.9,399.1L-170.9,399.1z M-170.9,396.8
		C-170.9,396.8-170.9,396.8-170.9,396.8c-0.2,0-0.4,0.2-0.4,0.4c0,0,0,0,0,0c0,0,0,0,0,0c0,0,0,0,0,0c0,0,0,0,0,0
		c0,0.2,0.2,0.4,0.4,0.4c0,0,0,0,0,0c0.2,0,0.4-0.2,0.4-0.4l0,0C-170.5,397-170.7,396.8-170.9,396.8L-170.9,396.8z M-171,394.6
		C-171,394.6-171,394.6-171,394.6c-0.2,0-0.4,0.2-0.4,0.4c0,0,0,0,0,0c0,0.2,0.2,0.3,0.4,0.3c0,0,0,0,0,0c0.2,0,0.4-0.2,0.3-0.4l0,0
		C-170.6,394.7-170.8,394.6-171,394.6L-171,394.6z M-171.3,392.3C-171.3,392.3-171.3,392.3-171.3,392.3c-0.3,0-0.4,0.2-0.4,0.4
		c0,0,0,0,0,0c0,0,0,0,0,0c0,0.2,0.2,0.3,0.4,0.3c0,0,0,0,0.1,0c0.2,0,0.3-0.2,0.3-0.4l0,0C-170.9,392.4-171.1,392.3-171.3,392.3
		L-171.3,392.3z M-171.7,390C-171.7,390-171.7,390-171.7,390c-0.3,0.1-0.4,0.2-0.4,0.4c0,0,0,0,0,0c0,0,0,0,0,0c0,0,0,0,0,0
		c0,0.2,0.2,0.3,0.4,0.3c0,0,0.1,0,0.1,0c0.2,0,0.3-0.2,0.3-0.4l0,0C-171.3,390.2-171.5,390-171.7,390L-171.7,390z M-172.2,387.8
		c0,0-0.1,0-0.1,0c-0.2,0.1-0.3,0.3-0.3,0.5c0,0,0,0,0,0c0,0,0,0,0,0c0,0,0,0,0,0c0,0,0,0,0,0c0,0.2,0.2,0.3,0.4,0.3
		c0,0,0.1,0,0.1,0c0.2-0.1,0.3-0.3,0.3-0.5l0,0C-171.9,387.9-172.1,387.8-172.2,387.8L-172.2,387.8z M-172.9,385.6c0,0-0.1,0-0.1,0
		c-0.2,0.1-0.3,0.3-0.2,0.5c0,0,0,0,0,0c0,0,0,0,0,0c0.1,0.2,0.2,0.2,0.3,0.2c0,0,0.1,0,0.1,0c0.2-0.1,0.3-0.3,0.2-0.5l0,0
		C-172.6,385.7-172.8,385.6-172.9,385.6L-172.9,385.6z M-173.7,383.5c0,0-0.1,0-0.1,0c-0.2,0.1-0.3,0.3-0.2,0.5c0,0,0,0,0,0
		c0,0,0,0,0,0c0,0,0,0,0,0c0.1,0.1,0.2,0.2,0.3,0.2c0,0,0.1,0,0.1,0c0.2-0.1,0.3-0.3,0.2-0.5l0,0
		C-173.5,383.6-173.6,383.5-173.7,383.5L-173.7,383.5z M-174.7,381.4c-0.1,0-0.1,0-0.2,0c-0.2,0.1-0.3,0.3-0.2,0.5c0,0,0,0,0,0
		c0.1,0.1,0.2,0.2,0.3,0.2c0.1,0,0.1,0,0.2,0c0.2-0.1,0.3-0.3,0.2-0.5l0,0C-174.4,381.5-174.6,381.4-174.7,381.4L-174.7,381.4z
		 M-175.8,379.4c-0.1,0-0.1,0-0.2,0c-0.2,0.1-0.2,0.3-0.1,0.5c0,0,0,0,0,0c0,0,0,0,0,0c0.1,0.1,0.2,0.2,0.3,0.2c0.1,0,0.1,0,0.2,0
		c0.2-0.1,0.2-0.3,0.1-0.5l0,0C-175.5,379.5-175.6,379.4-175.8,379.4L-175.8,379.4z M-177,377.5c-0.1,0-0.1,0-0.2,0.1
		c-0.2,0.1-0.2,0.3-0.1,0.5c0,0,0,0,0,0c0,0,0,0,0,0c0,0,0,0,0,0c0,0,0,0,0,0c0.1,0.1,0.2,0.2,0.3,0.2c0.1,0,0.1,0,0.2-0.1
		c0.2-0.1,0.2-0.3,0.1-0.5l0,0C-176.7,377.5-176.9,377.5-177,377.5L-177,377.5z M-178.3,375.6c-0.1,0-0.2,0-0.2,0.1
		c-0.2,0.1-0.2,0.4-0.1,0.5c0,0,0,0,0,0c0,0,0,0,0,0c0.1,0.1,0.2,0.1,0.3,0.1c0.1,0,0.2,0,0.2-0.1c0.2-0.1,0.2-0.4,0.1-0.5l0,0
		C-178.1,375.7-178.2,375.6-178.3,375.6L-178.3,375.6z M-179.7,373.8c-0.1,0-0.2,0-0.2,0.1c-0.2,0.1-0.2,0.4,0,0.5c0,0,0,0,0,0
		c0,0,0,0,0,0c0.1,0.1,0.2,0.1,0.3,0.1c0.1,0,0.2,0,0.2-0.1c0.2-0.1,0.2-0.4,0-0.5l0,0C-179.5,373.9-179.6,373.8-179.7,373.8
		L-179.7,373.8z M-181.3,372.1c-0.1,0-0.2,0-0.3,0.1c-0.1,0.1-0.1,0.4,0,0.5c0,0,0,0,0,0c0,0,0,0,0,0l0,0c0,0,0,0,0,0
		c0.1,0.1,0.2,0.1,0.3,0.1c0.1,0,0.2,0,0.3-0.1c0.1-0.1,0.2-0.4,0-0.5l0,0C-181.1,372.2-181.2,372.1-181.3,372.1L-181.3,372.1z
		 M-182.9,370.6c-0.1,0-0.2,0-0.3,0.1c-0.1,0.2-0.1,0.4,0,0.5c0,0,0,0,0,0c0,0,0,0,0,0c0,0,0,0,0,0c0.1,0.1,0.2,0.1,0.2,0.1
		c0.1,0,0.2,0,0.3-0.1c0.1-0.2,0.1-0.4,0-0.5l0,0C-182.7,370.6-182.8,370.6-182.9,370.6L-182.9,370.6z M-184.7,369.1
		c-0.1,0-0.2,0-0.3,0.1c-0.1,0.2-0.1,0.4,0.1,0.5c0,0,0,0,0,0c0,0,0,0,0,0c0,0,0,0,0,0c0.1,0.1,0.2,0.1,0.2,0.1c0.1,0,0.2,0,0.3-0.1
		c0.1-0.2,0.1-0.4-0.1-0.5l0,0C-184.5,369.1-184.6,369.1-184.7,369.1L-184.7,369.1z M-186.5,367.7c-0.1,0-0.2,0.1-0.3,0.2
		c-0.1,0.2-0.1,0.4,0.1,0.5c0,0,0,0,0,0c0,0,0,0,0,0c0,0,0,0,0,0c0,0,0,0,0,0c0.1,0,0.1,0.1,0.2,0.1c0.1,0,0.2-0.1,0.3-0.2
		c0.1-0.2,0.1-0.4-0.1-0.5l0,0C-186.3,367.7-186.4,367.7-186.5,367.7L-186.5,367.7z M-188.4,366.4c-0.1,0-0.2,0.1-0.3,0.2
		c-0.1,0.2-0.1,0.4,0.1,0.5c0,0,0,0,0,0c0,0,0,0,0,0c0.1,0,0.1,0.1,0.2,0.1c0.1,0,0.2-0.1,0.3-0.2c0.1-0.2,0.1-0.4-0.1-0.5l0,0
		C-188.3,366.5-188.3,366.4-188.4,366.4L-188.4,366.4z M-190.4,365.3c-0.1,0-0.3,0.1-0.3,0.2c-0.1,0.2,0,0.4,0.2,0.5c0,0,0,0,0,0
		c0,0,0,0,0,0c0.1,0,0.1,0,0.2,0c0.1,0,0.3-0.1,0.3-0.2c0.1-0.2,0-0.4-0.2-0.5l0,0C-190.3,365.3-190.3,365.3-190.4,365.3
		L-190.4,365.3z M-192.4,364.3c-0.1,0-0.3,0.1-0.3,0.2c-0.1,0.2,0,0.4,0.2,0.5c0,0,0,0,0,0c0,0,0,0,0,0c0,0,0,0,0,0c0,0,0.1,0,0.2,0
		c0.1,0,0.3-0.1,0.3-0.2c0.1-0.2,0-0.4-0.2-0.5l0,0C-192.3,364.3-192.4,364.3-192.4,364.3L-192.4,364.3z M-194.5,363.4
		c-0.1,0-0.3,0.1-0.3,0.2c-0.1,0.2,0,0.4,0.2,0.5c0,0,0,0,0,0c0,0,0.1,0,0.1,0c0.1,0,0.3-0.1,0.3-0.2c0.1-0.2,0-0.4-0.2-0.5l0,0
		C-194.5,363.4-194.5,363.4-194.5,363.4L-194.5,363.4z M-196.7,362.7c-0.2,0-0.3,0.1-0.4,0.3c-0.1,0.2,0,0.4,0.2,0.5c0,0,0,0,0,0
		c0,0,0,0,0,0c0,0,0.1,0,0.1,0c0.2,0,0.3-0.1,0.4-0.3c0.1-0.2,0-0.4-0.2-0.5l0,0C-196.6,362.7-196.7,362.7-196.7,362.7L-196.7,362.7
		z M-198.9,362.1c-0.2,0-0.3,0.1-0.4,0.3c0,0.2,0.1,0.4,0.3,0.4c0,0,0,0,0,0c0,0,0.1,0,0.1,0c0.2,0,0.3-0.1,0.4-0.3
		c0-0.2-0.1-0.4-0.3-0.4L-198.9,362.1C-198.9,362.1-198.9,362.1-198.9,362.1L-198.9,362.1z M-201.2,361.6c-0.2,0-0.3,0.1-0.4,0.3
		c0,0.2,0.1,0.4,0.3,0.4c0,0,0,0,0,0c0,0,0,0,0,0c0,0,0,0,0.1,0c0.2,0,0.3-0.1,0.4-0.3c0-0.2-0.1-0.4-0.3-0.4L-201.2,361.6
		C-201.1,361.6-201.1,361.6-201.2,361.6L-201.2,361.6z M-203.4,361.3c-0.2,0-0.3,0.1-0.4,0.3c0,0.2,0.1,0.4,0.3,0.4c0,0,0,0,0,0
		c0,0,0,0,0,0c0.2,0,0.3-0.1,0.4-0.3C-203,361.5-203.1,361.3-203.4,361.3L-203.4,361.3C-203.4,361.3-203.4,361.3-203.4,361.3
		L-203.4,361.3z M-205.7,361.1c-0.2,0-0.4,0.2-0.4,0.4c0,0.2,0.1,0.4,0.4,0.4c0,0,0,0,0,0c0,0,0,0,0,0c0.2,0,0.4-0.2,0.4-0.4
		C-205.3,361.3-205.4,361.1-205.7,361.1L-205.7,361.1C-205.7,361.1-205.7,361.1-205.7,361.1L-205.7,361.1z"/>
</g>
<g>
	<path class="st0" d="M-183.5,385.9c-0.2,0.1-0.3,0.1-0.4,0.1c-0.1,0-0.1,0-0.2,0c-0.1,0-0.2,0-0.3,0c-0.2,0-0.4-0.1-0.6-0.1
		c-0.3-0.1-0.6-0.2-0.9-0.3c-0.6-0.3-1.1-0.6-1.5-0.9c-1-0.6-1.9-1.3-2.7-2.1c-0.9-0.7-1.7-1.5-2.6-2c-0.9-0.6-1.9-1-3-0.9
		c-1,0.1-2,0.5-2.9,1.1c-0.8,0.6-1.5,1.4-2.1,2.3c-1.1,1.8-1.8,3.9-2.4,6c-1.2,4.1-1.7,8.5-1.4,12.9c0.1,2.2,0.5,4.3,1.3,6.3
		c0.4,1,0.8,2,1.4,2.9c0.6,0.9,1.3,1.7,2.1,2.4l0,0c0.1,0.1,0.2,0.4,0,0.5c-0.1,0.1-0.3,0.2-0.5,0c-0.9-0.7-1.7-1.5-2.4-2.5
		c-0.6-0.9-1.2-2-1.6-3c-0.8-2.1-1.3-4.4-1.5-6.6c-0.4-4.5,0.1-9,1.4-13.4c0.7-2.2,1.6-4.2,3-6.1c0.7-0.9,1.5-1.8,2.5-2.4
		c1-0.6,2.1-1,3.2-1.1c1.2-0.1,2.4,0.3,3.3,0.9c1,0.6,1.9,1.3,2.8,1.9c0.9,0.6,1.8,1.2,2.8,1.6c0.5,0.2,1,0.4,1.5,0.5
		c0.2,0.1,0.5,0.1,0.7,0.1c0.1,0,0.2,0,0.3,0c0,0,0.1,0,0.1,0c0,0,0,0,0,0c0,0,0,0-0.2,0c0.5-0.3,1.1-0.1,1.4,0.4
		C-182.8,385-183,385.6-183.5,385.9z"/>
	<path class="st0" d="M-232.7,384c0.2,0,0.7,0,1-0.1c0.4-0.1,0.8-0.2,1.2-0.4c0.8-0.3,1.5-0.8,2.3-1.3c1.5-1.1,3.1-2.1,4.8-3
		c1.7-0.9,3.6-1.5,5.6-1.3c2,0.1,3.9,1.4,4.9,3c1.1,1.7,1.5,3.6,1.7,5.5c0.2,1.9,0,3.8-0.2,5.7c-0.6,3.7-1.3,7.3-1.6,10.9
		c-0.2,1.8-0.2,3.6-0.1,5.5c0.1,1.8,0.5,3.6,1.3,5.2c0.8,1.6,2.3,2.8,4,3.2c1.8,0.4,3.6,0.5,5.4,0.3c3.6-0.4,7-2.8,7.9-5.9
		c0.3-0.7,0.3-1.5,0.3-2.3c0-0.8-0.1-1.5-0.5-2.2c-0.4-0.7-1.1-1.2-1.8-1.3c-0.8-0.1-1.6,0.2-1.9,0.7c-0.3,0.4-0.8,0.6-1.3,0.3
		c-0.4-0.3-0.6-0.8-0.3-1.3c0.1-0.1,0.2-0.3,0.3-0.3l0.1-0.1c2.2-1.2,4.5-0.5,6,1c0.7,0.8,1.2,1.9,1.3,2.9c0.1,1.1-0.1,2.1-0.5,3.1
		c-0.8,2-2.5,3.3-4.2,4.2c-1.7,0.9-3.6,1.3-5.5,1.5c-1.9,0.2-3.8,0.1-5.6-0.3c-1.9-0.4-3.5-1.7-4.5-3.4c-0.9-1.7-1.3-3.6-1.5-5.4
		c-0.2-1.9-0.2-3.7-0.1-5.6c0.2-3.7,0.8-7.4,1.4-11c0.2-1.8,0.4-3.6,0.3-5.4c-0.1-1.8-0.4-3.6-1.4-5c-0.9-1.5-2.4-2.5-4.1-2.6
		c-1.7-0.1-3.4,0.5-5,1.4c-1.6,0.9-3,2-4.4,3.2c-0.7,0.6-1.5,1.2-2.4,1.7c-0.4,0.2-0.9,0.5-1.4,0.7c-0.5,0.2-0.9,0.4-1.7,0.4l0,0
		c-0.6,0-1.1-0.4-1.1-1c0-0.6,0.4-1.1,1-1.1C-232.8,384-232.7,384-232.7,384z"/>
	<path class="st0" d="M-205.1,405.1c0-0.9,0.2-1.7,0.5-2.5c0.3-0.8,0.7-1.5,1.2-2.2c0.9-1.3,2.4-2.5,4.3-2.4c0.8,0,1.8,0.3,2.5,1.1
		c0.6,0.7,0.9,1.7,0.8,2.6c0,0.9-0.3,1.8-0.7,2.6c-0.4,0.8-1.1,1.5-2,2l-0.1,0.1c-0.5,0.3-1.2,0.1-1.5-0.4c-0.3-0.5-0.1-1.2,0.4-1.5
		c0.1-0.1,0.2-0.1,0.3-0.1c1.1-0.2,2.1-1.4,2.3-2.7c0.1-0.6,0-1.3-0.4-1.8c-0.4-0.5-1-0.8-1.7-0.8c-1.4-0.1-2.7,0.8-3.5,2
		c-0.8,1.2-1.4,2.7-1.3,4.1l0,0c0,0.3-0.2,0.6-0.5,0.6C-204.8,405.8-205.1,405.5-205.1,405.1C-205.1,405.2-205.1,405.2-205.1,405.1z
		"/>
	<path class="st0" d="M-199.5,380.8c1.5-1.5,3.6-2,5.6-2c2,0,4,0.5,5.8,1.2c1.8,0.6,3.7,1,5.6,1.1c1.9,0,3.8-0.3,5.4-1.2l0,0l0,0
		c0.1-0.1,0.3,0,0.3,0.1c0,0.1,0,0.1,0,0.2c-0.5,1.4-1.3,2.8-2.3,4c-0.5,0.6-1.1,1.1-1.7,1.6c-0.6,0.4-1.4,0.8-2.1,1l0,0l0.2-0.3
		c0.4,1.3,0.3,2.7-0.2,4c-0.3,0.6-0.7,1.2-1.2,1.6c-0.5,0.5-1.1,0.8-1.7,1l0,0l0.2-0.2c0.1,1.6-0.4,3.3-1.4,4.5
		c-1,1.3-2.6,2.1-4.3,2.4c-1.6,0.2-3.4-0.1-4.8-1.2c-0.4-0.2-0.6-0.6-0.9-1c-0.2-0.4-0.4-0.8-0.6-1.2c-0.1-0.4-0.2-0.8-0.2-1.3
		c0-0.5,0.1-0.9,0.2-1.3c0.6-1.7,2.4-2.8,4.2-2.5c1.8,0.3,3,2.4,2.3,4.1c-0.4,0.8-1.2,1.4-2,1.5c-0.9,0.1-1.8-0.4-2.1-1.3
		c-0.4-0.8,0-1.9,0.8-2.3c0.4-0.2,0.9-0.2,1.3,0c0.4,0.2,0.8,0.6,0.9,1.1l0,0.1c0.1,0.2-0.1,0.5-0.3,0.5c-0.2,0.1-0.5-0.1-0.5-0.3
		c0-0.1,0-0.1,0-0.2c0.1-0.5-0.6-1.1-1.2-0.7c-0.6,0.3-0.8,1-0.6,1.6c0.3,0.6,0.9,1,1.6,0.9c0.7-0.1,1.2-0.5,1.5-1.2
		c0.2-0.6,0.1-1.3-0.2-1.9c-0.4-0.5-0.9-0.9-1.6-1c-1.3-0.2-2.6,0.7-3,2c-0.2,0.6-0.1,1.3,0.1,1.9c0.1,0.3,0.3,0.6,0.4,0.9
		c0.2,0.2,0.4,0.5,0.7,0.7c1,0.8,2.5,1.1,3.9,0.9c1.4-0.2,2.7-0.8,3.7-1.8c1-1,1.5-2.4,1.7-3.9c0-0.1,0.1-0.2,0.2-0.2l0,0
		c0.5-0.3,1.1-0.6,1.5-1c0.4-0.4,0.8-0.9,1-1.5c0.5-1.1,0.5-2.4,0.3-3.6c0-0.1,0.1-0.3,0.2-0.3l0,0c0.7-0.2,1.4-0.5,2-0.9
		c0.6-0.4,1.1-0.9,1.6-1.5c0.9-1.1,1.7-2.5,2.2-3.8l0.4,0.3l0,0c-1.6,1.3-3.7,1.7-5.7,1.7c-2,0-4-0.5-5.9-1.1
		c-1.8-0.6-3.7-1.2-5.6-1.3c-1.9-0.1-3.9,0.3-5.3,1.5l0,0c-0.1,0.1-0.2,0.1-0.3,0C-199.5,380.9-199.5,380.8-199.5,380.8z"/>
	<path class="st0" d="M-216.3,378.9c-0.6-0.6-1.5-1-2.4-1.2c-0.9-0.2-1.9-0.2-2.8-0.1c-1.9,0.2-3.7,0.9-5.5,1.7
		c-1.8,0.7-3.6,1.6-5.3,2.5l-2.7,1.3c-0.5,0.2-0.9,0.4-1.4,0.6c-0.5,0.2-1,0.4-1.7,0.3l0,0l0.7-1c0.5,0.9,1.2,1.8,1.9,2.5
		c0.8,0.7,1.7,1.3,2.7,1.4l0,0c0.2,0,0.3,0.2,0.3,0.4l0,0c-0.2,0.7-0.4,1.4-0.5,2.1c-0.1,0.7-0.2,1.4-0.1,2c0.1,0.6,0.3,1.2,0.7,1.6
		c0.4,0.4,1.1,0.6,1.8,0.8l0,0l0.1,0c0.1,0,0.2,0.1,0.2,0.3c0.1,2.5,1.6,4.7,3.7,5.8c1,0.6,2.3,0.9,3.4,0.7c1.1-0.2,2-1,2.3-2.1
		c0.3-1-0.1-2.3-1.1-2.8c-0.9-0.6-2.3-0.3-2.8,0.7c-0.3,0.5-0.3,1.1,0,1.6c0.3,0.5,0.8,0.8,1.3,0.8c0.5,0,1-0.4,1.1-0.9
		c0.1-0.5-0.2-0.9-0.6-1c-0.3,0-0.5-0.2-0.5-0.5c0-0.3,0.2-0.5,0.5-0.5c0.1,0,0.1,0,0.2,0l0.1,0c0.9,0.3,1.3,1.3,1,2.1
		c-0.3,0.7-1,1.3-1.7,1.3c-0.8,0-1.4-0.4-1.8-1.1c-0.4-0.6-0.4-1.5,0-2.1c0.3-0.6,0.9-1.2,1.6-1.4c0.7-0.2,1.5-0.1,2.1,0.2
		c1.3,0.7,2,2.3,1.6,3.7c-0.1,0.3-0.3,0.7-0.4,1c-0.2,0.3-0.4,0.6-0.7,0.9c-0.6,0.5-1.2,0.9-1.9,1c-1.4,0.2-2.8-0.1-4-0.8
		c-1.2-0.7-2.2-1.7-2.8-2.8c-0.7-1.2-1-2.5-0.9-3.9l0.3,0.3l0,0c-0.8,0-1.6,0-2.4-0.5c-0.7-0.5-1.1-1.4-1.2-2.3
		c-0.1-1.7,0.4-3.2,1.2-4.5l0.2,0.4l0,0c-1.2,0-2.4-0.5-3.3-1.2c-0.5-0.4-0.9-0.8-1.3-1.2c-0.4-0.4-0.8-0.9-1.1-1.4
		c-0.2-0.3-0.1-0.7,0.1-0.9c0.1-0.1,0.2-0.1,0.3-0.1l0.2,0l0,0c0.2,0,0.7-0.1,1.1-0.2c0.4-0.1,0.9-0.3,1.3-0.5l2.7-1.2
		c1.8-0.8,3.6-1.6,5.5-2.3c1.9-0.7,3.8-1.3,5.8-1.5c2-0.2,4.2,0.1,5.8,1.7c0.1,0.1,0.1,0.3,0,0.4
		C-216,379.1-216.1,379.1-216.3,378.9L-216.3,378.9z"/>
	<path class="st0" d="M-201.8,385.2c-0.6,1.8-0.8,3.8-0.6,5.7c0.2,1.9,1,3.7,2.4,5.1l0,0c0.2,0.1,0.2,0.4,0,0.5c0,0-0.1,0.1-0.1,0.1
		l-0.1,0l-2.4,1.4c-0.2,0.1-0.4,0.1-0.5,0c-0.5-0.3-0.8-0.6-1.1-0.9c-0.3-0.3-0.5-0.7-0.7-1.1c-0.4-0.8-0.5-1.7-0.4-2.5
		c0-0.2,0.2-0.3,0.3-0.3c0.2,0,0.3,0.1,0.3,0.3c0.1,0.7,0.3,1.4,0.6,2c0.2,0.3,0.4,0.6,0.7,0.8c0.2,0.2,0.6,0.4,0.8,0.5l-0.5,0
		l2.7-0.9l-0.1,0.6l0,0c-1.5-1.4-2.4-3.5-2.6-5.5c-0.1-1-0.1-2.1,0-3.1c0.1-1,0.3-2,0.7-3c0.1-0.2,0.3-0.3,0.4-0.2
		C-201.8,384.8-201.7,385-201.8,385.2L-201.8,385.2z"/>
	<path class="st0" d="M-201.2,394c-0.3,0.3-0.6,0.4-0.9,0.6c-0.3,0.2-0.6,0.3-0.9,0.4c-0.6,0.2-1.3,0.3-1.9,0.4
		c-0.1,0-0.3-0.1-0.3-0.3c0-0.1,0.1-0.3,0.2-0.3c0.6-0.1,1.1-0.3,1.7-0.5c0.3-0.1,0.5-0.3,0.7-0.4c0.2-0.2,0.5-0.4,0.6-0.5l0,0
		c0.2-0.2,0.5-0.3,0.7-0.1C-201,393.5-200.9,393.8-201.2,394C-201.1,394-201.1,394-201.2,394z"/>
	<path class="st0" d="M-212.4,382.1c0.2,1.6-0.1,3.2-0.4,4.7c-0.3,1.5-0.7,3-1.3,4.5c-0.5,1.5-1.2,2.9-2.1,4.2
		c-0.9,1.3-2,2.6-3.6,3.2l0.1-0.8c0.7,0.4,1.6,0.5,2.5,0.4c0.8-0.1,1.6-0.5,2.2-1.2c1.3-1.2,2-3,2.6-4.8c0-0.1,0.2-0.2,0.3-0.2
		c0.1,0,0.2,0.2,0.2,0.3c-0.5,1.8-1.1,3.7-2.5,5.2c-0.7,0.7-1.6,1.3-2.7,1.5c-1,0.2-2.1,0-3-0.5c-0.2-0.1-0.3-0.4-0.2-0.6
		c0.1-0.1,0.1-0.2,0.2-0.2l0,0c1.3-0.5,2.3-1.7,3.1-2.9c0.8-1.2,1.5-2.6,2-4c0.5-1.4,1-2.9,1.4-4.3c0.3-1.5,0.7-3,0.6-4.5l0,0
		c0-0.1,0.1-0.3,0.2-0.3C-212.5,381.9-212.4,382-212.4,382.1z"/>
	<path class="st0" d="M-214.1,390.5c-0.2,1-0.6,1.8-1,2.7l-0.1-0.4c0.4,0.2,0.9,0.4,1.4,0.5c0.5,0.1,1,0.1,1.5,0
		c0.1,0,0.2,0,0.2,0.1c0,0.1,0,0.2-0.1,0.2c-0.5,0.3-1.1,0.3-1.7,0.3c-0.6-0.1-1.1-0.3-1.7-0.5c-0.2-0.1-0.2-0.3-0.1-0.4l0,0l0,0
		c0.4-0.8,0.8-1.6,1.2-2.5l0,0c0-0.1,0.1-0.1,0.2-0.1C-214.2,390.3-214.1,390.4-214.1,390.5z"/>
	<path class="st0" d="M-209.6,416.6c-2.8-1.2-5.1-3.3-6.9-5.7c-1.7-2.3-4.3-3.8-7-4.3c-1.4-0.2-2.8-0.2-4.2,0.1
		c-1.4,0.3-2.7,0.7-3.7,1.5c-2.1,1.6-2.8,4.9-1.3,7.1c0.7,1.1,1.9,2,3.2,2.6c1.3,0.5,2.7,0.9,4.2,1.1c2.9,0.6,5.8,1,8.7,1.2
		c2.9,0.3,5.9,0.4,8.8,0.8c0.7,0.1,1.5,0.3,2.3,0.7c0.7,0.4,1.3,1.1,1.6,2c0.2,0.9,0.1,1.8-0.4,2.6c-0.5,0.8-1.4,1.2-2.3,1.2l0,0
		c-1.6,0.3-3.4-0.8-3.6-2.4c-0.1-0.8,0.1-1.6,0.5-2.2c0.5-0.6,1.3-1,2-0.9c0.8,0.1,1.5,0.5,1.8,1.2c0.3,0.7,0.2,1.6-0.3,2.2
		c-0.5,0.6-1.5,0.8-2.3,0.3c-0.8-0.4-1.1-1.7-0.5-2.5l0.1-0.2c0.2-0.3,0.7-0.4,1-0.2c0.3,0.2,0.4,0.7,0.2,1
		c-0.1,0.1-0.2,0.2-0.3,0.2c-0.3,0.1-0.4,0.7-0.1,1.1c0.4,0.4,1.1,0.4,1.5,0c0.4-0.4,0.5-1.1,0.3-1.6c-0.2-0.5-0.9-0.9-1.4-0.9
		c-1.3-0.1-2.1,1.4-1.8,2.4c0.3,1.1,1.6,1.7,2.6,1.5l0,0l0,0c1.2-0.1,2.1-1.3,1.8-2.4c-0.1-0.6-0.5-1.1-1.1-1.4
		c-0.5-0.4-1.2-0.5-1.9-0.7c-2.8-0.6-5.8-0.9-8.7-1.2c-2.9-0.3-5.9-0.6-8.8-1.1c-1.5-0.2-2.9-0.5-4.4-1c-1.4-0.5-2.8-1.5-3.7-2.8
		c-0.9-1.3-1.3-3-1-4.6c0.3-1.6,1.2-3.1,2.4-4.1c0.3-0.3,0.7-0.5,1-0.7c0.3-0.2,0.7-0.3,1.1-0.5c0.7-0.3,1.5-0.5,2.2-0.6
		c1.5-0.3,3.1-0.3,4.6,0c3.1,0.5,5.8,2.4,7.6,4.9c1.7,2.3,3.8,4.4,6.3,5.8l0,0c0.1,0.1,0.1,0.2,0.1,0.3
		C-209.4,416.6-209.5,416.6-209.6,416.6z"/>
	<path class="st0" d="M-195.5,405c0.4-0.9,0.9-1.6,1.4-2.2c0.6-0.7,1.2-1.3,1.8-1.9c1.3-1.2,2.8-2.2,4.5-2.8c1.7-0.7,3.6-1,5.5-0.6
		c1.9,0.3,3.8,1.5,4.8,3.3c1,1.8,1,3.8,0.7,5.7c-0.4,1.8-1.2,3.5-2.4,5c-0.6,0.7-1.3,1.4-2,1.9c-0.7,0.5-1.5,1-2.2,1.4
		c-1.5,0.9-3.1,1.6-4.6,2.3c-3.1,1.4-6.3,2.5-9.2,4.2c-1.4,0.8-2.7,1.8-3.6,3.2c-0.4,0.7-0.6,1.4-0.6,2.2c0,0.8,0.4,1.5,0.9,2
		c0.5,0.5,1.3,0.8,2,0.8c0.7,0,1.4-0.5,1.8-1.1c0.4-0.6,0.5-1.5,0.2-2.1c-0.3-0.7-1-1.1-1.7-1.1c-0.7-0.1-1.4,0.4-1.6,1
		c-0.3,0.6,0,1.3,0.5,1.7c0.5,0.3,1.2,0.2,1.5-0.4c0.1-0.2,0.1-0.6,0-0.7c-0.1-0.1-0.3-0.2-0.5-0.1c-0.3,0-0.6-0.2-0.7-0.5
		c0-0.3,0.2-0.7,0.5-0.7c0,0,0,0,0,0l0,0c0.5-0.1,1.3,0.2,1.7,0.8c0.3,0.7,0.2,1.3-0.1,1.8c-0.3,0.5-0.8,0.9-1.3,1
		c-0.6,0.1-1.1,0-1.6-0.3c-0.9-0.6-1.2-1.9-0.8-2.8c0.4-1,1.4-1.6,2.5-1.5c1,0.1,1.9,0.7,2.3,1.6c0.4,0.9,0.2,2-0.3,2.8
		c-0.5,0.8-1.4,1.3-2.3,1.4c-1,0.1-1.9-0.3-2.6-0.9c-0.7-0.6-1.1-1.5-1.2-2.5c-0.1-0.9,0.2-1.9,0.6-2.7c0.9-1.6,2.3-2.8,3.7-3.7
		c2.9-1.9,6.1-3.2,9.1-4.7c1.5-0.8,3-1.5,4.4-2.4c1.4-0.9,2.7-1.8,3.6-3c0.9-1.2,1.6-2.6,1.9-4.1c0.3-1.5,0.2-3-0.5-4.2
		c-0.6-1.2-1.9-2-3.3-2.3c-1.4-0.4-3-0.2-4.5,0.3c-1.5,0.5-2.9,1.3-4.3,2.2c-1.3,0.9-2.6,2-3.5,3.3l0,0c-0.1,0.2-0.3,0.2-0.5,0.1
		C-195.6,405.3-195.6,405.2-195.5,405z"/>
	<g>
		<path class="st0" d="M-192.8,379.3C-192.8,379.3-192.8,379.3-192.8,379.3c-0.4,0-0.7-0.2-0.9-0.4c-0.2-0.2-0.3-0.6-0.3-0.9
			c0-0.3,0.2-0.6,0.4-0.9c0.2-0.2,0.6-0.3,0.9-0.3c0.3,0,0.6,0.2,0.9,0.4c0.2,0.2,0.3,0.6,0.3,0.9v0
			C-191.6,378.8-192.1,379.3-192.8,379.3z M-192.8,377.3c-0.2,0-0.3,0.1-0.5,0.2c-0.1,0.1-0.2,0.3-0.2,0.5c0,0.2,0.1,0.4,0.2,0.5
			c0.1,0.1,0.3,0.2,0.5,0.2c0.4,0,0.7-0.3,0.8-0.7c0-0.2-0.1-0.4-0.2-0.5C-192.4,377.4-192.6,377.3-192.8,377.3
			C-192.8,377.3-192.8,377.3-192.8,377.3z M-191.8,378.1L-191.8,378.1L-191.8,378.1z"/>
	</g>
	<g>
		<path class="st0" d="M-190.7,379.6C-190.7,379.6-190.8,379.6-190.7,379.6c-0.4,0-0.7-0.2-0.9-0.4c-0.2-0.2-0.3-0.6-0.3-0.9
			c0-0.3,0.2-0.6,0.4-0.9c0.2-0.2,0.6-0.3,0.9-0.3c0.7,0,1.2,0.6,1.2,1.3v0C-189.5,379.1-190.1,379.6-190.7,379.6z M-190.7,377.7
			c-0.2,0-0.3,0.1-0.5,0.2c-0.1,0.1-0.2,0.3-0.2,0.5c0,0.2,0.1,0.4,0.2,0.5c0.1,0.1,0.3,0.2,0.5,0.2c0.4,0,0.7-0.3,0.8-0.7
			C-190,378-190.3,377.7-190.7,377.7C-190.7,377.7-190.7,377.7-190.7,377.7z M-189.7,378.4L-189.7,378.4L-189.7,378.4z"/>
	</g>
	<g>
		<path class="st0" d="M-188.7,380.2C-188.7,380.2-188.8,380.2-188.7,380.2c-0.8,0-1.3-0.6-1.2-1.3c0-0.7,0.6-1.2,1.3-1.2
			c0.7,0,1.2,0.6,1.2,1.3c0,0.3-0.2,0.6-0.4,0.9C-188.1,380.1-188.4,380.2-188.7,380.2z M-188.7,378.2c-0.4,0-0.7,0.3-0.7,0.7
			c0,0.2,0.1,0.4,0.2,0.5c0.1,0.1,0.3,0.2,0.5,0.2c0.2,0,0.4-0.1,0.5-0.2c0.1-0.1,0.2-0.3,0.2-0.5l0,0
			C-188,378.6-188.3,378.3-188.7,378.2C-188.7,378.2-188.7,378.2-188.7,378.2z"/>
	</g>
	<g>
		<path class="st0" d="M-186.8,380.8C-186.8,380.8-186.8,380.8-186.8,380.8c-0.8,0-1.3-0.6-1.2-1.3c0-0.3,0.2-0.6,0.4-0.9
			c0.2-0.2,0.6-0.3,0.9-0.3c0.7,0,1.2,0.6,1.2,1.3l0,0c0,0.3-0.2,0.6-0.4,0.9C-186.2,380.6-186.5,380.8-186.8,380.8z M-186.8,378.8
			c-0.2,0-0.3,0.1-0.5,0.2c-0.1,0.1-0.2,0.3-0.2,0.5c0,0.4,0.3,0.7,0.7,0.8c0.2,0,0.4-0.1,0.5-0.2c0.1-0.1,0.2-0.3,0.2-0.5
			C-186,379.2-186.3,378.8-186.8,378.8C-186.7,378.8-186.7,378.8-186.8,378.8z M-185.8,379.6L-185.8,379.6L-185.8,379.6z"/>
	</g>
	<g>
		<path class="st0" d="M-184.7,381.2C-184.8,381.2-184.8,381.2-184.7,381.2c-0.4,0-0.7-0.2-0.9-0.4c-0.2-0.2-0.3-0.6-0.3-0.9
			c0-0.7,0.6-1.2,1.3-1.2c0.7,0,1.2,0.6,1.2,1.3v0C-183.5,380.7-184.1,381.2-184.7,381.2z M-184.7,379.2c-0.4,0-0.7,0.3-0.7,0.7
			c0,0.2,0.1,0.4,0.2,0.5c0.1,0.1,0.3,0.2,0.5,0.2c0.4,0,0.7-0.3,0.8-0.7C-184,379.6-184.3,379.3-184.7,379.2
			C-184.7,379.2-184.7,379.2-184.7,379.2z M-183.8,380L-183.8,380L-183.8,380z"/>
	</g>
	<g>
		<path class="st0" d="M-182.6,381.5C-182.7,381.5-182.7,381.5-182.6,381.5c-0.4,0-0.7-0.2-0.9-0.4c-0.2-0.2-0.3-0.6-0.3-0.9
			c0-0.3,0.2-0.6,0.4-0.8c0.2-0.2,0.6-0.3,0.9-0.3c0.7,0,1.2,0.6,1.2,1.3v0C-181.4,381-182,381.5-182.6,381.5z M-182.6,379.6
			c-0.2,0-0.3,0.1-0.5,0.2c-0.1,0.1-0.2,0.3-0.2,0.5c0,0.2,0.1,0.4,0.2,0.5c0.1,0.1,0.3,0.2,0.5,0.2c0.4,0,0.7-0.3,0.8-0.7
			C-181.9,379.9-182.2,379.6-182.6,379.6C-182.6,379.6-182.6,379.6-182.6,379.6z M-181.7,380.3L-181.7,380.3L-181.7,380.3z"/>
	</g>
	<g>
		<path class="st0" d="M-180.6,381.5C-180.7,381.5-180.7,381.5-180.6,381.5c-0.8,0-1.3-0.6-1.2-1.3c0-0.3,0.2-0.6,0.4-0.9
			c0.2-0.2,0.6-0.3,0.9-0.3c0.7,0,1.2,0.6,1.2,1.3c0,0.3-0.2,0.6-0.4,0.9C-180,381.4-180.3,381.5-180.6,381.5z M-180.6,379.5
			c-0.2,0-0.3,0.1-0.5,0.2c-0.1,0.1-0.2,0.3-0.2,0.5c0,0.4,0.3,0.7,0.7,0.8c0.2,0,0.4-0.1,0.5-0.2c0.1-0.1,0.2-0.3,0.2-0.5
			C-179.9,379.9-180.2,379.5-180.6,379.5C-180.6,379.5-180.6,379.5-180.6,379.5z"/>
	</g>
	<g>
		<path class="st0" d="M-178.7,381C-178.7,381-178.8,381-178.7,381c-0.8,0-1.3-0.6-1.2-1.3c0-0.3,0.2-0.6,0.4-0.9
			c0.2-0.2,0.6-0.3,0.9-0.3c0.7,0,1.2,0.6,1.2,1.3v0C-177.5,380.5-178.1,381-178.7,381z M-178.7,379c-0.2,0-0.3,0.1-0.5,0.2
			c-0.1,0.1-0.2,0.3-0.2,0.5c0,0.4,0.3,0.7,0.7,0.8c0.4,0,0.7-0.3,0.8-0.7C-178,379.4-178.3,379-178.7,379
			C-178.7,379-178.7,379-178.7,379z M-177.7,379.8L-177.7,379.8L-177.7,379.8z"/>
	</g>
	<g>
		<path class="st0" d="M-194.8,379.2C-194.8,379.2-194.8,379.2-194.8,379.2c-0.8,0-1.3-0.6-1.2-1.3c0-0.7,0.6-1.2,1.3-1.2
			c0.3,0,0.6,0.2,0.9,0.4c0.2,0.2,0.3,0.6,0.3,0.9c0,0.3-0.2,0.6-0.4,0.9C-194.2,379.1-194.5,379.2-194.8,379.2z M-194.8,377.2
			c-0.4,0-0.7,0.3-0.7,0.7c0,0.2,0.1,0.4,0.2,0.5c0.1,0.1,0.3,0.2,0.5,0.2c0.2,0,0.4-0.1,0.5-0.2c0.1-0.1,0.2-0.3,0.2-0.5v0
			c0-0.2-0.1-0.4-0.2-0.5C-194.4,377.3-194.5,377.2-194.8,377.2C-194.8,377.2-194.8,377.2-194.8,377.2z"/>
	</g>
	<g>
		<path class="st0" d="M-219.4,377.4C-219.5,377.4-219.5,377.4-219.4,377.4c-0.8,0-1.3-0.6-1.2-1.3c0-0.3,0.2-0.6,0.4-0.9
			c0.2-0.2,0.6-0.3,0.9-0.3c0.7,0,1.2,0.6,1.2,1.3l0,0c0,0.3-0.2,0.6-0.4,0.9C-218.8,377.3-219.1,377.4-219.4,377.4z M-219.4,375.4
			c-0.2,0-0.3,0.1-0.5,0.2c-0.1,0.1-0.2,0.3-0.2,0.5c0,0.4,0.3,0.7,0.7,0.8c0.2,0,0.4-0.1,0.5-0.2c0.1-0.1,0.2-0.3,0.2-0.5
			C-218.7,375.8-219,375.4-219.4,375.4C-219.4,375.4-219.4,375.4-219.4,375.4z M-218.5,376.2L-218.5,376.2L-218.5,376.2z"/>
	</g>
	<g>
		<path class="st0" d="M-221.4,377.5C-221.5,377.5-221.5,377.5-221.4,377.5c-0.4,0-0.7-0.2-0.9-0.4c-0.2-0.2-0.3-0.6-0.3-0.9
			c0-0.3,0.2-0.6,0.4-0.9c0.2-0.2,0.6-0.3,0.9-0.3c0.7,0,1.2,0.6,1.2,1.3v0C-220.2,377-220.8,377.5-221.4,377.5z M-221.4,375.5
			c-0.2,0-0.3,0.1-0.5,0.2c-0.1,0.1-0.2,0.3-0.2,0.5c0,0.2,0.1,0.4,0.2,0.5c0.1,0.1,0.3,0.2,0.5,0.2c0.4,0,0.7-0.3,0.8-0.7
			c0-0.2-0.1-0.4-0.2-0.5C-221,375.6-221.2,375.5-221.4,375.5C-221.4,375.5-221.4,375.5-221.4,375.5z M-220.5,376.3L-220.5,376.3
			L-220.5,376.3z"/>
	</g>
	<g>
		<path class="st0" d="M-223.4,377.8C-223.4,377.8-223.5,377.8-223.4,377.8c-0.8,0-1.3-0.6-1.2-1.3c0-0.7,0.6-1.2,1.3-1.2
			c0.3,0,0.6,0.2,0.9,0.4c0.2,0.2,0.3,0.6,0.3,0.9c0,0.3-0.2,0.6-0.4,0.9C-222.8,377.7-223.1,377.8-223.4,377.8z M-223.4,375.8
			c-0.4,0-0.7,0.3-0.7,0.7c0,0.2,0.1,0.4,0.2,0.5c0.1,0.1,0.3,0.2,0.5,0.2c0.2,0,0.4-0.1,0.5-0.2c0.1-0.1,0.2-0.3,0.2-0.5v0
			c0-0.2-0.1-0.4-0.2-0.5C-223,375.9-223.2,375.8-223.4,375.8C-223.4,375.8-223.4,375.8-223.4,375.8z"/>
	</g>
	<g>
		<path class="st0" d="M-225.3,378.3C-225.4,378.3-225.4,378.3-225.3,378.3c-0.8,0-1.3-0.6-1.2-1.3c0-0.3,0.2-0.6,0.4-0.9
			c0.2-0.2,0.6-0.3,0.9-0.3c0.7,0,1.2,0.6,1.2,1.3l0,0c0,0.3-0.2,0.6-0.4,0.9C-224.7,378.1-225,378.3-225.3,378.3z M-225.3,376.3
			c-0.2,0-0.3,0.1-0.5,0.2c-0.1,0.1-0.2,0.3-0.2,0.5c0,0.4,0.3,0.7,0.7,0.8c0.2,0,0.4-0.1,0.5-0.2c0.1-0.1,0.2-0.3,0.2-0.5
			C-224.6,376.7-224.9,376.3-225.3,376.3C-225.3,376.3-225.3,376.3-225.3,376.3z M-224.4,377.1L-224.4,377.1L-224.4,377.1z"/>
	</g>
	<g>
		<path class="st0" d="M-227.2,379C-227.2,379-227.3,379-227.2,379c-0.4,0-0.7-0.2-0.9-0.4c-0.2-0.2-0.3-0.6-0.3-0.9
			c0-0.7,0.6-1.2,1.3-1.2c0.7,0,1.2,0.6,1.2,1.3v0C-226,378.5-226.6,379-227.2,379z M-227.2,377c-0.4,0-0.7,0.3-0.7,0.7
			c0,0.2,0.1,0.4,0.2,0.5c0.1,0.1,0.3,0.2,0.5,0.2c0.4,0,0.7-0.3,0.8-0.7C-226.5,377.4-226.8,377.1-227.2,377
			C-227.2,377-227.2,377-227.2,377z M-226.2,377.8L-226.2,377.8L-226.2,377.8z"/>
	</g>
	<g>
		<path class="st0" d="M-229.1,379.8C-229.1,379.8-229.1,379.8-229.1,379.8c-0.8,0-1.3-0.6-1.2-1.3c0-0.7,0.6-1.2,1.3-1.2
			c0.3,0,0.6,0.2,0.9,0.4c0.2,0.2,0.3,0.6,0.3,0.9l0,0c0,0.3-0.2,0.6-0.4,0.9C-228.5,379.7-228.8,379.8-229.1,379.8z M-229.1,377.9
			c-0.4,0-0.7,0.3-0.7,0.7c0,0.4,0.3,0.7,0.7,0.8c0.2,0,0.4-0.1,0.5-0.2c0.1-0.1,0.2-0.3,0.2-0.5v0c0-0.2-0.1-0.4-0.2-0.5
			C-228.7,378-228.9,377.9-229.1,377.9C-229.1,377.9-229.1,377.9-229.1,377.9z"/>
	</g>
	<g>
		<path class="st0" d="M-231,380.7C-231,380.7-231.1,380.7-231,380.7c-0.8,0-1.3-0.6-1.2-1.3c0-0.3,0.2-0.6,0.4-0.9
			c0.2-0.2,0.6-0.3,0.9-0.3c0.7,0,1.2,0.6,1.2,1.3c0,0.3-0.2,0.6-0.4,0.9C-230.4,380.6-230.7,380.7-231,380.7z M-231,378.7
			c-0.2,0-0.3,0.1-0.5,0.2c-0.1,0.1-0.2,0.3-0.2,0.5c0,0.4,0.3,0.7,0.7,0.8c0.2,0,0.4,0,0.5-0.2c0.1-0.1,0.2-0.3,0.2-0.5
			C-230.3,379.1-230.6,378.8-231,378.7C-231,378.7-231,378.7-231,378.7z"/>
	</g>
	<g>
		<path class="st0" d="M-232.8,381.4C-232.9,381.4-232.9,381.4-232.8,381.4c-0.4,0-0.7-0.2-0.9-0.4c-0.2-0.2-0.3-0.6-0.3-0.9
			c0-0.3,0.2-0.6,0.4-0.9c0.2-0.2,0.6-0.3,0.9-0.3c0.7,0,1.2,0.6,1.2,1.3v0C-231.6,380.9-232.2,381.4-232.8,381.4z M-232.8,379.4
			c-0.2,0-0.3,0.1-0.5,0.2c-0.1,0.1-0.2,0.3-0.2,0.5c0,0.2,0.1,0.4,0.2,0.5c0.1,0.1,0.3,0.2,0.5,0.2c0.4,0,0.7-0.3,0.8-0.7
			c0-0.2-0.1-0.4-0.2-0.5C-232.4,379.5-232.6,379.4-232.8,379.4C-232.8,379.4-232.8,379.4-232.8,379.4z M-231.9,380.2L-231.9,380.2
			L-231.9,380.2z"/>
	</g>
	<g>
		<path class="st0" d="M-234.5,382.3C-234.6,382.3-234.6,382.3-234.5,382.3c-0.8,0-1.3-0.6-1.2-1.3c0-0.7,0.6-1.2,1.3-1.2
			c0.7,0,1.2,0.6,1.2,1.3l0,0c0,0.3-0.2,0.6-0.4,0.9C-234,382.2-234.2,382.3-234.5,382.3z M-234.5,380.4c-0.4,0-0.7,0.3-0.7,0.7
			c0,0.4,0.3,0.7,0.7,0.8c0.2,0,0.4-0.1,0.5-0.2c0.1-0.1,0.2-0.3,0.2-0.5C-233.8,380.7-234.1,380.4-234.5,380.4
			C-234.5,380.4-234.5,380.4-234.5,380.4z M-233.6,381.1L-233.6,381.1L-233.6,381.1z"/>
	</g>
	<g>
		<path class="st0" d="M-236.3,383.2C-236.3,383.2-236.4,383.2-236.3,383.2c-0.4,0-0.7-0.2-0.9-0.4c-0.2-0.2-0.3-0.6-0.3-0.9
			c0-0.3,0.2-0.6,0.4-0.9c0.2-0.2,0.6-0.3,0.9-0.3c0.3,0,0.6,0.2,0.9,0.4c0.2,0.2,0.3,0.6,0.3,0.9v0
			C-235.1,382.7-235.7,383.2-236.3,383.2z M-236.3,381.2c-0.2,0-0.3,0.1-0.5,0.2c-0.1,0.1-0.2,0.3-0.2,0.5c0,0.2,0.1,0.4,0.2,0.5
			c0.1,0.1,0.3,0.2,0.5,0.2c0.4,0,0.7-0.3,0.8-0.7c0-0.2-0.1-0.4-0.2-0.5C-235.9,381.3-236.1,381.2-236.3,381.2
			C-236.3,381.2-236.3,381.2-236.3,381.2z M-235.3,382L-235.3,382L-235.3,382z"/>
	</g>
	<path class="st0" d="M-199,374.7c-0.7,0-1.3,0-1.9,0l0.2-0.1c-0.3,1.2-0.9,2.5-2,3.4c-1,0.9-2.4,1.4-3.7,1.3
		c-1.4-0.1-2.7-0.8-3.5-1.8c-0.9-1-1.3-2.3-1.5-3.6l0.2,0.2l-2-0.2l0.2-0.2c0.4,1.7,1.1,3.4,2.2,4.6c1.1,1.2,2.7,2,4.4,2.1
		c1.7,0.1,3.3-0.5,4.6-1.6C-200.6,377.7-199.7,376.1-199,374.7z M-198.7,374.5c-0.3,2-1.3,3.6-2.6,4.9c-1.4,1.3-3.3,2-5.2,1.9
		c-1.9-0.1-3.8-1.1-5-2.5c-1.2-1.5-1.8-3.3-1.9-5.1c0-0.1,0.1-0.2,0.1-0.2l0,0l2.1,0.1c0.1,0,0.2,0.1,0.2,0.2l0,0
		c0.3,1.2,0.8,2.3,1.6,3.2c0.8,0.9,1.9,1.4,3.1,1.5c1.2,0.1,2.3-0.3,3.2-1.1c0.9-0.7,1.6-1.8,2-2.9l0,0c0-0.1,0.1-0.1,0.2-0.1
		C-200.2,374.3-199.4,374.4-198.7,374.5z"/>
	<path class="st0" d="M-203.8,374.2c0.1,0.5,0.1,1.2-0.1,1.7c-0.3,0.6-0.8,1-1.5,1.2c-0.6,0.1-1.3,0-1.9-0.4c-0.5-0.4-0.9-1-1-1.6
		c-0.2-1.2,0.7-2.4,1.8-2.6C-205.3,372.3-204.1,373-203.8,374.2z M-204.3,374.3c-0.1-0.4-0.3-0.9-0.7-1.1c-0.4-0.2-0.9-0.3-1.3-0.2
		c-0.4,0.1-0.8,0.4-1,0.8c-0.2,0.4-0.2,0.8-0.1,1.2c0.3,0.8,1.1,1.2,1.8,1c0.3-0.1,0.7-0.2,1-0.5
		C-204.4,375.2-204.2,374.7-204.3,374.3z"/>
</g>
</svg>
